<?xml version="1.0" encoding="utf-8"?>
<!-- Generator: Adobe Illustrator 30.0.0, SVG Export Plug-In . SVG Version: 9.03 Build 0)  -->
<svg version="1.0" id="svg4623" xmlns:svg="http://www.w3.org/2000/svg"
	 xmlns="http://www.w3.org/2000/svg" xmlns:xlink="http://www.w3.org/1999/xlink" x="0px" y="0px" viewBox="0 0 1024 170"
	 style="enable-background:new 0 0 1024 170;" xml:space="preserve">
<style type="text/css">
	.st0{clip-path:url(#SVGID_00000112626220186894979950000014749305940593463460_);}
	.st1{clip-path:url(#SVGID_00000005265151496487659150000000165838661461116562_);}
	.st2{clip-path:url(#SVGID_00000134938831705275691050000014159080103699925383_);}
</style>
<g id="layer1" transform="translate(-577.68,-37.58625)">
	<g id="g5873" transform="matrix(1.25,0,0,-1.25,-765,990)">
		<g>
			<defs>
				<rect id="SVGID_1_" x="849.21" y="479.43" width="1227.07" height="406.34"/>
			</defs>
			<clipPath id="SVGID_00000116920623033509284680000007415192257731172285_">
				<use xlink:href="#SVGID_1_"  style="overflow:visible;"/>
			</clipPath>
			<g id="g5875" style="clip-path:url(#SVGID_00000116920623033509284680000007415192257731172285_);">
				<g>
					<defs>
						
							<rect id="SVGID_00000084489548588335196440000002283630294351988137_" x="-6744.24" y="-4723.5" width="9748.42" height="6307.8"/>
					</defs>
					<clipPath id="SVGID_00000183207790531515988390000016075221797197161109_">
						<use xlink:href="#SVGID_00000084489548588335196440000002283630294351988137_"  style="overflow:visible;"/>
					</clipPath>
					<g id="g5881" style="clip-path:url(#SVGID_00000183207790531515988390000016075221797197161109_);">
						<g>
							<defs>
								
									<rect id="SVGID_00000044160392538907435760000012240713355001588127_" x="-6744.24" y="-4723.41" width="9748.42" height="6307.8"/>
							</defs>
							<clipPath id="SVGID_00000165918914515807089660000002378175596764624789_">
								<use xlink:href="#SVGID_00000044160392538907435760000012240713355001588127_"  style="overflow:visible;"/>
							</clipPath>
							<g id="g5887" style="clip-path:url(#SVGID_00000165918914515807089660000002378175596764624789_);">
								<path id="path5893" d="M1074.53,759.06V625.9h69.93h63.24v133.16h-94.46v-27.56c0,0,7.23,0,27.88,0
									c20.64,0,37.75-17.82,37.75-37.59c0-19.76-15.83-38.07-37.75-38.07c-21.92,0-37.75,17.22-37.75,38.55s0,64.67,0,64.67
									H1074.53z M1234.93,759.06V625.9c0,0,113.2,0,123.77,0s22.3,5.47,22.3,22.3s0,10.43,0,20.71c0,10.28-3.79,17.32-13.22,22.46
									c-1.08,0.59-1.47,2.12,0,2.71c1.47,0.59,13.22,4.51,13.22,22.62c0,18.1,0,9.19,0,20.23c0,11.04-4.49,22.14-22.3,22.14
									c-17.81,0-74.39,0-74.39,0v-31.7c0,0,58.71,0,60.37,0s3.34-1.38,3.34-3.35c0-1.96,0-8.81,0-10.67
									c0-1.86-0.99-3.19-3.34-3.19c-2.35,0-60.37,0-60.37,0v-32.97c0,0,58.61,0,60.37,0s3.34-1.58,3.34-3.35
									c0-1.76,0-10.35,0-12.11c0-1.76-1.29-3.35-3.34-3.35c-2.05,0-72.55,0-74.71,0c-2.16,0-3.35,1.1-3.35,3.35s0,97.32,0,97.32
									H1234.93z M1417.95,759.06c-12.25,0-22.14-9.89-22.14-22.14V648.2c0-12.26,9.89-22.3,22.14-22.3h44.6h46.03
									c12.26,0,22.3,10.04,22.3,22.3v88.72c0,12.25-10.04,22.14-22.3,22.14H1417.95z M1568,759.06c-13.68,0-22.3-10.58-22.3-22.14
									c0-11.57,0-25.1,0-38.71c0-13.6,12-22.12,22.3-22.14c10.3-0.02,78.68,0,80.44,0s3.35-1.48,3.35-3.35c0-1.85,0-9.13,0-10.99
									c0-1.86-0.71-3.35-3.35-3.35c-2.64,0-65.84,0-67.7,0s-3.34,1.58-3.34,3.35c0,1.76,0,5.26,0,5.26h-31.7c0,0,0-5.39,0-18.8
									c0-13.41,8.67-22.3,22.3-22.3c13.62,0,80.91,0,93.34,0s22.12,7.03,22.14,22.3s-0.02,26.44,0,38.55s-6.77,22.14-22.14,22.14
									c-15.36,0-78.74,0-80.6,0s-3.34,1.59-3.34,3.35c0,1.76,0,9.74,0,11.79c0,2.06,1.1,3.35,3.34,3.35c2.26,0,65.84,0,67.7,0
									c1.85,0,3.35-1.68,3.35-3.35c0-1.66,0-4.62,0-4.62h31.7c0,0-0.02,4.33,0,17.52c0.02,13.18-7.56,22.14-22.14,22.14
									C1646.77,759.06,1581.67,759.06,1568,759.06z M1721.87,759.06c-13.68,0-22.14-10.58-22.14-22.14c0-11.57,0-25.1,0-38.71
									c0-13.6,11.85-22.12,22.14-22.14c10.3-0.02,78.83,0,80.6,0c1.76,0,3.35-1.48,3.35-3.35c0-1.85,0-9.13,0-10.99
									c0-1.86-0.71-3.35-3.35-3.35c-2.64,0-65.84,0-67.7,0c-1.85,0-3.35,1.58-3.35,3.35c0,1.76,0,5.26,0,5.26h-31.7
									c0,0,0-5.39,0-18.8c0-13.41,8.51-22.3,22.14-22.3s80.92,0,93.34,0c12.43,0,22.28,7.03,22.3,22.3
									c0.03,15.27-0.02,26.44,0,38.55c0.03,12.11-6.93,22.14-22.3,22.14c-15.36,0-78.58,0-80.44,0c-1.85,0-3.35,1.59-3.35,3.35
									c0,1.76,0,9.74,0,11.79c0,2.06,1.09,3.35,3.35,3.35c2.25,0,65.84,0,67.7,0c1.85,0,3.35-1.68,3.35-3.35c0-1.66,0-4.62,0-4.62
									h31.7c0,0-0.02,4.33,0,17.52c0.03,13.18-7.72,22.14-22.3,22.14C1800.64,759.06,1735.55,759.06,1721.87,759.06z
									 M1084.88,748.71h9.24c0,0,0-32.96,0-55.27s17.46-46.19,46.03-46.19c28.57,0,47.15,22.6,47.15,46.67
									c0,24.08-19.85,46.35-46.67,46.35c-18.1,0-18.16,0-18.16,0v8.44h74.71V636.25h-52.72h-59.57V748.71z M1430.85,727.37h64.99
									c1.83,0,3.35-1.51,3.35-3.35v-62.28c0-1.84-1.51-3.35-3.35-3.35h-33.29h-31.7c-1.83,0-3.35,1.5-3.34,3.35v62.28
									C1427.51,725.86,1429.02,727.37,1430.85,727.37z"/>
								<path id="path5903" d="M1850.96,740.94c0,11.59,9.4,20.99,21,20.99c11.59,0,21-9.4,21-20.99c0-11.6-9.41-21-21-21
									C1860.36,719.94,1850.96,729.33,1850.96,740.94z M1871.96,721.71c10.62,0,19.23,8.61,19.23,19.23
									c0,10.62-8.61,19.23-19.23,19.23c-10.62,0-19.24-8.61-19.24-19.23C1852.72,730.32,1861.34,721.71,1871.96,721.71z
									 M1865.69,728.35h-3.4v25.14h11.62c4.13,0,8.26-1.43,8.26-6.75c0-3.71-1.89-5.08-3.5-6.02c1.43-0.59,2.87-1.22,3.01-4.73
									l0.2-4.55c0.03-1.4,0.21-1.92,1.26-2.52v-0.56h-4.17c-0.48,1.54-0.6,5.36-0.6,6.31c0,2.06-0.41,4.48-4.48,4.48h-8.23V728.35
									z M1865.69,742.04h7.88c2.48,0,5.11,0.63,5.11,4.34c0,3.89-2.83,4.21-4.52,4.21h-8.47V742.04"/>
							</g>
						</g>
					</g>
				</g>
			</g>
		</g>
	</g>
</g>
</svg>
