<?xml version="1.0" encoding="utf-8"?>
<!-- Generator: Adobe Illustrator 19.2.1, SVG Export Plug-In . SVG Version: 6.00 Build 0)  -->
<svg version="1.1" id="layer" xmlns="http://www.w3.org/2000/svg" xmlns:xlink="http://www.w3.org/1999/xlink" x="0px" y="0px"
	 viewBox="0 0 652 652" style="enable-background:new 0 0 652 652;" xml:space="preserve">
<style type="text/css">
	.st0{fill-rule:evenodd;clip-rule:evenodd;fill:#8FC31F;}
	.st1{fill-rule:evenodd;clip-rule:evenodd;fill:#485157;}
</style>
<g>
	<path class="st0" d="M553.2,391.3c0.4-1.7,0.7-2.3,2.6-2.3h24.4c1.8,0,1.9,0.8,1.6,2.3c-1.6,7.6-3.3,15.2-4.9,22.8
		c-0.4,1.7-0.7,2.3-2.6,2.3h-24.4c-1.8,0-1.9-0.7-1.6-2.3C549.9,406.5,551.6,398.9,553.2,391.3 M271.1,406.8c0.3-1.6,0-2.1-1.7-2.1
		h-22.5c-7.7,0-12.8-1-10.9-10c0.3-1.5,0.2-0.7,0.5-2.2c1.6-7.5,6.7-9.4,14.7-9.4h34.5c0.8,0,1.7,0.5,1.5,1.4l-0.7,3.2
		c-0.2,0.9-1.3,1.4-2.1,1.4l-33.8,0c-1.8,0-2.2,0.9-2.6,2.4l-0.8,3.8c-0.3,1.6-0.3,2.3,1.6,2.3h22.5c7.4,0,12.9,0.9,10.9,10l-1,4.7
		c-1.8,8.5-7.1,10.1-15.1,10.1h-34.2c-0.8,0-1.7-0.5-1.5-1.4l0.7-3.2c0.2-0.9,1.3-1.4,2.1-1.4l33.7,0c1.8,0,2.3-0.9,2.6-2.4
		L271.1,406.8z M505.8,417.7l11.6-54.2c0.2-0.9-0.7-1.4-1.5-1.4h-7.6c-0.9,0-1.9,0.5-2.1,1.4l-11.3,52.9h-24.5c-1.8,0-2-0.7-1.7-2.3
		l4.9-22.8c0.4-1.7,0.7-2.3,2.6-2.3H491c0.8,0,1.9-0.3,2.1-1.4l0.7-3.2c0.2-0.9-0.7-1.4-1.5-1.4H477c-8,0-13.3,1.5-15.1,10.1
		l-4.1,19.3c-1.9,9,3.2,10,10.8,10H503c0.8,0,1.9-0.3,2.1-1.4l0.7-3.2C505.8,417.8,505.8,417.8,505.8,417.7 M538.2,363.6
		c0.2-0.9-0.7-1.4-1.5-1.4h-7.6c-0.9,0-1.9,0.5-2.1,1.4c-0.5,2.2-0.9,4.4-1.4,6.6c-0.2,1,0.7,1.4,1.5,1.4h7.6c0.9,0,1.9-0.5,2.1-1.4
		C537.3,368,537.7,365.8,538.2,363.6 M317.7,397.9c0.2-1-0.7-1.4-1.5-1.4h-7.6c-0.9,0-1.9,0.5-2.1,1.4c-0.5,2.2-0.9,4.4-1.4,6.6
		c-0.2,0.9,0.7,1.4,1.5,1.4h7.6c0.9,0,1.9-0.5,2.1-1.4C316.8,402.3,317.2,400.1,317.7,397.9 M514.7,421l7.8-36.5
		c0.2-0.9,1.3-1.4,2.2-1.4h7.6c0.8,0,1.7,0.5,1.5,1.4l-7.8,36.5c-0.2,0.9-1.3,1.4-2.2,1.4h-7.6C515.4,422.4,514.5,422,514.7,421
		 M346.1,383.1c-0.8,0-1.9,0.3-2.1,1.4l-0.7,3.2c-0.2,0.9,0.7,1.4,1.5,1.4h36.6c1.8,0,2,0.7,1.7,2.3l-4.9,22.8
		c-0.4,1.7-0.7,2.3-2.6,2.3h-25.1c-1.7,0-2-0.6-1.7-2.1l1.8-8.5c0.4-1.7,0.7-2.3,2.6-2.3h19.6c0.8,0,1.9-0.3,2.1-1.4l0.7-3.2
		c0.2-0.9-0.7-1.4-1.5-1.4H354c-8,0-13.3,1.5-15.1,10.1l-1.3,6.4c-1.7,7.8,4.2,8.3,11.1,8.3h26c8,0,13.3-1.5,15.1-10.1l4.1-19.3
		c1.9-9-3.2-10-10.8-10H346.1z M436.2,416.4H412c-1.8,0-2-0.7-1.7-2.3l6.3-29.6c0.2-0.9-0.8-1.4-1.6-1.4h-7.6c-0.9,0-2,0.5-2.2,1.4
		l-6,28c-1.9,9,3.2,10,10.9,10h34.1c0.9,0,2-0.5,2.2-1.4l7.8-36.5c0.2-0.9-0.7-1.4-1.5-1.4h-7.5c-0.9,0-1.9,0.5-2.1,1.4L436.2,416.4
		z M214.2,389c1.8,0,1.9,0.7,1.6,2.3l-4.9,22.7c-0.4,1.7-0.8,2.3-2.6,2.3h-18.7c-0.9,0-1.9,0.5-2.1,1.4l-0.7,3.2
		c-0.2,0.9,0.7,1.4,1.5,1.4h19.4c8,0,13.1-1.5,14.9-10l4.2-19.4c1.9-9.1-3.5-10-11.2-10h-35.8c-0.9,0-2.1,0.7-2.3,1.6L166.8,435
		c-0.2,0.9,0.7,1.4,1.5,1.4h7.6c0.9,0,2-0.5,2.2-1.4l9.8-46H214.2z M95.8,383.1h59.6c7.6,0,12.8,1,10.8,10l-1.4,6.8h0l-4.5,21.2
		c-0.2,0.9-1.3,1.4-2.2,1.4h-7.6c-0.8,0-1.7-0.5-1.5-1.4l2.5-11.8l0.1-0.3l3.3-15.6l0.4-2c0.4-1.7,0.1-2.3-1.7-2.3h-18.5l-6.8,32
		c-0.2,0.9-1.3,1.4-2.2,1.4h-7.6c-0.8,0-1.7-0.5-1.5-1.4l6.8-32h-20.1L97,421c-0.2,0.9-1.3,1.4-2.2,1.4h-7.6c-0.8,0-1.7-0.5-1.5-1.4
		l7.4-34.9l0,0l0.4-1.6C93.8,383.4,94.9,383.1,95.8,383.1 M34.2,383.1c-0.8,0-1.9,0.3-2.2,1.4l-0.7,3.2c-0.2,0.9,0.7,1.4,1.5,1.4
		h36.6c1.8,0,2,0.7,1.7,2.3l-4.9,22.8c-0.4,1.7-0.7,2.3-2.6,2.3H38.6c-1.7,0-2-0.6-1.7-2.1l1.8-8.5c0.4-1.7,0.7-2.3,2.6-2.3h19.6
		c0.8,0,1.9-0.3,2.1-1.4l0.7-3.2c0.2-0.9-0.7-1.4-1.5-1.4H42.2c-8,0-13.3,1.5-15.1,10.1l-1.3,6.4c-1.7,7.8,4.2,8.3,11.1,8.3h26
		c8,0,13.3-1.5,15.1-10.1l4.1-19.3c1.9-9-3.2-10-10.8-10H34.2z M573.5,422.4c8,0,13.3-1.5,15.1-10l4.1-19.3c1.9-9.1-3.4-10-11.1-10
		h-25.1c-8,0-13.2,1.5-15,10.1l-4.1,19.3c-1.9,9.1,3.3,10,11,10H573.5z"/>
	<path class="st1" d="M528.4,326.8c-0.2,11.5,11.2,11.3,11.2,11.3c2-0.1,5.2,0.4,7.4,0.6l-4.1,8.7h-46.8l4-8.6
		c1.9-0.3,5.6-1.1,7.4-1.1c5.5-0.1,7.6-11.4,7.6-11.4l13.2-65.1c0.5-8.5-6.7-9.8-6.7-9.8l-6.1-1.2l4.8-8.9h22.4l43.2,73.4l10.4-52.4
		c0-8.9-9.4-11.5-10.2-11.7l-11.8-0.3l5.2-8.9h46.1l-4.3,8.7l-3.9,0.4c-6.6,2.3-8.4,10.7-8.5,10.9l-16.1,83.7l-12,3.9l-42.7-73.5
		L528.4,326.8z M118,235c8.9-2.6,19.2-3.2,26.6,1.1c0,0,4.7,2.2,6.1,7c1.3,4.8-0.1,14.8-0.1,14.8l12.3-4.6l7.6-31.3
		c0,0-50.7-11.5-79.4,9.2c0,0-20.2,10.1-32.4,38.7c-3,7.2-15.3,42.3,2.6,61c20.2,21.2,46,17.9,48.2,18.1c1.4,0.1,4.5,0.9,30-4.3
		l9.2-17.5l-9.7,1.9c0,0-33.6,8.4-50.9-4.7c0,0-16.2-10.5-13.8-30.6c0,0,0.6-14,7-26.7c9.5-18.6,20.4-24.4,20.4-24.4
		S108.1,237.2,118,235 M469.6,249.4l-0.4,0.8l0.9,0c0,0,8,0.1,8.8,5l-16.4,78.3c-1.9,2-3.5,3.3-5,4c-1.5,0.7-3,1-4.8,1.1l-0.3,0
		l-4.9,8.7h40.3l3.9-8.7c-1.4-0.2-3-0.4-4.4-0.5c0,0-7.6-0.1-6.6-8.3l15.2-74.4c0.4-1.9,1.5-3.4,3.2-4.3c1.7-0.9,4.1-1.3,7-1.1
		l0.3,0l4.9-8.9h-37.1L469.6,249.4z M313.4,255.2c-0.3,0.2-0.6,0.3-0.9,0.3l0,0l-0.8,1.3l-6.7,27.7c1.3,0,4.5,0,8.7-0.4h0
		c0,0,15.4-0.3,19.7-15.3l0,0c0,0,3-8.7-3.3-12.2c-2.3-1.3-4.9-2-7.2-2.2c-2.4-0.3-4.7-0.2-6.5-0.1
		C315.1,254.5,314.2,254.9,313.4,255.2 M270.3,338.3c7.2-1.2,8.6-11.8,8.6-11.8l14-65.2c2-9.7-5-10.3-5.1-10.3
		c-1.9-0.2-3.9-0.6-5.7-0.9l4.4-8.8h39.3c0.3,0,10-0.2,15.9,3.3c2.4,1.4,7.2,4.7,9.5,10.6c2.3,5.9,2.2,14.3-5,26.2l0,0
		c0,0-7,9.1-15.7,11.1c-3,0.7-4.6,1.1-5.6,1.4c0.7,0.3,1.5,0.8,2.6,1.4c3.3,2,5.2,7.1,5.2,7.2l0,0c0,0,4.7,17.1,7.7,25.7
		c2.7,7.9,5.6,9.1,6,9.2l8,1.5l-5.2,8.3h-21.6c-4.6-14.1-9.3-28.3-13.8-42.4l0.1-0.2c0,0,0.2-0.1-2.4-5.5c-1.5-3.2-8-3.1-9.6-3
		l-5.9,27c0,0.2-3.6,16.1,13.8,15.6l0.8,0l-3.6,8.5h-43.7l2.9-8.7L270.3,338.3z M232.7,239.9l11.9,86.9c0,0,1.2,11,11.7,11.8
		l0.7,0.1l-2.9,8.7h-41.3l3.7-8.7l0.3,0c11.3-0.8,10.3-8.7,10.3-8.7l-1.6-16.9h-35l-7.9,15.3c-3.9,9.5,5.6,9.6,5.6,9.6
		c1.8,0,4.1,0.3,5.9,0.5l-3.8,8.8h-41.3l4.9-8.6h2.4c7-0.8,14.7-14.3,14.7-14.3l46.4-82.1l15.2-2.8L232.7,239.9z M199.3,300.1h23
		l-4.7-33.8L199.3,300.1z M371.6,258.5c-1.7-9.4-10.7-8.1-10.7-8.1l-1.1,0.1l5.3-9.3h46.5l-5.5,9.3l-9.5,0.8
		c-8.3,1.8-5.6,13.2-5.6,13.3l9.2,64.5l35.1-64.3c5.9-14.3-10.1-13.9-10.2-13.9h-0.1l-2.8-0.6l5.1-9h37.6
		c-20.5,35.2-41.1,70.4-61.6,105.6c-5.7,0.9-11.5,1.9-17.2,2.8L371.6,258.5z"/>
</g>
</svg>
