<?xml version="1.0" encoding="utf-8"?>
<!-- Generator: Adobe Illustrator 30.1.0, SVG Export Plug-In . SVG Version: 9.03 Build 0)  -->
<svg version="1.0" id="Calque_1" xmlns="http://www.w3.org/2000/svg" xmlns:xlink="http://www.w3.org/1999/xlink" x="0px" y="0px"
	 viewBox="0 0 500 500" style="enable-background:new 0 0 500 500;" xml:space="preserve">
<style type="text/css">
	.st0{fill:#FFFFFF;}
</style>
<path class="st0" d="M170.86,303.66c0.74-0.74,2.22-1.48,1.48-2.96s-5.17-0.74-3.69,2.22C169.38,303.66,170.12,303.66,170.86,303.66
	 M183.42,320.65c4.43,1.48,8.13-2.22,11.82-4.43c5.91-5.17,8.13-12.56,6.65-19.95h-2.22c0,8.13-4.43,15.52-10.34,20.69
	C187.11,318.43,181.94,316.96,183.42,320.65 M165.69,301.44l0.74-0.74c-0.74-0.74-1.48-0.74-2.96-0.74
	C161.99,299.96,164.21,302.18,165.69,301.44 M180.46,303.66c1.48-0.74,4.43-2.96,4.43-5.17c-1.48-3.69-0.74-7.39-3.69-9.6
	c-3.69,2.22-6.65,5.17-8.13,8.87C174.55,299.96,178.25,301.44,180.46,303.66 M261.73,438.12L261.73,438.12
	c2.22-0.74,3.69-0.74,2.22-3.69c-2.22-0.74-2.22,2.96-3.69,2.96c-4.43-5.91-11.08-1.48-16.25-2.96c-10.34-9.6-2.96,9.6-13.3,9.6
	c-16.25,5.91-11.82-15.52-25.86-15.52c-5.17,5.17-11.82,8.87-19.21,11.08c-2.96,8.13-8.13-0.74-13.3,0
	c-8.87-3.69-19.21-0.74-25.12,7.39c2.96,3.69,5.91-2.96,8.87,0.74c8.87-3.69,16.99,1.48,24.38-3.69c8.87,3.69,16.25-5.91,25.86-4.43
	c2.96,2.22,8.13,2.96,10.34,6.65c12.56,8.13,20.69-2.96,30.29-8.13c9.6-0.74,18.47,11.08,28.07,5.17
	C273.55,435.17,265.43,444.77,261.73,438.12 M214.45,194.31c0.74,0.74,2.22,2.22,3.69,1.48c0.74-0.74,1.48-0.74,0.74-1.48
	C218.88,192.1,214.45,192.1,214.45,194.31 M283.9,442.56l-5.91-0.74C277.25,445.51,283.16,444.77,283.9,442.56 M283.9,297.75
	c-2.22-0.74-4.43,0-5.17,1.48c0,0.74,0,0.74-0.74,1.48c0.74,0,0.74,0.74,1.48,0.74L283.9,297.75z M402.11,87.92
	c2.22,0.74,3.69,5.17,0.74,5.91c9.6,7.39,5.17,25.12,14.78,31.77c5.17,5.17,12.56,7.39,19.95,6.65c7.39-4.43-5.91-5.91-3.69-11.82
	c0-5.91,3.69-4.43,8.13-5.91c0.74-3.69-2.22-5.91-3.69-9.6c-2.22,0-3.69,0.74-5.17,2.22c0.74,5.17-5.17,8.13-5.17,14.04
	c-2.96-2.22-3.69-5.91-3.69-8.87c8.13-5.91,1.48-16.25,5.91-21.43c-8.13,7.39-12.56,17.73-11.82,28.81c-0.74,0-0.74,0-1.48-0.74
	c-8.87-8.87,5.91-16.25-2.22-24.38c-3.69-8.87-15.52-11.82-19.21-20.69c-11.82-0.74-8.13-19.21-21.43-19.21
	c-7.39-0.74-0.74,5.91-2.96,8.87c2.96,0.74,3.69-2.96,5.91-2.96c3.69,2.22,5.91,6.65,5.91,11.82c-9.6,5.91-18.47-7.39-29.55-8.13
	c-4.43,4.43-6.65,11.08-5.91,16.99c3.69,0,8.13-0.74,11.08-3.69C373.29,74.63,389.55,77.58,402.11,87.92 M356.3,319.17
	c-1.48-1.48,0-4.43-2.96-5.17v5.91C354.08,320.65,354.82,319.91,356.3,319.17 M286.85,300.7c2.22,0.74,3.69-0.74,5.17-2.22
	c-0.74-1.48-2.96-2.22-4.43-1.48C287.59,297.75,284.64,299.23,286.85,300.7 M335.61,243.81l-2.96-0.74l2.96,2.22V243.81z
	 M38.61,314.74c2.22-1.48,2.22-2.96,2.22-5.17c-0.74-5.91-7.39-4.43-8.13,0C34.18,311.79,36.39,313.26,38.61,314.74 M198.93,384.93
	c3.69,11.08,19.21,5.17,18.47,17.73c5.91,3.69,5.17-8.13,11.08-5.17c-7.39,4.43-5.91,14.04-12.56,16.99
	c-2.96,3.69-5.17,8.13,0.74,10.34c4.43,1.48,10.34,3.69,14.78,0c0.74-3.69-4.43,0-5.17-3.69c-4.43-11.82,7.39-22.9,16.25-30.29
	c5.17-5.17,12.56-8.13,19.95-7.39c16.99-10.34,0.74-25.86,0-39.16c-1.48,0-3.69,0-4.43,1.48c-1.48,2.22-1.48,5.17,0.74,6.65
	c1.48,5.91,5.91,10.34,5.91,16.25c1.48,9.6-9.6,8.87-14.78,11.82c-2.96-2.96-0.74-5.91-1.48-8.13c-2.96-3.69,0.74-13.3-5.91-11.82
	c-5.91,2.22,1.48,7.39,0,11.82c3.69,9.6-5.91,16.99-11.82,22.9l-0.74-4.43c-4.43,0.74-8.87-1.48-11.08-5.17
	c-9.6,4.43-4.43-8.13-11.82-8.13c-2.22,1.48-0.74,3.69-1.48,4.43l-1.48-0.74c-2.96-4.43-8.87-4.43-13.3-3.69
	c-2.22,0.74-3.69,2.22-3.69,4.43C188.59,389.36,195.24,384.19,198.93,384.93 M192.28,308.09l-2.96,3.69h2.22
	C191.55,309.57,193.76,308.09,192.28,308.09 M207.06,360.55c5.17-0.74,3.69-5.91,5.91-8.87c-0.74-1.48-2.22-2.22-3.69-2.22
	c0,0,0,0-0.74,0c-3.69,0.74-3.69,4.43-4.43,7.39C203.37,359.81,204.84,362.76,207.06,360.55 M193.02,359.07
	c3.69-2.22,6.65-3.69,6.65-8.13c0-1.48-2.22-2.22-3.69-1.48C192.28,350.94,189.33,356.85,193.02,359.07 M348.17,244.55l-1.48,2.22
	h2.22C348.91,246.03,348.91,245.29,348.17,244.55 M155.34,230.52c-2.22-0.74-3.69,2.96-1.48,3.69l2.22-2.22
	C155.34,231.25,154.6,231.25,155.34,230.52 M37.87,82.75c0.74-2.96-0.74-3.69-3.69-3.69c-1.48,0-2.22,0.74-2.22,2.22v0.74
	C34.18,82.75,36.39,84.23,37.87,82.75 M42.3,83.49c1.48-1.48,2.22-2.96,2.96-4.43c-1.48-1.48,0.74-5.91-3.69-4.43
	C42.3,77.58,37.13,81.28,42.3,83.49 M496.68,290.36c-4.43-1.48-8.13-5.17-13.3-4.43c6.65-5.17,11.82-13.3,13.3-21.43
	C501.11,271.89,501.11,282.23,496.68,290.36 M450.87,294.05l0.74-3.69c13.3,0,8.13,14.78,12.56,21.43l-0.74,8.13
	c0,0.74,0,2.22,0,2.96v-2.96C464.17,309.57,456.04,302.18,450.87,294.05 M453.82,375.32c-2.22-8.87-8.87-16.25-17.73-19.21
	c-3.69,0.74-11.08-2.96-11.82,3.69v9.6c-2.96-5.17-3.69-11.08-2.22-16.25c0.74-9.6,14.04-0.74,13.3-11.08
	c5.91,1.48,12.56-0.74,16.99-5.17c-2.22-5.17-9.6-5.91-8.13-11.82l13.3,0.74c-1.48,8.13-2.22,16.99-9.6,22.16
	c-2.96,0.74-7.39-0.74-8.87,3.69c1.48,3.69,6.65,3.69,11.08,3.69c-4.43,3.69,2.22,4.43,3.69,6.65l8.13,0.74
	c0.74,4.43-0.74,9.6-3.69,12.56C457.52,373.85,455.3,375.32,453.82,375.32 M455.3,384.19L455.3,384.19c-0.74-2.22,0-3.69,2.22-4.43
	C459,380.5,457.52,383.45,455.3,384.19 M425.75,390.84c-6.65,5.91-15.52,8.13-24.38,6.65c-6.65-1.48-11.08-6.65-13.3-13.3
	l-0.74-3.69c2.96,0,8.13,8.87,10.34,1.48c-1.48-2.22,0.74-5.17,1.48-7.39c7.39,1.48,2.22,15.52,11.82,10.34
	c3.69-0.74,6.65,3.69,8.87-0.74c-8.87-5.91-12.56-16.25-11.08-26.6c0.74-2.22,2.96-3.69,5.17-3.69c-0.74,7.39,0,14.78,2.96,22.16
	c3.69,4.43,8.87,6.65,14.78,8.13C430.92,387.88,424.27,384.93,425.75,390.84 M363.69,376.06c-8.13,6.65-20.69,3.69-29.55,9.6
	c1.48,3.69,5.91,0.74,6.65,4.43c-2.22-2.96-14.78,4.43-9.6-5.17v-1.48c-7.39-2.96-15.52-5.91-23.64-8.13
	c16.25,1.48,33.25-1.48,48.02-9.6c-3.69-3.69-8.87-7.39-11.82-10.34c4.43-5.17,9.6,3.69,16.25,2.22l0.74,5.91
	c16.99-9.6,35.46-28.07,33.99-49.5c0-15.52-2.96-30.29-9.6-44.33c11.08,16.99,16.99,36.94,16.99,57.63
	C404.32,350.94,380.68,364.24,363.69,376.06 M383.64,396.01l-2.22,2.96c-0.74,0-0.74-0.74-0.74-1.48
	C381.42,397.49,382.16,395.27,383.64,396.01 M372.55,384.19c0,2.96-1.48,5.91-2.96,8.13c-2.22-1.48-5.91-1.48-8.13,0.74
	c-0.74-5.17,2.22-10.34,6.65-13.3C371.08,379.76,372.55,381.97,372.55,384.19L372.55,384.19 M402.85,277.06
	c3.69,4.43,5.17,10.34,2.96,16.25C396.94,291.1,405.8,283.71,402.85,277.06 M408.76,266.72c0.74,2.22,5.91,2.22,3.69,5.17
	c5.91,5.17,14.78,6.65,22.16,3.69c2.22-0.74,0.74-3.69,0.74-5.17c-2.22-0.74-2.22-4.43-1.48-5.91c3.69-3.69,6.65,2.22,10.34-2.22
	c4.43-2.96,11.82-0.74,14.04-7.39c1.48,17.73-8.13,34.72-23.64,43.59v-0.74c4.43-7.39,8.13-15.52,10.34-23.64
	c-2.96-2.96-1.48-8.13-5.91-8.87c-1.48,5.91,0.74,11.82-3.69,16.25c-0.74,5.91-5.91,9.6-10.34,12.56
	c-4.43,1.48-11.08,3.69-14.78,0.74c0-4.43,2.22-8.13,1.48-12.56c3.69,0.74,6.65,5.17,9.6,1.48c-6.65-5.17-16.99-11.82-15.52-21.43
	l8.13-3.69c0.74,0.74,0.74,2.96,0.74,3.69C413.19,264.5,407.28,261.55,408.76,266.72 M425.01,269.67c1.48-0.74,1.48,0.74,2.22,0.74
	c0,0.74-0.74,0.74-0.74,0.74L425.01,269.67z M447.17,316.22h-1.48l2.22-2.96C449.39,314,447.17,315.48,447.17,316.22 M442,333.95
	c-3.69,2.22-8.13-2.96-9.6-6.65c-0.74-8.13,3.69-15.52,1.48-24.38c3.69-0.74,6.65-3.69,11.08-3.69c-0.74,3.69-7.39,7.39-8.13,12.56
	C435.35,319.91,436.83,328.04,442,333.95 M412.45,320.65c-9.6-1.48-3.69-14.78-8.13-20.69c8.13,3.69,20.69-1.48,23.64,9.6
	c0.74,11.82-2.22,23.64-8.87,33.25C419.1,334.69,422.79,325.82,412.45,320.65 M402.11,362.02l-2.22,3.69
	c-0.74,0.74-4.43-0.74-3.69-3.69c2.22-8.13,11.08-13.3,10.34-22.16c-0.74-2.22,0-5.17,1.48-6.65c2.22-0.74,3.69,2.22,4.43,3.69
	c0.74,5.17-0.74,9.6-3.69,14.04C408.02,356.11,393.24,354.64,402.11,362.02 M452.35,305.87c2.22,1.48,5.17,5.17,2.96,8.13h-0.74
	L452.35,305.87z M464.17,291.84c-8.13-7.39,0-17.73,1.48-26.6c0.74,2.22,1.48,4.43,0,6.65c-0.74,1.48-4.43,2.22-2.22,5.17
	c2.22,3.69,5.91-2.22,7.39,3.69c-2.22,12.56,3.69,25.12,15.52,30.29l5.17,0.74c0,5.17-5.17,8.13-7.39,11.82
	C464.17,322.13,475.99,299.96,464.17,291.84 M471.56,257.85l3.69,4.43l-1.48,4.43L471.56,257.85z M478.2,272.63
	c3.69,0.74,2.22,5.91,1.48,8.13l-2.22,2.96C475.25,280.76,477.47,275.58,478.2,272.63 M488.55,268.2
	c0.74-9.6-16.99-13.3-14.78-24.38c0.74-8.13,8.87-17.73,0.74-23.64c-8.13,4.43-1.48,16.25-9.6,21.43
	c-5.91-2.22-5.17-16.25-12.56-10.34c1.48,8.13,5.91,18.47-0.74,25.86c-3.69-0.74-6.65,1.48-6.65-2.22
	c2.96-8.87,2.22-17.73-1.48-25.86c-7.39,2.22-16.25,3.69-21.43-1.48c-0.74-2.22,2.96-0.74,2.96-3.69c-5.17,2.96-9.6-5.91-14.04-2.22
	c0.74,19.21,40.63,14.78,23.64,38.42c-3.69,1.48-7.39,5.17-11.82,5.17c0-5.91,1.48-13.3-6.65-16.25c-2.22,0-3.69-2.22-3.69-4.43
	v-0.74l2.96-2.22c-3.69-2.22-8.87-2.96-13.3-2.96l1.48,3.69c-5.17,0.74-14.04-2.22-15.52,4.43c0,5.17-1.48,9.6,2.22,11.82
	c2.22,0.74,4.43-0.74,5.17-2.22c-2.22-3.69,0.74-6.65,3.69-8.13c0.74-1.48,3.69-0.74,5.17-1.48c0.74,3.69-4.43,5.17-3.69,9.6
	c-2.22,3.69,0.74,8.13,0.74,11.82c-3.69,0.74-6.65-3.69-8.87,0.74c0.74,2.22,3.69,3.69,2.96,6.65l-13.3-19.95
	c0.74,0,2.96,0.74,3.69-0.74c-2.96-5.91-11.82-9.6-9.6-17.73c-17.73-8.87-20.69-26.6-21.43-44.33c0.74-12.56,5.17-25.12,13.3-35.46
	c-3.69,30.29,3.69,65.02,31.77,80.53c0.74,0,2.22,0.74,2.96-0.74c0.74-1.48-3.69-2.96-2.96-5.91c3.69,0,7.39-1.48,9.6-4.43
	c-4.43-4.43-6.65-11.08-5.91-17.73c0.74-3.69,3.69-5.91,6.65-8.13c9.6-3.69,11.82,7.39,16.25,12.56c8.13-3.69,0.74-14.78,3.69-21.43
	c5.17-1.48,6.65,5.17,8.13,8.87c0,7.39-2.96,14.78-8.87,19.21c2.22,2.22,7.39-0.74,9.6-2.96c7.39-5.17,4.43-12.56,5.91-19.95
	c-1.48-8.13-6.65-15.52-14.04-19.21c-3.69,0-7.39-2.22-8.87-5.91c-0.74-2.22,1.48-0.74,2.22-2.22l0.74,0.74
	c5.17-2.96,11.08-5.17,16.99-5.91c13.3,14.04,17.73,34.72,10.34,53.19c5.17,0.74,8.13,8.13,13.3,5.17
	c-8.13-8.13-1.48-17.73-3.69-28.81C479.68,215.74,498.15,239.38,488.55,268.2 M320.1,202.44c3.69-8.13,0-18.47-2.96-25.86
	c3.69-2.96,5.91-8.13,9.6-9.6c8.87,3.69,10.34,14.04,15.52,20.69c-9.6,7.39,5.17,8.13,5.17,14.78c3.69,8.13,1.48,16.99-5.17,22.9
	c-5.17-8.13-10.34-15.52-8.13-25.86C329.7,197.27,325.27,202.44,320.1,202.44 M304.58,152.94c-1.48-0.74-2.96,0.74-4.43,0.74
	c4.43,2.96,0,5.91,0,8.87c-0.74,0.74-3.69-0.74-3.69-2.22c-0.74-4.43,3.69-8.13,3.69-11.82c3.69-0.74,7.39,0.74,9.6,3.69
	c-0.74-0.74-0.74,0-0.74,0.74c5.17,0,9.6,2.96,11.82,7.39c-1.48,1.48,0,5.17-3.69,5.17C315.67,159.59,310.49,155.16,304.58,152.94
	 M312.71,172.15c-3.69,0-9.6-2.22-5.91-6.65l0.74-2.96C311.23,164.02,311.23,168.46,312.71,172.15 M279.46,199.49v2.22
	c-3.69-1.48-5.17-5.91-3.69-9.6l0,0c2.96-3.69,5.17-8.87,9.6-7.39C288.33,189.88,278.73,192.84,279.46,199.49 M269.86,152.94
	c-5.17,0-10.34,2.96-12.56,7.39c-0.74-9.6,4.43-18.47,13.3-22.16c2.22,2.22,8.13,1.48,9.6,5.91c-0.74,3.69-2.96,7.39-5.91,10.34
	c6.65,3.69,3.69,12.56,4.43,19.21l-6.65,5.91c-2.96-3.69,1.48-6.65,1.48-10.34C274.29,163.28,272.81,158.11,269.86,152.94
	 M284.64,143.34c3.69,2.22,11.82,0,11.82,5.91c-7.39,5.17-8.13,15.52-9.6,23.64C283.9,162.54,283.16,152.94,284.64,143.34
	 M296.46,172.15c-1.48,5.17,0.74,10.34,4.43,14.04c-2.22,0.74-5.91-2.22-6.65-4.43C293.5,178.06,295.72,175.84,296.46,172.15
	 M324.53,112.31c-3.69-7.39-8.13-13.3-14.78-17.73c13.3,6.65,24.38,17.73,30.29,31.77c-2.96,7.39-5.91,15.52-7.39,23.64
	c-4.43-0.74-6.65-5.91-9.6-7.39C323.79,131.51,328.23,121.17,324.53,112.31 M309.76,118.95c-3.69,2.22-0.74,7.39-2.96,10.34
	c-1.48-0.74-2.22-2.96-2.22-4.43c-1.48,0.74-8.13,0.74-6.65-3.69c4.43-2.22,8.13-5.91,9.6-11.08v-7.39
	c6.65,7.39,12.56,14.78,11.82,25.12c-1.48,1.48-2.22,2.22-3.69,2.22C311.23,126.34,322.32,115.26,309.76,118.95 M293.5,48.77
	c-1.48,5.17,0,12.56-3.69,16.99C292.02,60.59,283.9,49.51,293.5,48.77 M292.76,69.45c2.22-8.13,14.78-11.82,9.6-22.16
	c3.69,0,6.65,1.48,9.6,3.69c-2.96,5.91-7.39,13.3-1.48,19.21c5.91,11.08,23.64,0.74,23.64,16.25c-1.48,3.69-1.48,8.87-5.17,11.82
	c-8.87-5.91-18.47-11.08-28.81-14.78C297.2,79.8,289.81,76.1,292.76,69.45 M314.19,57.63h1.48v6.65
	C314.19,62.81,313.45,59.85,314.19,57.63 M357.04,144.07c1.48,5.17-1.48,8.87-2.22,13.3c-3.69,2.22-5.91,8.13-11.08,6.65
	c-5.17-5.91-3.69-16.99-2.22-25.12C345.22,141.86,350.39,147.77,357.04,144.07 M343,112.31c6.65-1.48,9.6-8.13,12.56-12.56
	c4.43,8.13-5.91,14.78-9.6,20.69C340.79,118.95,343,114.52,343,112.31 M348.91,170.67c10.34-6.65,16.25-19.21,14.04-31.77
	c-3.69-3.69-7.39,5.17-11.82,0.74c-1.48-3.69-5.91-3.69-4.43-8.87c5.91,2.22,11.82,1.48,16.99-1.48l5.17-5.91l0.74,1.48l-2.96,1.48
	c8.87,1.48,2.22,11.82,3.69,17.73c-11.08,11.08-17.73,25.86-19.21,40.63C348.91,182.49,343.74,175.84,348.91,170.67 M359.26,114.52
	c2.96,1.48,1.48,5.91,1.48,9.6c0,0.74-0.74,0.74-1.48,0.74C355.56,122.65,357.04,118.22,359.26,114.52 M379.2,149.25
	c0.74-2.22,3.69-3.69,2.96-5.91c-0.74-0.74-2.96-0.74-3.69-0.74c4.43-7.39-7.39-16.25,4.43-19.95c3.69-5.17,5.17-11.82,3.69-17.73
	c5.91,5.91,11.82,11.08,11.08,19.21l-2.22,2.96c2.22,2.96,6.65,0.74,9.6,3.69c3.69,2.96,7.39,5.91,10.34,10.34
	c-5.91-0.74-11.82,1.48-16.25,5.91c-8.13,2.96-3.69,14.04-11.08,14.78c-0.74,0.74-1.48,0.74-1.48,2.22
	c5.91,1.48,12.56,3.69,19.21,5.91c8.13,8.13,17.73,15.52,16.99,27.34c-8.13-4.43-16.25-11.08-25.86-7.39
	c-0.74-8.87-3.69-19.21-14.04-21.43c-3.69,1.48-0.74,5.17-2.22,8.13c5.17-0.74,7.39,4.43,8.87,8.13c1.48,3.69-2.96,3.69-4.43,5.91
	c-3.69,0.74-7.39-0.74-9.6-3.69c2.22-7.39-8.13-10.34-2.96-16.25c2.96-0.74,5.91-2.96,8.13-5.17
	C376.99,158.85,376.99,153.68,379.2,149.25 M397.67,223.13c-6.65-0.74-12.56-4.43-15.52-10.34c-0.74-5.91,0.74-11.08,3.69-15.52
	c4.43-3.69,9.6-7.39,15.52-4.43C400.63,200.96,392.5,212.05,397.67,223.13 M472.29,191.36c0,0.74-1.48,0.74-2.22,0
	c-2.96-3.69-5.91-8.87-2.96-13.3c2.96-4.43,5.91,0.74,8.13-3.69c0-1.48,0-3.69-1.48-4.43c-3.69,0-7.39,1.48-9.6,3.69l-5.91,8.13
	c-2.22-6.65-5.17-13.3-9.6-18.47c5.91,2.22,12.56,0.74,16.99-4.43c-0.74-5.91-11.82,1.48-9.6-6.65c6.65-5.17,8.87-11.82,13.3-16.25
	c1.48,2.96,2.22,5.91,2.96,9.6h-0.74c0,0.74,0,3.69,2.22,4.43l3.69-0.74C482.64,162.54,484.12,179.54,472.29,191.36 M455.3,133.73
	c1.48-0.74,2.96-3.69,4.43-3.69c1.48,4.43,0,9.6-3.69,13.3C450.13,141.86,456.04,136.69,455.3,133.73 M458.26,96.79l8.13-3.69
	c0,3.69-1.48,8.13-5.17,10.34c-4.43,2.96-8.87,0-12.56-2.96c-2.96-2.96-3.69-6.65-2.22-10.34
	C449.39,93.84,453.82,96.79,458.26,96.79 M382.16,24.39c0.74,0.74,1.48,1.48,0.74,2.22c-5.17,0.74-7.39,6.65-8.87,11.08l-5.17-11.08
	C373.29,26.6,378.47,28.08,382.16,24.39 M358.52,25.86l8.87,10.34c1.48,3.69,2.22,7.39,0.74,11.08c-2.22,2.96-5.91,2.96-8.87,0.74
	c0,0,0,0-0.74-0.74c-9.6-5.91-2.96-18.47-13.3-22.9C349.65,23.65,354.08,25.86,358.52,25.86 M334.14,34.73
	c2.96,0,5.17,2.22,7.39,0.74l0.74,0.74c-1.48,3.69-5.17,0-8.13,0V34.73z M325.27,45.07c2.96,0.74,6.65-0.74,8.13-2.96
	c8.87,2.96,22.16,5.17,22.9,16.25c0,1.48,0.74,2.22,2.22,2.22c6.65-2.22,14.78-5.17,14.78-14.04c8.13,8.13,15.52-3.69,25.12-0.74
	c6.65-0.74,13.3,0,19.95,1.48c-9.6,4.43-25.12,11.08-23.64,23.64c5.91-7.39,19.21-5.17,22.9-14.04c3.69-4.43,9.6-6.65,14.78-5.17
	c3.69,0.74,9.6,4.43,5.91,9.6c-5.91,1.48-14.04-8.13-17.73,0c11.08,2.22,20.69,9.6,27.34,19.21c-5.17,2.22-11.82,0.74-14.78,6.65
	c5.91,2.96,3.69,11.82,9.6,16.99c5.17,4.43,11.82,5.91,18.47,4.43c5.17-2.22,9.6-5.17,12.56-10.34c3.69,8.13,0.74,16.25,0.74,24.38
	c-0.74,0.74-1.48,5.17-5.17,5.91c-3.69-1.48-4.43-14.78-11.08-9.6c-0.74,2.96,0.74,5.17-0.74,5.91
	c-5.91-3.69-3.69-14.78-10.34-12.56c-3.69,2.96,0.74,7.39-1.48,10.34c-0.74,0-0.74,0-0.74,0.74c7.39-1.48,5.17,8.13,4.43,11.82
	c-1.48,5.91-1.48,14.78-7.39,19.95c-5.91,8.87-16.25,10.34-25.86,11.82c-3.69-3.69-8.87-3.69-11.82-8.13
	c0-4.43,0.74-8.13,2.96-11.82c10.34-8.13,15.52,14.78,23.64,5.17c-5.17-13.3-14.78-23.64-27.34-29.55
	c-0.74-11.08-7.39-20.69-16.99-25.12c-5.17,0-10.34-8.13-14.78-0.74c-0.74,5.17,6.65,2.96,8.13,8.13
	c-0.74,4.43,0.74,8.87-5.17,11.08c-4.43,0.74-6.65-5.91-10.34-7.39c0-6.65,1.48-15.52-5.17-20.69c-2.22-2.96-5.91-4.43-9.6-2.96
	c0,3.69,2.96,10.34,0,14.04c-3.69,2.96-4.43,8.87-9.6,8.13c-5.91-5.91-2.96-11.82-0.74-18.47c2.96-1.48,2.22-5.17,5.17-5.91
	c-2.96-2.96,0-9.6-1.48-14.04c-2.96-11.08-14.04-19.95-25.12-26.6l-10.34-1.48C310.49,40.64,323.05,36.95,325.27,45.07
	 M309.76,21.43c-3.69,3.69-8.13,8.13-8.13,14.04c-2.22-0.74-3.69-2.22-4.43-4.43c-2.22-4.43,5.17-8.13-0.74-9.6
	C300.15,18.48,306.06,18.48,309.76,21.43 M283.9,33.25c2.96-2.22,5.17-5.17,8.87-7.39c-0.74,2.96-1.48,5.17-1.48,8.13
	c1.48,1.48,3.69,2.96,3.69,5.17c-2.22,2.96-6.65,4.43-9.6,2.22C281.68,39.16,283.16,36.95,283.9,33.25 M263.21,37.69
	c8.87,1.48,15.52,7.39,18.47,16.25c2.96,8.13,1.48,16.99-4.43,23.64c-10.34,0.74-21.43-0.74-27.34-9.6
	c0.74-2.96-0.74-8.13,3.69-7.39c11.08-4.43,8.13,16.25,17.73,8.13C271.34,56.89,271.34,45.07,263.21,37.69 M257.3,29.56
	c-1.48,2.22-1.48,0.74-3.69,0C252.87,25.13,257.3,25.13,257.3,29.56 M235.14,31.04c3.69,0,8.13-6.65,10.34-0.74L244,38.42
	c2.22,2.22,8.87,0,8.13,4.43c-6.65-2.96-14.04-2.22-19.95-4.43C231.44,35.47,233.66,33.25,235.14,31.04 M221.84,29.56
	c1.48-0.74,2.96-2.22,5.91-1.48c-6.65,5.17,2.22,19.21-10.34,16.99C212.23,39.16,220.36,35.47,221.84,29.56 M231.44,48.03
	c9.6,0,16.99-0.74,25.86,3.69c-5.17,5.17-16.25,5.91-14.78,15.52c-1.48,5.91,2.96,10.34,3.69,15.52c-3.69,3.69-9.6,3.69-11.82,8.13
	c5.91,3.69,12.56-2.22,19.21-1.48c1.48,2.96-3.69,3.69-0.74,5.17c3.69-0.74,5.91-4.43,9.6-5.17c9.6-5.91,23.64-2.22,32.51,2.22
	c5.17,7.39,12.56,14.78,8.87,24.38c-3.69,7.39-17.73-3.69-12.56,8.13c-2.22-2.22-9.6,0-8.13-4.43c0-0.74-0.74-0.74-1.48-0.74
	c-1.48-4.43,0.74-9.6,4.43-11.82c7.39-3.69,8.13,10.34,14.04,1.48c0-4.43-2.22-8.87-6.65-10.34c-3.69,2.22-7.39,3.69-11.82,5.17
	c-4.43,1.48-7.39,10.34-12.56,5.91c-2.22,2.96,4.43,8.13-0.74,10.34c-5.17-4.43-5.91-16.99-15.52-11.08
	c-4.43,2.22-8.13,6.65-9.6,11.82c0-3.69,0.74-8.13-2.22-10.34c-3.69,0-0.74,4.43-2.22,6.65c-5.17-3.69-10.34-8.87-13.3-14.78
	c0-5.91-1.48-15.52,6.65-18.47c0.74,0.74,1.48,0.74,2.22,0.74c1.48-1.48,2.22-3.69,2.22-5.91c-5.91-9.6-16.25-16.25-28.07-16.99
	C210.02,50.98,221.84,50.25,231.44,48.03 M217.4,81.28c-1.48-2.96-1.48-5.91,0.74-8.87c2.96-0.74,5.17,2.96,8.13,5.17
	C224.05,79.8,220.36,79.06,217.4,81.28 M199.67,38.42c3.69,2.96,8.13,3.69,8.87,8.13s-3.69,5.17-5.91,7.39
	c-2.22,0-3.69-2.22-4.43-3.69C196.72,47.29,196.72,42.12,199.67,38.42 M194.5,29.56c-2.22-0.74-5.17-0.74-8.13-0.74
	C188.59,27.34,195.98,23.65,194.5,29.56 M196.72,59.11c-2.22,0.74-3.69,2.22-6.65,1.48c-2.22-2.96-3.69-7.39-0.74-9.6l0.74-2.22
	C190.81,53.2,193.02,56.16,196.72,59.11 M194.5,36.21c-7.39,3.69-8.87,11.08-13.3,16.25c-7.39-7.39-17.73-11.82-28.07-11.82v-1.48
	C165.69,32.51,181.2,31.77,194.5,36.21 M168.64,62.07c-4.43,1.48-2.22-3.69-3.69-4.43l0.74-6.65c3.69,0.74,6.65,2.96,8.13,5.91
	C175.29,60.59,170.12,60.59,168.64,62.07 M159.04,58.37c0.74,3.69-5.91,8.13,0.74,9.6h4.43c-1.48,3.69-5.91,2.22-8.13-0.74
	c-2.22-2.96-2.22-7.39-1.48-9.6C153.87,52.46,160.51,56.16,159.04,58.37 M156.82,28.08c-1.48,0.74-2.96,1.48-4.43,0.74l-0.74-0.74
	C153.13,29.56,154.6,27.34,156.82,28.08 M159.04,47.29c-5.17,0-8.13,6.65-11.82,8.13c0.74,0.74,0.74,1.48,0.74,2.22
	c0,0.74-0.74,0.74-1.48,0.74c-2.22-3.69-2.22-8.13,0.74-11.82C150.17,45.81,154.6,45.81,159.04,47.29 M152.39,72.41
	c-5.17-0.74-11.82,2.22-14.78-0.74l-0.74-11.82C142.78,64.28,146.48,69.45,152.39,72.41 M122.84,36.21
	c5.91-4.43,13.3-5.17,19.95-2.96c1.48-0.74,2.96-1.48,4.43,0c0.74,0,0.74,2.22,0.74,2.96c-5.17,2.22-10.34,5.17-14.78,9.6
	c-4.43-3.69-8.87-5.91-14.04-7.39C118.4,34.73,120.62,36.95,122.84,36.21 M136.87,52.46L136.87,52.46l-0.74-2.22h0.74V52.46z
	 M99.93,40.64L88.85,39.9C92.54,38.42,99.19,32.51,99.93,40.64 M96.98,48.77h-2.22l3.69-3.69C98.45,47.29,98.45,48.03,96.98,48.77
	 M106.58,47.29c3.69-5.91-5.17-15.52,5.91-14.78c2.96,4.43-10.34,8.13-1.48,11.08c5.17,0,8.87-1.48,12.56,1.48
	c5.91,2.96-0.74,8.87,2.22,11.82l0,0l0.74,0.74c0.74,0.74,2.22,0.74,3.69,0.74c0.74,5.91,2.22,14.78-3.69,16.25
	c-2.96,0.74-4.43-1.48-5.91-3.69c-1.48-6.65,10.34-8.87,5.91-14.04l-0.74-0.74c-6.65-1.48-14.04-1.48-20.69,1.48
	c1.48,1.48,3.69,2.22,5.91,2.22c-5.91,2.96-10.34,8.13-11.82,14.78c-0.74,5.91,0,11.08,1.48,16.25c-4.43,1.48-9.6,0.74-14.04-1.48
	c-5.91-3.69-4.43-10.34-3.69-14.78c2.22-8.13,11.08-11.08,16.25-16.25c-5.17,0-10.34,2.22-14.04,5.17c0,0,0,0,0,0.74h-0.74
	c-1.48,1.48-3.69,2.96-5.17,3.69l2.22-4.43c1.48,0.74,2.96,1.48,4.43,0.74c0,0,0.74,0,0.74-0.74c0.74-1.48,0-2.96-1.48-3.69h-2.22
	C92.54,59.85,101.41,55.42,106.58,47.29 M123.57,84.23c-3.69,2.96-7.39,4.43-11.82,4.43c-3.69-3.69-0.74-8.87,0-12.56l1.48-1.48
	C113.97,78.32,120.62,82.75,123.57,84.23 M71.86,39.9c1.48-2.96,9.6-4.43,9.6,1.48c0.74,2.96-0.74,2.96-2.96,4.43
	s-4.43,1.48-5.17-0.74C72.6,42.86,71.86,42.12,71.86,39.9 M28.27,98.27l0.74-0.74c-0.74-5.17,5.91-6.65,5.91-10.34
	c-3.69-2.96-8.87-3.69-13.3-2.22c2.96-9.6,14.78-13.3,20.69-19.95c4.43-3.69,9.6-1.48,14.04-3.69c-5.17,5.91-3.69,14.78-8.13,20.69
	c0.74,3.69,3.69,5.91,7.39,6.65c5.17,5.17,0.74,19.21,10.34,16.25c3.69-3.69,10.34-3.69,10.34-8.13
	c-6.65-2.96-12.56-5.91-16.99-10.34c-6.65-8.87,0-17.73,3.69-25.12c5.17-5.91,11.82-10.34,19.21-12.56
	c-7.39,8.13-8.13,19.21-9.6,29.55c0.74,8.13,5.17,14.78,11.82,19.21c9.6-3.69,21.43,8.13,28.07-2.96
	c9.6-2.96,18.47-8.13,24.38-16.25c13.3,2.22,28.81,5.17,36.2,17.73c0,3.69,2.96,7.39,0,10.34c-5.91-8.13-12.56-14.78-21.43-19.95
	c-10.34-0.74,0,13.3-8.87,12.56c-1.48-4.43,3.69-10.34-1.48-14.78c-10.34-0.74-8.13,11.82-11.82,15.52
	c-0.74,5.17,2.96,8.13,3.69,12.56c-5.17-3.69-10.34-8.13-8.87-14.04c3.69-2.96,3.69-5.91,5.91-8.87c-6.65-1.48-8.87,8.87-15.52,8.87
	l-0.74,2.22c2.22,6.65,12.56,11.08,10.34,19.21c-2.22,3.69-6.65,4.43-10.34,2.22l-0.74-0.74c-7.39-2.22-2.96-12.56-8.87-14.04
	c-11.08,12.56-15.52,28.81-11.82,45.07c-4.43-1.48-4.43-7.39-7.39-11.08c-3.69-5.17,5.17-14.78-2.96-16.25
	c-3.69,5.91-5.91,16.25-1.48,21.43l3.69,5.91c-2.22-1.48-5.17-2.22-8.13-2.22c2.22,5.91,9.6,7.39,12.56,12.56
	c5.91,8.13,13.3,18.47,9.6,28.07l-14.78,8.13c2.22-9.6,2.22-19.95,0.74-30.29c2.22,0,4.43-0.74,5.17-2.96
	c0.74-2.22-5.91-1.48-6.65-1.48c-3.69-7.39-7.39-19.21-17.73-18.47c-1.48,0.74-4.43,0-5.91,2.96c2.22,2.22,3.69,0,5.91,1.48
	c5.17,5.91,11.82,11.82,11.82,19.95c-0.74,0.74-4.43,2.22-2.22,3.69c5.17,3.69,3.69,10.34,3.69,15.52
	c-2.22-9.6-14.04-14.78-20.69-19.95c-3.69,0.74-8.13,0.74-8.13,4.43c5.91,1.48,11.08,5.17,14.78,10.34c0,2.96,2.22,8.13-0.74,12.56
	c-6.65-2.22-0.74-15.52-10.34-11.82c-7.39,7.39-8.87,17.73-5.17,27.34l3.69,5.17c-14.04-16.25-13.3-45.81-5.17-65.02
	c5.17-18.47,25.12-21.43,38.42-31.77c-0.74-3.69-5.91-3.69-8.87-5.17c-11.08-3.69-19.21,3.69-29.55,3.69
	c-3.69,4.43-9.6,7.39-9.6,13.3c5.17,3.69,7.39-3.69,11.82-4.43c4.43-1.48,9.6-2.22,14.78-0.74c-5.91,7.39-16.99,13.3-19.95,22.16
	c-8.13-0.74-9.6-9.6-11.82-14.78c0-8.13-0.74-16.25,5.91-21.43c5.17-8.13,11.82-5.91,16.25-11.82c-8.13-11.08-14.78,6.65-21.43,8.13
	c-7.39,9.6-8.87,22.9-4.43,34.72c3.69,4.43,8.87,6.65,9.6,11.08c5.17,2.96-0.74,5.91,0,9.6c-6.65,0-16.25-11.82-22.16,0
	c0.74-19.95,0.74-43.59,19.21-56.15C33.44,103.44,30.48,100.48,28.27,98.27 M153.87,189.14c0.74-1.48,0.74-4.43,3.69-3.69
	c2.22,2.96-0.74,5.17-1.48,7.39C152.39,192.84,154.6,189.88,153.87,189.14 M150.91,184.71c-3.69,0.74-2.22-3.69-3.69-5.17
	c0-6.65,3.69-12.56,9.6-15.52c5.91-3.69,8.13,3.69,10.34,5.91C170.86,183.97,154.6,175.1,150.91,184.71 M147.96,196.53
	c-0.74,1.48-1.48,0.74-2.22,0.74c-1.48-1.48-0.74-3.69,0.74-4.43c0,0,0,0,0.74,0C148.69,194.31,147.96,195.79,147.96,196.53
	 M153.13,202.44c-0.74,0.74-2.96,3.69-5.17,3.69c-8.13,4.43-11.82-8.13-17.73-2.96c1.48-5.91,4.43-19.21-1.48-28.07
	c-2.96-5.91-5.17-13.3-13.3-14.04c-1.48,5.91,1.48,13.3-2.22,18.47c-1.48,1.48-3.69,2.22-5.91,2.22
	c-2.22-8.13-12.56-14.78-6.65-23.64c2.96-8.87,7.39-16.99,12.56-23.64l0.74,0.74c5.91-11.82,18.47-16.25,30.29-19.21
	c-13.3,8.87-20.69,23.64-20.69,39.9c0.74,8.87,4.43,16.99,11.08,22.16c0,2.96-2.96,5.91,0,8.87c3.69-0.74,5.17-5.17,6.65-8.13
	c0,5.91,0.74,11.82-3.69,14.78c-2.22-0.74-4.43,0-5.91,1.48c0,3.69,3.69,5.17,5.91,5.91C142.78,203.92,147.96,203.92,153.13,202.44
	 M170.12,237.9c-0.74-5.91-0.74-11.08-6.65-15.52l-1.48,0.74c-0.74,3.69,2.96,8.13,2.22,11.82c-3.69-0.74-0.74-11.82-7.39-5.91
	c-3.69,10.34,11.08,10.34,16.25,18.47v4.43c-17.73-11.82-39.9-13.3-59.11-3.69c1.48-5.91,8.87-6.65,12.56-10.34
	c8.13-3.69,16.99-2.22,24.38-5.91c-3.69-2.96-9.6-0.74-14.78-0.74c-14.04-0.74-25.86,8.87-33.25,18.47
	c0.74-9.6,11.82-21.43,23.64-25.12c12.56-1.48,24.38-4.43,36.2-8.13c5.17-0.74,10.34,1.48,12.56,5.91
	c2.96,6.65,3.69,14.04,1.48,20.69c-1.48-6.65,0.74-16.25-7.39-22.16C166.43,225.34,174.55,230.52,170.12,237.9 M130.22,262.28
	c-0.74,2.22-3.69,0.74-5.17,1.48c-3.69-5.17,2.96-8.87,1.48-12.56c1.48-0.74,3.69,0.74,4.43,2.22v0.74
	C129.48,257.85,142.04,263.76,130.22,262.28 M134.66,282.97L134.66,282.97l0.74-2.96C134.66,280.02,135.4,282.23,134.66,282.97
	 M111.75,227.56l-14.04,18.47c0-5.91,2.22-11.08,5.91-15.52c3.69-3.69,9.6-5.17,12.56-10.34c-0.74-2.22-3.69-1.48-2.96-5.17
	c11.08,10.34,25.12-2.22,36.2,0C139.09,219.43,122.84,220.17,111.75,227.56 M109.54,394.53c-3.69,4.43-8.13,10.34-14.78,9.6
	c9.6-4.43,11.82-14.78,12.56-24.38c-1.48-15.52-13.3-25.86-23.64-36.94c-3.69,0-6.65-1.48-9.6-3.69c-4.43-3.69-2.96-8.87-1.48-13.3
	c0,10.34,11.82,12.56,19.21,15.52c2.96,0,5.91-3.69,5.91-5.91c-3.69-2.22-9.6,3.69-14.04,0.74c-3.69-3.69-5.17-8.87-3.69-13.3
	c0.74-0.74,2.22-2.22,3.69-1.48c0.74,3.69,4.43,5.91,8.13,4.43c1.48,0,2.22-0.74,2.96-2.22
	C111.01,344.29,115.45,370.15,109.54,394.53 M96.24,312.52L96.24,312.52l0.74,3.69h-0.74V312.52z M94.76,381.97
	c2.96,3.69,3.69,8.13,2.22,11.82c-1.48,0.74-2.22,0-3.69-0.74C90.33,388.62,96.98,386.41,94.76,381.97 M94.02,408.57
	c3.69-0.74,11.08-6.65,13.3-2.22c0.74,9.6,8.13,21.43,19.21,22.16h5.91c-2.22,2.22-6.65,2.22-9.6,2.22
	c-10.34,2.22-14.78-4.43-22.16-8.13C98.45,418.91,91.07,414.48,94.02,408.57 M90.33,399.7c-2.96,3.69-6.65,1.48-10.34,2.22
	c-2.96-4.43-4.43-9.6-2.22-14.78C79.25,393.05,84.42,397.49,90.33,399.7 M89.59,379.02c0,2.96-0.74,5.91-3.69,6.65
	s-3.69-1.48-4.43-4.43C80.72,375.32,89.59,369.41,89.59,379.02 M81.46,366.46c-0.74-3.69,3.69-2.22,5.17-5.17
	c2.96-0.74,3.69,2.96,5.17,4.43v2.22L81.46,366.46z M74.81,316.96c0.74-1.48,0.74-4.43-1.48-3.69h-2.22c-0.74-3.69,7.39-4.43,5.91,0
	C77.77,314.74,76.29,315.48,74.81,316.96 M88.85,310.31v2.96c-3.69-5.91-14.04-4.43-16.25-9.6
	C78.51,305.87,91.07,298.49,88.85,310.31 M71.86,299.23c-11.82-10.34-2.96-25.86-2.96-39.16c2.22,10.34,5.17,19.95,8.87,29.55
	c2.96,1.48,5.17,3.69,7.39,6.65C81.46,299.23,76.29,300.7,71.86,299.23 M62.25,311.79c2.22,4.43,9.6,3.69,6.65,9.6
	c-0.74,0.74-2.22,1.48-2.22,2.22c-3.69-2.96-5.91-9.6-8.13-14.78c-3.69-18.47-2.22-36.94,4.43-54.67
	C62.99,274.11,53.39,292.58,62.25,311.79 M64.47,253.42v-2.22l0.74-2.96L64.47,253.42z M74.07,251.94
	c-2.22-5.17-0.74-11.08,3.69-14.78c-0.74,3.69,3.69,8.87,8.87,10.34c0.74,0.74,2.22,0.74,3.69,0.74c-0.74,5.91-7.39,5.17-10.34,8.13
	C77.77,256.37,74.81,254.16,74.07,251.94 M84.42,240.86c0.74-3.69-2.22-8.13,2.96-8.87c2.96,0,4.43,2.96,5.91,4.43
	c0.74,3.69-3.69,5.91-3.69,8.13C86.63,245.29,85.89,242.34,84.42,240.86 M81.46,227.56c-2.96-2.22,0-5.91,0.74-8.13l2.96-0.74
	l-0.74-0.74c2.22-3.69,5.17-6.65,8.87-8.13l4.43,8.13c0.74,2.96,0.74,5.17,0.74,8.13C92.54,226.08,87.37,226.82,81.46,227.56
	 M124.31,191.36c-2.96,3.69-7.39,5.17-11.82,3.69c-3.69,0-3.69-2.22-5.91-3.69c0.74-8.87,12.56-8.87,14.04-19.21
	C122.84,178.06,127.27,183.97,124.31,191.36 M128.01,210.57l2.22-5.17c1.48,1.48,4.43,4.43,3.69,8.13
	c-1.48,2.22-5.17,0.74-7.39,0.74c-2.22-0.74-2.96-2.96-2.22-5.17c0,0,0-0.74,0.74-0.74L128.01,210.57z M108.06,200.22
	c4.43-2.22,10.34,0,11.82,5.17v3.69c-5.91-2.22-11.82-2.22-17.73-0.74C100.67,203.92,105.1,202.44,108.06,200.22 M110.28,219.43
	c-2.96,0-7.39,0.74-7.39-3.69l1.48-4.43C105.1,213.52,107.32,217.96,110.28,219.43 M97.72,133.73l2.22-2.96
	c-1.48-2.22-0.74-6.65,0.74-10.34c0,6.65,15.52,11.82,3.69,19.21c-1.48,2.22-3.69,3.69-5.91,3.69
	C96.98,141.12,98.45,136.69,97.72,133.73 M136.87,100.48l4.43,7.39C137.61,110.09,135.4,103.44,136.87,100.48 M131.7,159.59
	c-3.69-8.87-2.96-18.47,2.96-26.6c5.91,2.96,13.3,2.96,19.21-0.74c0.74,9.6-8.87,16.25-11.82,25.12
	C139.09,159.59,134.66,163.28,131.7,159.59 M153.13,119.69c-6.65,0.74-0.74,10.34-8.13,11.82c-2.96-1.48-0.74-4.43,0-6.65
	c4.43-6.65,11.82-7.39,18.47-8.87c-0.74-5.17-5.91-5.17-10.34-5.91c-0.74-5.17,3.69-8.87,2.22-14.78
	c9.6,7.39,14.78,19.95,13.3,31.77c-2.96,0.74-5.17,3.69-8.13,3.69C159.04,127.08,159.04,120.43,153.13,119.69 M67.42,214.26
	c-5.91,0.74-11.82-3.69-13.3-9.6c0-3.69-1.48-8.87,0.74-11.82c2.22,5.17,6.65,9.6,12.56,10.34l5.17,0.74
	C75.55,209.09,69.64,211.31,67.42,214.26 M45.26,220.17c2.96,1.48,5.17,2.96,7.39,5.17c0,3.69-3.69,5.17-6.65,5.91
	C44.52,229.04,48.22,223.87,45.26,220.17 M35.66,209.83c-1.48-1.48,0.74-3.69,2.22-5.17c1.48,0.74,1.48,2.22,1.48,3.69
	C37.87,209.83,36.39,209.83,35.66,209.83L35.66,209.83 M37.13,214.26l-1.48,5.91c-2.22-0.74-2.22-5.17-0.74-6.65L37.13,214.26z
	 M15.71,169.93c3.69-1.48,5.91-5.17,9.6-5.17c-4.43,1.48-5.17,5.91-7.39,8.87c-1.48,0-2.96-1.48-2.22-2.96
	C14.97,170.67,15.71,170.67,15.71,169.93 M8.32,155.16l-1.48,4.43c-2.22-5.91-4.43-12.56-6.65-19.21c-0.74-2.96,0.74-5.91,2.96-7.39
	c0.74,2.22,5.17,5.17,5.91,9.6l-0.74,5.17C3.89,148.51,8.32,153.68,8.32,155.16 M17.92,195.79c4.43,2.96,8.13,8.13,4.43,13.3v2.22
	c5.91-0.74,2.96-10.34,7.39-14.04c-4.43-0.74-5.91-5.17-8.13-8.13c-0.74-5.91,0-11.82,3.69-16.25c2.22,3.69,5.91,3.69,9.6,5.17
	c0.74,5.91,0.74,13.3-5.91,15.52c2.22,3.69,2.96-0.74,5.91-0.74c0.74,4.43,0.74,8.87,0,12.56c-2.96,0.74-5.91,0-8.13,3.69
	c5.17,5.91-0.74,16.25,8.87,19.95c0.74,0.74,2.22,1.48,3.69,0.74l0.74-0.74c-0.74,1.48-3.69,2.96-2.96,5.91
	c3.69,5.17,16.25-3.69,11.82,7.39c-4.43-1.48-9.6-9.6-14.04-3.69v5.91c-3.69-0.74-5.17-14.78-11.82-6.65l-4.43,4.43
	c-2.96-10.34,5.17-19.21,3.69-29.55c-4.43,1.48-4.43,12.56-10.34,5.91C9.8,209.83,16.45,203.92,17.92,195.79 M41.57,250.46
	c-1.48,14.04-4.43,28.81-9.6,42.11c-1.48,3.69-7.39,3.69-9.6,0.74c-3.69-2.96-6.65-6.65-8.87-11.08
	c8.13-0.74,15.52-5.17,19.21-12.56C38.61,263.76,31.96,254.16,41.57,250.46 M12.01,303.66c10.34,1.48,19.95-2.22,27.34-9.6
	c-2.22-19.21,8.13-34.72,12.56-51.72c12.56-15.52,26.6-41.37,47.28-42.11c-20.69,10.34-33.25,33.25-41.37,53.93
	c-11.82,27.34-8.87,59.11,8.13,84.22l11.82,11.08c-14.04-6.65-25.86-17.73-32.51-31.77c-8.13-1.48-15.52-3.69-22.16,0.74
	c1.48-3.69,0-7.39-2.96-9.6c-2.96-0.74-5.91,0-8.13,2.22L12.01,303.66z M65.21,363.5c2.22-2.22,5.91-1.48,8.13,0.74
	c0.74,0.74,1.48,2.22,1.48,2.96c0,5.17-4.43,2.22-6.65,2.96C67.42,367.94,63.73,365.72,65.21,363.5 M58.56,359.81
	c-1.48-3.69,0.74-6.65,2.22-9.6c3.69-3.69,8.13-0.74,11.08,0.74c0.74,0.74,2.22,1.48,2.22,2.96
	C68.9,356.11,63.73,358.33,58.56,359.81 M45.26,333.21l-0.74,2.96c-5.17-2.22-8.87-8.13-8.87-14.04
	C41.57,323.61,43.04,329.52,45.26,333.21 M14.23,336.91c0.74-8.13-2.96-14.78-2.22-23.64c8.87,4.43-0.74,16.25,8.13,19.95
	c4.43-2.96,2.22-9.6,8.13-10.34c-1.48,12.56-2.22,24.38-3.69,33.99c-3.69-5.17-4.43-11.82-2.22-17.73
	C19.4,336.17,14.97,343.55,14.23,336.91 M29.01,417.44c-2.22,2.96-4.43,5.17-8.13,6.65c-3.69-8.13,0-14.78,0-22.9
	C25.31,404.88,31.96,410.79,29.01,417.44 M29.74,388.62L29.74,388.62v-2.22l0,0V388.62z M21.62,379.02
	c-0.74,2.22,4.43,1.48,0.74,3.69H19.4c0-8.87-5.17-19.21-2.96-26.6c3.69,6.65,8.87,11.82,14.78,16.25
	C29.01,375.32,23.83,374.58,21.62,379.02 M54.86,349.46c0,5.17-3.69,11.08-3.69,17.73c-0.74-2.22-2.22-3.69-3.69-5.17
	c-2.96,0-3.69,3.69-5.91,5.17c-5.17-8.87-8.87-19.21-9.6-29.55l-0.74-5.17C38.61,338.38,44.52,347.99,54.86,349.46 M54.86,375.32
	v1.48c-3.69,0.74-6.65-2.96-8.13-5.17C48.95,371.63,51.17,376.8,54.86,375.32 M39.35,421.13c-3.69-5.91,0.74-14.04,2.22-19.95
	l-2.22-2.22c-2.96,1.48-1.48,8.13-6.65,5.17c-3.69-5.91,8.13-8.13,6.65-14.78c-0.74-4.43-2.96-8.87-5.17-12.56
	c5.17,0,10.34,1.48,14.78,4.43c0,3.69-5.17,7.39-3.69,11.08c4.43-5.17,9.6-8.87,15.52-11.82c5.91-0.74,9.6-5.91,16.25-5.17
	c-5.17,7.39-6.65,16.99-5.17,25.86c-5.17,0.74-9.6-6.65-14.78-4.43c6.65,10.34,17.73,16.25,30.29,15.52
	c1.48,2.22,2.22,4.43,2.22,7.39c-8.13-10.34-23.64-8.87-35.46-6.65C48.22,414.48,43.78,417.44,39.35,421.13 M85.16,440.34
	c5.17-2.96-0.74-5.91,2.22-9.6c0.74-0.74,0.74,0.74,1.48,0.74c0.74,5.91,0.74,14.78-7.39,14.78c-5.17,1.48-11.08,0.74-15.52-2.22
	c-1.48-1.48-2.96-2.96-2.22-5.91c3.69-0.74,7.39-2.22,10.34-5.91C76.29,436.65,80.72,438.86,85.16,440.34 M77.77,418.91
	c2.96-2.96,5.91,0.74,8.13,2.96c0.74,3.69-4.43,5.17-5.91,7.39C77.77,426.3,77.03,422.61,77.77,418.91 M95.5,455.12
	c-5.91,5.91-13.3,8.87-21.43,8.87c-5.91,0-11.82-2.22-16.25-5.91c-2.22-3.69-5.17-7.39-8.13-9.6c0.74-9.6-11.82-24.38,5.17-29.55
	c5.91-1.48,13.3-2.96,14.78,5.17c2.96,4.43-0.74,8.13-3.69,11.82c-3.69,0.74-7.39-4.43-9.6,0c-0.74,6.65,0.74,13.3,4.43,18.47
	c-0.74,0.74-2.96,0.74-3.69,2.22c9.6,5.91,19.21-1.48,27.34-5.17c4.43-2.22,5.91-6.65,8.13-10.34
	C96.24,444.77,94.02,449.94,95.5,455.12 M102.15,440.34c0.74,1.48,0.74,4.43,1.48,6.65l0.74,0.74l-0.74-0.74
	c-4.43-5.17-7.39-11.82-8.87-18.47c5.17,2.22,14.78,2.22,14.78,9.6C108.8,435.91,101.41,435.91,102.15,440.34 M118.4,435.17
	c0.74,0.74,2.22,0.74,3.69,0.74c0.74,4.43,0.74,6.65,0.74,11.08c-2.96,2.22-7.39,2.96-10.34,0.74l-1.48-1.48
	C115.45,444.03,118.4,440.34,118.4,435.17 M112.49,454.38c8.13-2.22,17.73-2.96,24.38,5.17
	C128.01,463.98,119.88,458.81,112.49,454.38 M306.8,431.47c-1.48,5.91,3.69,10.34,0.74,15.52c-2.96-6.65-10.34-5.91-16.25-5.91
	c-0.74,1.48-4.43,3.69-0.74,5.91c3.69,2.22,9.6,0.74,14.04,2.96l2.96-0.74c0.74,4.43-1.48,8.87-5.17,9.6
	c-9.6,2.96-19.95,2.96-28.07,8.13c-5.17-2.22-6.65,5.91-9.6,3.69c-3.69,1.48-2.22,5.17-5.17,7.39c-18.47,2.96-37.68,3.69-56.15,1.48
	c-11.82-8.13-22.16-18.47-36.2-19.95c-10.34-4.43-19.21-1.48-29.55-4.43c-3.69-2.22-5.17-5.91-5.91-9.6
	c5.91-0.74,11.08-5.17,13.3-10.34c0.74-7.39,2.22-15.52-3.69-19.21c-1.48,0-3.69,0-3.69,2.22c0.74,3.69,0,7.39-3.69,8.13
	c-10.34,1.48-11.08-10.34-14.04-16.25c0.74-29.55,2.22-59.11-14.78-84.96c4.43-3.69,11.08,2.96,14.78-3.69
	c-0.74,1.48,0.74,1.48,0.74,2.96c2.22,1.48,3.69-3.69,5.91,0c5.17,0,11.82,0.74,14.78-5.91c0.74-3.69-2.96-2.22-4.43-3.69
	c-11.08,1.48-21.43-0.74-31.03-6.65c3.69,0,10.34-2.96,14.04,3.69c3.69,0,3.69-3.69,5.17-5.91c0,2.22,0.74,4.43,2.22,5.91
	c3.69-8.13,11.82,8.87,11.08-5.17c0.74,2.96,3.69,2.22,5.91,1.48c0.74-2.22,1.48-4.43,2.22-5.91c-18.47-4.43-39.16-4.43-50.98-21.43
	c-3.69-0.74-6.65,1.48-7.39,4.43v0.74c2.96,2.96,4.43,3.69,3.69,8.13c-7.39-2.22-8.13-11.08-10.34-17.73
	c0-8.13,6.65-13.3,11.82-19.95c2.22,4.43-1.48,11.82-0.74,14.78c5.17-2.22,8.13-7.39,11.82-11.82c3.69-0.74,5.17-5.17,8.87-5.91
	c-0.74,8.13-2.96,18.47,4.43,25.12c10.34,11.08,26.6,15.52,41.37,11.08c6.65-2.96,11.82-8.13,14.78-14.78
	c0.74-3.69,1.48-8.13,0.74-11.82c7.39,11.08,5.91,25.86,14.04,35.46c0.74,2.22-3.69,2.22-0.74,3.69c4.43,0.74,4.43-3.69,5.91-6.65
	c-5.17-7.39,2.22-16.99-3.69-24.38l1.48-1.48c-0.74,0-0.74-1.48,0-2.22s1.48-2.96,3.69-2.22c0,3.69-0.74,7.39-3.69,10.34
	c0.74,1.48,3.69,0.74,4.43-0.74c2.22,2.22-4.43,8.87,0.74,8.87l2.96-3.69c0.74,3.69-4.43,5.91-0.74,8.87
	c2.96-2.22,4.43,2.22,4.43,4.43c1.48,14.78-2.22,29.55-16.25,37.68c-2.22-0.74-5.91,1.48-6.65,3.69c0.74,1.48,0.74,2.96,2.22,3.69
	c10.34-0.74,17.73-11.82,23.64-19.21c13.3-33.25-5.91-66.49-19.21-94.57c-4.43-6.65-12.56-11.82-20.69-13.3
	c5.91-4.43,13.3-6.65,20.69-6.65c1.48,4.43,5.17,7.39,9.6,8.13l5.17-5.17h-2.22c6.65-0.74,6.65,5.91,10.34,9.6
	c-5.17,4.43-12.56-0.74-18.47,0.74c3.69,6.65,11.08,5.91,16.99,8.13c5.91-3.69,11.82-7.39,17.73-10.34
	c14.78-14.78,24.38-35.46,19.95-56.15c-1.48-5.17-2.22-10.34-6.65-13.3c-6.65-0.74-13.3,11.08-17.73,0.74
	c-4.43-5.17-1.48-16.25-10.34-16.25c-10.34,3.69-11.08,14.78-11.82,23.64c-8.87,0-20.69-3.69-27.34,2.96
	c6.65,0,10.34,4.43,15.52,6.65c5.91,13.3-0.74,25.86-8.13,36.2c-8.87,8.13-20.69,14.04-31.77,9.6c13.3-6.65,22.16-19.21,23.64-33.99
	c0-6.65-5.17-12.56-1.48-19.21c-12.56-2.22-21.43,7.39-29.55,15.52c5.91-16.99,16.99-36.2,36.2-43.59
	c5.91-8.87,7.39-20.69,3.69-30.29l-8.87-11.82c9.6-0.74,18.47,11.82,23.64,20.69l5.17,16.99c0.74,1.48,3.69,4.43,5.91,2.96
	c3.69-7.39-2.22-16.25-4.43-23.64c-0.74-8.13-19.95-13.3-10.34-22.16c0.74-1.48,0-2.96-1.48-3.69c-4.43,0.74-6.65,8.87-11.82,5.91
	c-4.43-5.17-14.04-3.69-15.52-10.34c14.04-7.39,31.03-8.87,46.55-4.43c-7.39-0.74-9.6,5.91-14.78,7.39
	c5.91,2.22,8.87-3.69,14.78-2.96c-0.74,14.04-0.74,30.29,11.08,39.9c0.74,0.74-5.91-1.48-7.39,1.48s3.69,5.17,0.74,7.39
	c-0.74,1.48-3.69,2.96-3.69,5.17c2.96,2.96,7.39,3.69,10.34,1.48l2.22-8.13c3.69,0.74,3.69,5.91,5.91,9.6
	c-2.96,1.48-5.91-2.96-8.13,0.74c2.96,4.43,3.69,14.04,11.08,13.3c6.65-4.43,2.96-13.3,1.48-17.73l-2.96-3.69h3.69l2.22,13.3
	c5.17,0,10.34-2.96,13.3-7.39c-2.96-4.43-2.96-9.6-0.74-14.04c3.69,2.22,5.17,7.39,3.69,11.08l-0.74,0.74
	c5.17,4.43,9.6-1.48,16.25,0c19.21,3.69,36.94,12.56,51.72,25.86c-19.95-7.39-43.59-21.43-67.23-13.3c-4.43,0-8.13,2.22-11.08,5.91
	c5.17,2.96,13.3-8.13,14.78,2.22c-8.87,7.39-6.65,19.95-5.91,30.29l2.22,2.22c5.91-3.69,3.69-13.3,12.56-13.3
	c3.69,3.69-0.74,6.65-0.74,11.08c-3.69,8.13-14.78-3.69-14.78,7.39c6.65,5.17,14.78,2.96,21.43,2.22
	c-7.39,8.87-15.52,16.25-25.12,22.9c-3.69-1.48-4.43,2.96-6.65,3.69V215c3.69,1.48,8.13-2.96,11.82,0
	c-0.74,1.48-3.69,0.74-3.69,3.69c1.48,2.96,5.17,5.17,8.13,3.69l0,0l2.22-2.96c-2.22-2.96,1.48-4.43,1.48-6.65v-9.6
	c4.43-1.48,9.6-0.74,11.82,3.69c2.22,4.43-5.17,6.65-6.65,10.34c1.48,0,2.96,0,4.43-0.74l0.74-0.74l2.96-1.48l2.22-2.22
	c3.69-2.22,11.82,2.22,12.56-4.43c-2.22-2.22-5.17-3.69-5.17-7.39c0.74-2.22,0.74-5.91,5.17-6.65c3.69,1.48,7.39,2.22,11.82,2.96
	c0.74,1.48,0,3.69,0.74,4.43c2.96,0.74,4.43-2.96,5.91-4.43c-0.74-3.69,2.22-5.91,3.69-9.6c-3.69-0.74-8.13-0.74-8.87-4.43
	l0.74-5.91c8.13,0.74,9.6,10.34,11.82,16.25c0.74,3.69-1.48,8.13-4.43,10.34c-2.22,0.74-5.17-0.74-6.65,2.96l0.74,1.48
	c-8.13,0-5.91-16.25-14.78-9.6c0.74,5.91,4.43,10.34,9.6,13.3c8.87,2.96,16.25-1.48,25.12-1.48l10.34,16.25
	c-6.65-4.43-14.04-7.39-22.16-8.13c2.96,4.43,8.13,5.17,12.56,6.65c7.39,5.91,14.78,11.82,20.69,16.25
	c0.74-0.74,1.48-2.22,0.74-3.69l-1.48-1.48c1.48,0.74,2.96,1.48,3.69,0c2.96-0.74,0.74-3.69,2.22-5.91l-1.48-0.74
	c0-0.74,0.74-0.74,1.48-0.74c5.91,6.65,7.39,14.78,5.91,23.64c-8.13,8.13-11.82-6.65-19.21-5.17c0,3.69,2.96,3.69,4.43,6.65
	c-16.25-8.87-43.59-16.25-62.06-1.48c-2.96,2.22-4.43,5.91-7.39,8.13c2.22-8.87,8.87-16.25,16.99-19.21
	c9.6-9.6,25.12-2.22,36.2-3.69c-2.96-5.91-10.34-5.91-14.78-9.6l-5.17,1.48c-0.74-0.74,0.74-2.96,1.48-4.43
	c-0.74-2.96-3.69-0.74-5.17,0.74c-1.48,1.48-0.74,5.91-5.17,5.91c-3.69-3.69,7.39-9.6,0.74-10.34c-4.43,2.96-5.17,6.65-7.39,10.34
	c-0.74-5.17,5.17-9.6,8.13-14.78c3.69-3.69,6.65,3.69,9.6-1.48c-9.6-5.17-21.43-5.91-31.77-2.22c-0.74,0.74-2.22,1.48-2.96,2.22
	c-10.34,11.08-13.3,25.86-19.21,39.16c-6.65,20.69-15.52,42.11-11.82,65.02c0.74,2.22,2.96,2.96,5.17,1.48l0.74-0.74
	c6.65-7.39-3.69-15.52,0.74-23.64c0.74-2.22,1.48-4.43,2.22-7.39c5.17,0,0-4.43,2.22-6.65v-3.69c8.87,7.39-2.22,15.52,5.91,22.9
	c4.43-2.22,10.34,2.22,12.56-4.43c-1.48-3.69,2.96-1.48,3.69-3.69c-3.69-3.69-3.69-12.56-10.34-10.34
	c-3.69,2.22,5.17,8.87-2.96,8.13c0.74-11.82,8.13-22.16,14.78-32.51h2.22c-2.22,8.13,0,16.25,5.91,22.16
	c8.13,9.6,22.9,9.6,34.72,7.39c8.13-2.22,19.21-5.91,20.69-16.25c0.74-5.17,0-9.6-0.74-14.78c6.65,5.17,11.08,11.82,14.78,19.21
	c3.69-3.69,5.17,3.69,9.6,2.22l2.22,7.39c-0.74,0-5.17-2.96-8.13,0c1.48,1.48,2.96,3.69,3.69,5.91c-4.43,0-2.22-5.91-4.43-7.39
	c-4.43,0.74-5.91,3.69-8.87,7.39c-6.65,3.69-13.3,6.65-20.69,8.87l0.74,4.43c-3.69-11.08-15.52-0.74-23.64-5.91
	c-2.22-0.74-4.43,0-6.65-0.74c-1.48,4.43,3.69,9.6,6.65,13.3c1.48,0.74,2.22-1.48,3.69-1.48c0,5.17,5.91,2.96,8.13,3.69l0.74-0.74
	c4.43,3.69,12.56,2.96,19.95,5.91c0.74-0.74,1.48-0.74,2.22-0.74s0.74,2.22,2.22,2.96c1.48-0.74,2.96-2.22,3.69-3.69
	c1.48-0.74,2.96,5.91,5.91,2.22c0-5.91,2.22-11.82,5.91-16.25c-0.74-5.91,9.6-2.22,5.91-8.87c5.17,1.48,8.87,12.56,16.25,7.39
	l3.69-2.96c-5.91-4.43-12.56-8.87-12.56-16.99c3.69-1.48,8.87,5.17,11.08-0.74c2.22-5.91-5.17-9.6-9.6-11.82
	c-2.22-0.74-5.17,0-8.13-0.74c-0.74-2.96,4.43-6.65,0-8.13l-7.39-1.48c0.74-8.13,8.13-16.25,3.69-25.86
	c-1.48-5.17-5.17-9.6-8.87-13.3h2.22c4.43,9.6,11.82,16.25,16.99,25.86c-3.69,8.13,6.65,15.52,8.87,23.64
	c2.22,12.56,8.87,20.69,9.6,34.72c0,7.39-0.74,15.52-2.22,22.9c-5.91-1.48-11.82,0-16.25,3.69c-5.91-3.69-2.22-14.78-3.69-19.95
	c-3.69,2.22-5.17,8.13-6.65,12.56c0,3.69,2.96,5.91,2.22,9.6c-8.13,1.48-9.6-11.82-16.25-5.91c0.74,8.87,11.08,8.87,16.99,11.08
	c2.96,2.22,4.43,6.65,8.87,5.17c5.17-3.69,0.74-11.08,8.87-9.6c5.17,9.6-8.13,14.78-12.56,21.43c-7.39,1.48-14.78-1.48-19.21-8.13
	c-8.13-5.17-5.17-16.25-13.3-19.21l-2.96,3.69c2.22,7.39-1.48,16.25,3.69,22.16c0,3.69-5.91,5.91-5.17,10.34
	c2.96,2.22,4.43-1.48,6.65-1.48c1.48,5.17-5.91,7.39-8.87,8.13c-13.3,0.74-30.29,0.74-39.16-11.82c-1.48-2.22,0-8.13-5.17-5.91
	c-2.96-0.74-3.69,2.96-3.69,3.69c3.69,16.25,23.64,23.64,36.2,31.77c10.34-0.74,5.17,11.82,14.04,12.56l-2.96,5.17
	c4.43,5.91,8.13-0.74,11.82-1.48c8.13-5.17,8.87-13.3,14.04-18.47c2.96,8.13,0.74,16.25,5.17,23.64c-0.74,5.91-8.13,6.65-11.82,9.6
	c-17.73,9.6-39.16,1.48-53.19-11.08c0.74-0.74,4.43,2.96,6.65,0.74c-2.22-7.39-13.3-8.87-14.04-16.99
	c-3.69-1.48-3.69,2.96-5.17,4.43c-0.74,18.47,17.73,24.38,29.55,31.77C309.02,427.04,307.54,430,306.8,431.47 M181.94,226.08
	c2.96,5.91,2.96,13.3,0,19.21C184.16,239.38,184.16,232.73,181.94,226.08 M187.85,257.85c2.22-0.74,2.22-5.17,5.17-4.43
	c0.74,3.69-0.74,8.13-3.69,11.08C185.63,263.02,188.59,260.07,187.85,257.85 M185.63,254.9c-1.48,0-2.22-1.48-2.96-2.96
	c0-3.69,3.69-5.91,5.17-9.6C190.07,246.03,189.33,251.2,185.63,254.9 M197.46,158.85c3.69,0.74,9.6,2.22,10.34,8.13
	c1.48,11.82-4.43,21.43-2.22,32.51C190.07,189.88,201.89,172.15,197.46,158.85 M197.46,200.22l-3.69,5.17
	c-2.96-3.69-3.69-8.87-1.48-13.3C193.76,193.58,197.46,197.27,197.46,200.22 M227.01,189.88c2.96-3.69,3.69-8.87,2.22-14.04
	c-2.22-3.69-6.65-8.13-3.69-11.82c3.69-3.69,5.17-7.39,11.08-9.6c8.13,5.91,7.39,19.21,3.69,28.07c0,8.13-5.91,14.78-13.3,16.25
	c0.74,2.96,5.17,2.96,3.69,6.65s-5.91,3.69-8.87,4.43c-2.96-2.22,1.48-7.39-2.96-10.34c-2.96-3.69-6.65-3.69-8.13-8.13
	c-0.74-5.17,0.74-10.34,4.43-14.04c0,1.48-2.22,5.17,0.74,6.65c3.69-1.48,3.69-5.91,8.13-5.91c0.74,3.69,0.74,7.39-0.74,11.08
	c0.74,1.48,2.22,1.48,2.96,1.48C226.27,190.62,226.27,189.88,227.01,189.88 M218.88,156.63c-0.74,2.22-3.69,3.69-5.91,2.96
	c-0.74,0-1.48-0.74-2.22-1.48c-3.69-4.43-4.43-9.6-2.96-14.78c2.22-1.48,0-6.65,4.43-5.91l2.96,8.87
	C216.66,149.99,224.05,151.46,218.88,156.63 M294.24,277.06c3.69,0.74,8.87,2.96,10.34,5.91c-4.43-0.74-9.6,0.74-12.56-3.69
	C290.55,277.8,292.76,277.8,294.24,277.06 M290.55,264.5c0-3.69-4.43-8.13,0-10.34c3.69,0,2.96,7.39,8.13,6.65
	C299.41,265.24,292.76,261.55,290.55,264.5 M274.29,243.08v-3.69C275.77,239.38,275.03,240.86,274.29,243.08L274.29,243.08z
	 M277.25,231.99c0,1.48-0.74,2.22-0.74,3.69C276.51,234.21,277.25,233.47,277.25,231.99c0.74-5.91,2.96-11.82,6.65-16.25
	C283.9,220.91,279.46,226.08,277.25,231.99 M292.02,215l0.74,0.74l-11.08,19.95C283.16,227.56,286.85,220.91,292.02,215
	 M355.56,297.01c-1.48,0.74-4.43-0.74-5.17-3.69C352.61,292.58,354.82,294.05,355.56,297.01
	C355.56,296.27,355.56,296.27,355.56,297.01 M349.65,299.23c-0.74,0.74-1.48,0.74-2.22,0.74l-0.74-2.96
	C348.17,297.01,348.17,298.49,349.65,299.23 M340.79,305.14c-0.74-0.74-0.74-1.48-0.74-1.48
	C340.79,304.4,340.79,304.4,340.79,305.14c0.74,0.74,0.74,1.48,0.74,2.96c-2.22,1.48-4.43,2.96-6.65,2.96
	C334.88,305.14,343,309.57,340.79,305.14 M320.84,437.38c-4.43,0-5.17-5.17-7.39-8.13c2.22,1.48,5.91,2.22,7.39,5.91V437.38z
	 M331.18,443.29c-1.48,1.48-3.69-0.74-5.91-0.74c0-3.69,5.91-5.91,6.65-10.34C332.66,435.17,334.88,440.34,331.18,443.29
	 M340.79,438.86c0.74-4.43-4.43-8.13-1.48-11.82c9.6-3.69,20.69-3.69,25.86,7.39c0,5.17,0.74,10.34,2.22,15.52
	c2.96,5.17,8.13,5.17,11.82,8.13C365.17,458.07,348.91,453.64,340.79,438.86 M374.77,430.73c-3.69-1.48-7.39-3.69-9.6-7.39
	c0.74-1.48-1.48-5.17,0.74-5.17s5.91,0.74,6.65,3.69C372.55,425.56,373.29,428.52,374.77,430.73 M376.99,437.38l-3.69,3.69
	l-0.74-1.48C373.29,437.38,374.77,436.65,376.99,437.38 M406.54,470.63c-7.39,0.74-14.78-2.22-19.95-7.39c0-3.69,9.6-7.39,5.17-9.6
	c-4.43,0-9.6,2.96-11.82-2.22c0-3.69,0.74-7.39,2.96-10.34c4.43-0.74,9.6-5.17,14.04-0.74c8.13,5.17,0.74,14.78,5.17,21.43
	C402.11,464.72,407.28,466.94,406.54,470.63 M405.06,430.73c-3.69,3.69,4.43,5.17,3.69,8.13c-7.39-3.69-16.25-5.17-24.38-3.69
	c2.22-1.48-1.48-4.43-2.96-6.65c-5.17-0.74,0.74-3.69,0-5.91c0.74,0.74,0.74-0.74,1.48-0.74c0.74-5.17-5.91-4.43-8.13-6.65
	c-8.13-2.96-13.3-10.34-14.04-19.21c4.43,3.69,10.34,4.43,13.3-1.48c7.39-5.17,1.48-15.52,5.91-21.43h0.74
	c-2.22,8.13,5.91,20.69-6.65,22.9c-3.69,1.48-1.48,5.17-2.22,8.13c2.22,2.96,4.43,7.39,8.13,5.91c3.69-1.48,1.48-5.91,3.69-6.65
	c0.74,2.22-2.22,5.91,0.74,7.39c8.13-6.65,15.52,5.91,24.38,8.13c-3.69,2.22-10.34,0-12.56,4.43L405.06,430.73z M402.85,407.09
	c2.22-4.43,15.52-8.13,13.3,2.22C411.71,411.53,406.54,410.05,402.85,407.09 M422.06,450.68c0,2.22,0,6.65-2.96,6.65
	c-3.69-5.91-2.96-14.04-3.69-21.43c3.69-3.69,4.43-7.39,9.6-8.13c5.17,0,10.34-0.74,12.56,5.17
	C438.31,442.56,423.53,439.6,422.06,450.68 M434.61,421.13c-5.91-2.22-10.34,0.74-16.25,0.74c2.96-11.82,17.73-12.56,17.73-25.86
	c11.82,5.91,9.6,19.21,8.87,29.55C441.26,427.78,439.05,421.87,434.61,421.13 M452.35,438.12l-7.39-0.74
	c-0.74-2.96,2.96-3.69,3.69-5.17C451.61,432.21,451.61,435.17,452.35,438.12L452.35,438.12z M461.21,413.74
	c-11.82-3.69-13.3-19.95-26.6-22.16c-1.48-0.74-1.48-2.22-1.48-3.69c5.17-1.48,8.87-5.17,10.34-10.34
	c-5.17-3.69-9.6,7.39-15.52,2.22c-2.96-1.48-0.74-1.48-0.74-4.43c9.6-2.22-5.91-16.99,8.13-12.56l8.13,8.13
	c5.91,5.17-8.13,20.69,4.43,15.52c0.74,4.43,2.96,8.87,7.39,11.82c2.22,0,4.43,0,5.91-2.22s-0.74-3.69,0.74-5.91
	c5.17,6.65,11.82,11.82,19.21,14.78C477.47,411.53,468.6,412.26,461.21,413.74 M484.12,352.42c-5.17-0.74-11.08,4.43-14.78-2.22
	l-3.69-9.6c8.13-0.74,0-8.87,4.43-12.56c6.65,8.13,16.25,12.56,27.34,11.82C495.94,346.51,490.03,349.46,484.12,352.42"/>
</svg>
