<?xml version="1.0" encoding="UTF-8"?>
<svg id="layer" xmlns="http://www.w3.org/2000/svg" version="1.1" viewBox="0 0 290 62.5">
  <!-- Generator: Adobe Illustrator 30.0.0, SVG Export Plug-In . SVG Version: 2.1.1 Build 123)  -->
  <defs>
    <style>
      .st0 {
        fill: #fff;
      }
    </style>
  </defs>
  <path class="st0" d="M23.1,38.5c.1-.1.3-.2.2-.4s-.7-.1-.5.3c.1.1.2.1.3.1M24.8,40.8c.6.2,1.1-.3,1.6-.6.8-.7,1.1-1.7.9-2.7h-.3c0,1.1-.6,2.1-1.4,2.8-.3.2-1,0-.8.5M22.4,38.2l.1-.1c-.1-.1-.2-.1-.4-.1s.1.3.3.2M24.4,38.5c.2-.1.6-.4.6-.7-.2-.5-.1-1-.5-1.3-.5.3-.9.7-1.1,1.2.2.3.7.5,1,.8M35.4,56.7h0c.3-.1.5-.1.3-.5-.3-.1-.3.4-.5.4-.6-.8-1.5-.2-2.2-.4-1.4-1.3-.4,1.3-1.8,1.3-2.2.8-1.6-2.1-3.5-2.1-.7.7-1.6,1.2-2.6,1.5-.4,1.1-1.1-.1-1.8,0-1.2-.5-2.6-.1-3.4,1,.4.5.8-.4,1.2.1,1.2-.5,2.3.2,3.3-.5,1.2.5,2.2-.8,3.5-.6.4.3,1.1.4,1.4.9,1.7,1.1,2.8-.4,4.1-1.1,1.3-.1,2.5,1.5,3.8.7-.2-1.1-1.3.2-1.8-.7M29,23.7c.1.1.3.3.5.2.1-.1.2-.1.1-.2,0-.3-.6-.3-.6,0M38.4,57.3l-.8-.1c-.1.5.7.4.8.1M38.4,37.7c-.3-.1-.6,0-.7.2q0,.1-.1.2c.1,0,.1.1.2.1l.6-.5ZM54.4,9.3c.3.1.5.7.1.8,1.3,1,.7,3.4,2,4.3.7.7,1.7,1,2.7.9,1-.6-.8-.8-.5-1.6,0-.8.5-.6,1.1-.8.1-.5-.3-.8-.5-1.3-.3,0-.5.1-.7.3.1.7-.7,1.1-.7,1.9-.4-.3-.5-.8-.5-1.2,1.1-.8.2-2.2.8-2.9-1.1,1-1.7,2.4-1.6,3.9q-.1,0-.2-.1c-1.2-1.2.8-2.2-.3-3.3-.5-1.2-2.1-1.6-2.6-2.8-1.6-.1-1.1-2.6-2.9-2.6-1-.1-.1.8-.4,1.2.4.1.5-.4.8-.4.5.3.8.9.8,1.6-1.3.8-2.5-1-4-1.1-.6.6-.9,1.5-.8,2.3.5,0,1.1-.1,1.5-.5,2-.4,4.2,0,5.9,1.4M48.2,40.6c-.2-.2,0-.6-.4-.7v.8c.1.1.2,0,.4-.1M38.8,38.1c.3.1.5-.1.7-.3-.1-.2-.4-.3-.6-.2,0,.1-.4.3-.1.5M45.4,30.4l-.4-.1.4.3v-.2ZM5.2,40c.3-.2.3-.4.3-.7-.1-.8-1-.6-1.1,0,.2.3.5.5.8.7M26.9,49.5c.5,1.5,2.6.7,2.5,2.4.8.5.7-1.1,1.5-.7-1,.6-.8,1.9-1.7,2.3-.4.5-.7,1.1.1,1.4.6.2,1.4.5,2,0,.1-.5-.6,0-.7-.5-.6-1.6,1-3.1,2.2-4.1.7-.7,1.7-1.1,2.7-1,2.3-1.4.1-3.5,0-5.3-.2,0-.5,0-.6.2-.2.3-.2.7.1.9.2.8.8,1.4.8,2.2.2,1.3-1.3,1.2-2,1.6-.4-.4-.1-.8-.2-1.1-.4-.5.1-1.8-.8-1.6-.8.3.2,1,0,1.6.5,1.3-.8,2.3-1.6,3.1l-.1-.6c-.6.1-1.2-.2-1.5-.7-1.3.6-.6-1.1-1.6-1.1-.3.2-.1.5-.2.6l-.2-.1c-.4-.6-1.2-.6-1.8-.5-.3.1-.5.3-.5.6.2,1,1.1.3,1.6.4M26,39.1l-.4.5h.3c0-.3.3-.5.1-.5M28,46.2c.7-.1.5-.8.8-1.2-.1-.2-.3-.3-.5-.3h-.1c-.5.1-.5.6-.6,1s.1.8.4.5M26.1,46c.5-.3.9-.5.9-1.1,0-.2-.3-.3-.5-.2-.5.2-.9,1-.4,1.3M47.1,30.5l-.2.3h.3c0-.1,0-.2-.1-.3M21,28.6c-.3-.1-.5.4-.2.5l.3-.3c-.1-.1-.2-.1-.1-.2M5.1,8.6c.1-.4-.1-.5-.5-.5-.2,0-.3.1-.3.3v.1c.3.1.6.3.8.1M5.7,8.7c.2-.2.3-.4.4-.6-.2-.2.1-.8-.5-.6.1.4-.6.9.1,1.2M67.2,36.7c-.6-.2-1.1-.7-1.8-.6.9-.7,1.6-1.8,1.8-2.9.6,1,.6,2.4,0,3.5M61,37.2l.1-.5c1.8,0,1.1,2,1.7,2.9l-.1,1.1v.4-.4c.1-1.4-1-2.4-1.7-3.5M61.4,48.2c-.3-1.2-1.2-2.2-2.4-2.6-.5.1-1.5-.4-1.6.5v1.3c-.4-.7-.5-1.5-.3-2.2.1-1.3,1.9-.1,1.8-1.5.8.2,1.7-.1,2.3-.7-.3-.7-1.3-.8-1.1-1.6l1.8.1c-.2,1.1-.3,2.3-1.3,3-.4.1-1-.1-1.2.5.2.5.9.5,1.5.5-.6.5.3.6.5.9l1.1.1c.1.6-.1,1.3-.5,1.7-.1-.2-.4,0-.6,0M61.6,49.4h0c-.1-.3,0-.5.3-.6.2.1,0,.5-.3.6M57.6,50.3c-.9.8-2.1,1.1-3.3.9-.9-.2-1.5-.9-1.8-1.8l-.1-.5c.4,0,1.1,1.2,1.4.2-.2-.3.1-.7.2-1,1,.2.3,2.1,1.6,1.4.5-.1.9.5,1.2-.1-1.2-.8-1.7-2.2-1.5-3.6.1-.3.4-.5.7-.5-.1,1,0,2,.4,3,.5.6,1.2.9,2,1.1-.1.5-1,.1-.8.9M49.2,48.3c-1.1.9-2.8.5-4,1.3.2.5.8.1.9.6-.3-.4-2,.6-1.3-.7v-.2c-1-.4-2.1-.8-3.2-1.1,2.2.2,4.5-.2,6.5-1.3-.5-.5-1.2-1-1.6-1.4.6-.7,1.3.5,2.2.3l.1.8c2.3-1.3,4.8-3.8,4.6-6.7,0-2.1-.4-4.1-1.3-6,1.5,2.3,2.3,5,2.3,7.8.3,3.2-2.9,5-5.2,6.6M51.9,51l-.3.4c-.1,0-.1-.1-.1-.2.1,0,.2-.3.4-.2M50.4,49.4c0,.4-.2.8-.4,1.1-.3-.2-.8-.2-1.1.1-.1-.7.3-1.4.9-1.8.4,0,.6.3.6.6h0M54.5,34.9c.5.6.7,1.4.4,2.2-1.2-.3,0-1.3-.4-2.2M55.3,33.5c.1.3.8.3.5.7.8.7,2,.9,3,.5.3-.1.1-.5.1-.7-.3-.1-.3-.6-.2-.8.5-.5.9.3,1.4-.3.6-.4,1.6-.1,1.9-1,.2,2.4-1.1,4.7-3.2,5.9v-.1c.6-1,1.1-2.1,1.4-3.2-.4-.4-.2-1.1-.8-1.2-.2.8.1,1.6-.5,2.2-.1.8-.8,1.3-1.4,1.7-.6.2-1.5.5-2,.1,0-.6.3-1.1.2-1.7.5.1.9.7,1.3.2-.9-.7-2.3-1.6-2.1-2.9l1.1-.5c.1.1.1.4.1.5-.2.3-1-.1-.8.6M57.5,33.9c.2-.1.2.1.3.1,0,.1-.1.1-.1.1l-.2-.2ZM60.5,40.2h-.2l.3-.4c.2.1-.1.3-.1.4M59.8,42.6c-.5.3-1.1-.4-1.3-.9-.1-1.1.5-2.1.2-3.3.5-.1.9-.5,1.5-.5-.1.5-1,1-1.1,1.7-.2,1.1,0,2.2.7,3M55.8,40.8c-1.3-.2-.5-2-1.1-2.8,1.1.5,2.8-.2,3.2,1.3.1,1.6-.3,3.2-1.2,4.5,0-1.1.5-2.3-.9-3M54.4,46.4l-.3.5c-.1.1-.6-.1-.5-.5.3-1.1,1.5-1.8,1.4-3-.1-.3,0-.7.2-.9.3-.1.5.3.6.5.1.7-.1,1.3-.5,1.9-.1.7-2.1.5-.9,1.5M61.2,38.8c.3.2.7.7.4,1.1h-.1l-.3-1.1ZM62.8,36.9c-1.1-1,0-2.4.2-3.6.1.3.2.6,0,.9-.1.2-.6.3-.3.7.3.5.8-.3,1,.5-.3,1.7.5,3.4,2.1,4.1l.7.1c0,.7-.7,1.1-1,1.6-2.7-.2-1.1-3.2-2.7-4.3M63.8,32.3l.5.6-.2.6-.3-1.2ZM64.7,34.3c.5.1.3.8.2,1.1l-.3.4c-.3-.4,0-1.1.1-1.5M66.1,33.7c.1-1.3-2.3-1.8-2-3.3.1-1.1,1.2-2.4.1-3.2-1.1.6-.2,2.2-1.3,2.9-.8-.3-.7-2.2-1.7-1.4.2,1.1.8,2.5-.1,3.5-.5-.1-.9.2-.9-.3.4-1.2.3-2.4-.2-3.5-1,.3-2.2.5-2.9-.2-.1-.3.4-.1.4-.5-.7.4-1.3-.8-1.9-.3.1,2.6,5.5,2,3.2,5.2-.5.2-1,.7-1.6.7,0-.8.2-1.8-.9-2.2-.3,0-.5-.3-.5-.6v-.1l.4-.3c-.5-.3-1.2-.4-1.8-.4l.2.5c-.7.1-1.9-.3-2.1.6,0,.7-.2,1.3.3,1.6.3.1.6-.1.7-.3-.3-.5.1-.9.5-1.1.1-.2.5-.1.7-.2.1.5-.6.7-.5,1.3-.3.5.1,1.1.1,1.6-.5.1-.9-.5-1.2.1.1.3.5.5.4.9l-1.8-2.7c.1,0,.4.1.5-.1-.4-.8-1.6-1.3-1.3-2.4-2.4-1.2-2.8-3.6-2.9-6,.1-1.7.7-3.4,1.8-4.8-.5,4.1.5,8.8,4.3,10.9.1,0,.3.1.4-.1s-.5-.4-.4-.8c.5,0,1-.2,1.3-.6-.6-.6-.9-1.5-.8-2.4.1-.5.5-.8.9-1.1,1.3-.5,1.6,1,2.2,1.7,1.1-.5.1-2,.5-2.9.7-.2.9.7,1.1,1.2,0,1-.4,2-1.2,2.6.3.3,1-.1,1.3-.4,1-.7.6-1.7.8-2.7-.2-1.1-.9-2.1-1.9-2.6-.5,0-1-.3-1.2-.8-.1-.3.2-.1.3-.3l.1.1c.7-.4,1.5-.7,2.3-.8,1.8,1.9,2.4,4.7,1.4,7.2.7.1,1.1,1.1,1.8.7-1.1-1.1-.2-2.4-.5-3.9,2.4,2.9,4.9,6.1,3.6,10M43.3,24.8c.5-1.1,0-2.5-.4-3.5.5-.4.8-1.1,1.3-1.3,1.2.5,1.4,1.9,2.1,2.8-1.3,1,.7,1.1.7,2,.5,1.1.2,2.3-.7,3.1-.7-1.1-1.4-2.1-1.1-3.5-.6-.3-1.2.4-1.9.4M41.2,18.1c-.2-.1-.4.1-.6.1.6.4,0,.8,0,1.2-.1.1-.5-.1-.5-.3-.1-.6.5-1.1.5-1.6.5-.1,1,.1,1.3.5-.1-.1-.1,0-.1.1.7,0,1.3.4,1.6,1-.2.2,0,.7-.5.7-.2-.8-.9-1.4-1.7-1.7M42.3,20.7c-.5,0-1.3-.3-.8-.9l.1-.4c.5.2.5.8.7,1.3M37.8,24.4v.3c-.5-.2-.7-.8-.5-1.3h0c.4-.5.7-1.2,1.3-1,.4.7-.9,1.1-.8,2M36.5,18.1c-.7,0-1.4.4-1.7,1-.1-1.3.6-2.5,1.8-3,.3.3,1.1.2,1.3.8-.1.5-.4,1-.8,1.4.9.5.5,1.7.6,2.6l-.9.8c-.4-.5.2-.9.2-1.4.1-.8-.1-1.5-.5-2.2M38.5,16.8c.5.3,1.6,0,1.6.8-1,.7-1.1,2.1-1.3,3.2-.4-1.4-.5-2.7-.3-4M40.1,20.7c-.2.7.1,1.4.6,1.9-.3.1-.8-.3-.9-.6-.1-.5.2-.8.3-1.3M43.9,12.6c-.5-1-1.1-1.8-2-2.4,1.8.9,3.3,2.4,4.1,4.3-.4,1-.8,2.1-1,3.2-.6-.1-.9-.8-1.3-1,.1-1.5.7-2.9.2-4.1M41.9,13.5c-.5.3-.1,1-.4,1.4-.2-.1-.3-.4-.3-.6-.2.1-1.1.1-.9-.5.6-.3,1.1-.8,1.3-1.5v-1c.9,1,1.7,2,1.6,3.4-.2.2-.3.3-.5.3-.6-.5.9-2-.8-1.5M39.7,4c-.2.7,0,1.7-.5,2.3.3-.7-.8-2.2.5-2.3M39.6,6.8c.3-1.1,2-1.6,1.3-3,.5,0,.9.2,1.3.5-.4.8-1,1.8-.2,2.6.8,1.5,3.2.1,3.2,2.2-.2.5-.2,1.2-.7,1.6-1.2-.8-2.5-1.5-3.9-2-.4-.5-1.4-1-1-1.9M42.5,5.2h.2v.9c-.2-.2-.3-.6-.2-.9M48.3,16.9c.2.7-.2,1.2-.3,1.8-.5.3-.8,1.1-1.5.9-.7-.8-.5-2.3-.3-3.4.5.4,1.2,1.2,2.1.7M46.4,12.6c.9-.2,1.3-1.1,1.7-1.7.6,1.1-.8,2-1.3,2.8-.7-.2-.4-.8-.4-1.1M47.2,20.5c1.4-.9,2.2-2.6,1.9-4.3-.5-.5-1,.7-1.6.1-.2-.5-.8-.5-.6-1.2.8.3,1.6.2,2.3-.2l.7-.8.1.2-.4.2c1.2.2.3,1.6.5,2.4-1.5,1.5-2.4,3.5-2.6,5.5-.3-.3-1-1.2-.3-1.9M48.6,12.9c.4.2.2.8.2,1.3,0,.1-.1.1-.2.1-.5-.3-.3-.9,0-1.4M51.3,17.6c.1-.3.5-.5.4-.8-.1-.1-.4-.1-.5-.1.6-1-1-2.2.6-2.7.5-.7.7-1.6.5-2.4.8.8,1.6,1.5,1.5,2.6l-.3.4c.3.4.9.1,1.3.5.5.4,1,.8,1.4,1.4-.8-.1-1.6.2-2.2.8-1.1.4-.5,1.9-1.5,2-.1.1-.2.1-.2.3.8.2,1.7.5,2.6.8,1.1,1.1,2.4,2.1,2.3,3.7-1.1-.6-2.2-1.5-3.5-1-.1-1.2-.5-2.6-1.9-2.9-.5.2-.1.7-.3,1.1.7-.1,1,.6,1.2,1.1s-.4.5-.6.8c-.5.1-1-.1-1.3-.5.3-1-1.1-1.4-.4-2.2.4-.1.8-.4,1.1-.7-.5-.9-.5-1.6-.2-2.2M53.8,27.6c-.9-.1-1.7-.6-2.1-1.4-.1-.8.1-1.5.5-2.1.6-.5,1.3-1,2.1-.6-.1,1.1-1.2,2.6-.5,4.1M63.9,23.3c0,.1-.2.1-.3,0-.4-.5-.8-1.2-.4-1.8s.8.1,1.1-.5c0-.2,0-.5-.2-.6-.5,0-1,.2-1.3.5l-.8,1.1c-.3-.9-.7-1.8-1.3-2.5.8.3,1.7.1,2.3-.6-.1-.8-1.6.2-1.3-.9.9-.7,1.2-1.6,1.8-2.2.2.4.3.8.4,1.3h-.1c0,.1,0,.5.3.6l.5-.1c.7,1.8.9,4.1-.7,5.7M61.6,15.5c.2-.1.4-.5.6-.5.2.6,0,1.3-.5,1.8-.8-.2,0-.9-.1-1.3M62,10.5l1.1-.5c0,.5-.2,1.1-.7,1.4-.6.4-1.2,0-1.7-.4-.4-.4-.5-.9-.3-1.4.4.5,1,.9,1.6.9M51.7.7c.1.1.2.2.1.3-.7.1-1,.9-1.2,1.5l-.7-1.5c.6,0,1.3.2,1.8-.3M48.5.9l1.2,1.4c.2.5.3,1,.1,1.5-.3.4-.8.4-1.2.1l-.1-.1c-1.3-.8-.4-2.5-1.8-3.1.6-.1,1.2.2,1.8.2M45.2,2.1c.4,0,.7.3,1,.1l.1.1c-.2.5-.7,0-1.1,0v-.2ZM44,3.5c.4.1.9-.1,1.1-.4,1.2.4,3,.7,3.1,2.2,0,.2.1.3.3.3.9-.3,2-.7,2-1.9,1.1,1.1,2.1-.5,3.4-.1.9-.1,1.8,0,2.7.2-1.3.6-3.4,1.5-3.2,3.2.8-1,2.6-.7,3.1-1.9.5-.6,1.3-.9,2-.7.5.1,1.3.6.8,1.3-.8.2-1.9-1.1-2.4,0,1.5.3,2.8,1.3,3.7,2.6-.7.3-1.6.1-2,.9.8.4.5,1.6,1.3,2.3.7.6,1.6.8,2.5.6.7-.3,1.3-.7,1.7-1.4.5,1.1.1,2.2.1,3.3-.1.1-.2.7-.7.8-.5-.2-.6-2-1.5-1.3-.1.4.1.7-.1.8-.8-.5-.5-2-1.4-1.7-.5.4.1,1-.2,1.4q-.1,0-.1.1c1-.2.7,1.1.6,1.6-.2.8-.2,2-1,2.7-.8,1.2-2.2,1.4-3.5,1.6-.5-.5-1.2-.5-1.6-1.1,0-.6.1-1.1.4-1.6,1.4-1.1,2.1,2,3.2.7-.7-1.8-2-3.2-3.7-4-.1-1.5-1-2.8-2.3-3.4-.7,0-1.4-1.1-2-.1-.1.7.9.4,1.1,1.1-.1.6.1,1.2-.7,1.5-.6.1-.9-.8-1.4-1,0-.9.2-2.1-.7-2.8-.3-.4-.8-.6-1.3-.4,0,.5.4,1.4,0,1.9-.5.4-.6,1.2-1.3,1.1-.8-.8-.4-1.6-.1-2.5.4-.2.3-.7.7-.8-.4-.4,0-1.3-.2-1.9-.4-1.5-1.9-2.7-3.4-3.6l-1.4-.2c.4,0,2.1-.5,2.4.6M41.9.3c-.5.5-1.1,1.1-1.1,1.9-.3-.1-.5-.3-.6-.6-.3-.6.7-1.1-.1-1.3.5-.4,1.3-.4,1.8,0M38.4,1.9c.4-.3.7-.7,1.2-1-.1.4-.2.7-.2,1.1.2.2.5.4.5.7-.3.4-.9.6-1.3.3-.5-.3-.3-.6-.2-1.1M35.6,2.5c1.2.2,2.1,1,2.5,2.2.4,1.1.2,2.3-.6,3.2-1.4.1-2.9-.1-3.7-1.3.1-.4-.1-1.1.5-1,1.5-.6,1.1,2.2,2.4,1.1,0-1.6,0-3.2-1.1-4.2M34.8,1.4c-.2.3-.2.1-.5,0-.1-.6.5-.6.5,0M31.8,1.6c.5,0,1.1-.9,1.4-.1l-.2,1.1c.3.3,1.2,0,1.1.6-.9-.4-1.9-.3-2.7-.6-.1-.4.2-.7.4-1M30,1.4c.2-.1.4-.3.8-.2-.9.7.3,2.6-1.4,2.3-.7-.8.4-1.3.6-2.1M31.3,3.9c1.3,0,2.3-.1,3.5.5-.7.7-2.2.8-2,2.1-.2.8.4,1.4.5,2.1-.5.5-1.3.5-1.6,1.1.8.5,1.7-.3,2.6-.2.2.4-.5.5-.1.7.5-.1.8-.6,1.3-.7,1.3-.8,3.2-.3,4.4.3.7,1,1.7,2,1.2,3.3-.5,1-2.4-.5-1.7,1.1-.3-.3-1.3,0-1.1-.6,0-.1-.1-.1-.2-.1-.2-.6.1-1.3.6-1.6,1-.5,1.1,1.4,1.9.2,0-.6-.3-1.2-.9-1.4-.5.3-1,.5-1.6.7s-1,1.4-1.7.8c-.3.4.6,1.1-.1,1.4-.7-.6-.8-2.3-2.1-1.5-.6.3-1.1.9-1.3,1.6,0-.5.1-1.1-.3-1.4-.5,0-.1.6-.3.9-.7-.5-1.4-1.2-1.8-2,0-.8-.2-2.1.9-2.5.1.1.2.1.3.1.2-.2.3-.5.3-.8-.8-1.3-2.2-2.2-3.8-2.3.2-1.4,1.8-1.5,3.1-1.8M29.4,8.4c-.2-.4-.2-.8.1-1.2.4-.1.7.4,1.1.7-.3.3-.8.2-1.2.5M27,2.6c.5.4,1.1.5,1.2,1.1s-.5.7-.8,1c-.3,0-.5-.3-.6-.5-.2-.4-.2-1.1.2-1.6M26.3,1.4c-.3-.1-.7-.1-1.1-.1.3-.2,1.3-.7,1.1.1M26.6,5.4c-.3.1-.5.3-.9.2-.3-.4-.5-1-.1-1.3l.1-.3c.1.6.4,1,.9,1.4M26.3,2.3c-1,.5-1.2,1.5-1.8,2.2-1-1-2.4-1.6-3.8-1.6v-.2c1.7-.9,3.8-1,5.6-.4M22.8,5.8c-.6.2-.3-.5-.5-.6l.1-.9c.5.1.9.4,1.1.8.2.5-.5.5-.7.7M21.5,5.3c.1.5-.8,1.1.1,1.3h.6c-.2.5-.8.3-1.1-.1s-.3-1-.2-1.3c-.1-.7.8-.2.6.1M21.2,1.2c-.2.1-.4.2-.6.1l-.1-.1c.2.2.4-.1.7,0M21.5,3.8c-.7,0-1.1.9-1.6,1.1.1.1.1.2.1.3s-.1.1-.2.1c-.3-.5-.3-1.1.1-1.6.4-.1,1-.1,1.6.1M20.6,7.2c-.7-.1-1.6.3-2-.1l-.1-1.6c.8.6,1.3,1.3,2.1,1.7M16.6,2.3c.8-.6,1.8-.7,2.7-.4.2-.1.4-.2.6,0,.1,0,.1.3.1.4-.7.3-1.4.7-2,1.3-.6-.5-1.2-.8-1.9-1-.1-.5.2-.2.5-.3M18.5,4.5h0l-.1-.3h.1v.3ZM13.5,2.9l-1.5-.1c.5-.2,1.4-1,1.5.1M13.1,4h-.3l.5-.5c0,.3,0,.4-.2.5M14.4,3.8c.5-.8-.7-2.1.8-2,.4.6-1.4,1.1-.2,1.5.7,0,1.2-.2,1.7.2.8.4-.1,1.2.3,1.6h0l.1.1c.1.1.3.1.5.1.1.8.3,2-.5,2.2-.4.1-.6-.2-.8-.5-.2-.9,1.4-1.2.8-1.9l-.1-.1c-.9-.2-1.9-.2-2.8.2.2.2.5.3.8.3-.8.4-1.4,1.1-1.6,2-.1.8,0,1.5.2,2.2-.6.2-1.3.1-1.9-.2-.8-.5-.6-1.4-.5-2,.3-1.1,1.5-1.5,2.2-2.2-.7,0-1.4.3-1.9.7v.1h-.1c-.2.2-.5.4-.7.5l.3-.6c.2.1.4.2.6.1,0,0,.1,0,.1-.1.1-.2,0-.4-.2-.5h-.3c1.3,0,2.5-.6,3.2-1.7M16.7,8.8c-.5.4-1,.6-1.6.6-.5-.5-.1-1.2,0-1.7l.2-.2c.1.5,1,1.1,1.4,1.3M9.7,2.8c.2-.4,1.3-.6,1.3.2.1.4-.1.4-.4.6s-.6.2-.7-.1-.2-.4-.2-.7M3.8,10.7l.1-.1c-.1-.7.8-.9.8-1.4-.5-.4-1.2-.5-1.8-.3.4-1.3,2-1.8,2.8-2.7.6-.5,1.3-.2,1.9-.5-.7.8-.5,2-1.1,2.8.1.5.5.8,1,.9.7.7.1,2.6,1.4,2.2.5-.5,1.4-.5,1.4-1.1-.9-.4-1.7-.8-2.3-1.4-.9-1.2,0-2.4.5-3.4.7-.8,1.6-1.4,2.6-1.7-1,1.1-1.1,2.6-1.3,4,.1,1.1.7,2,1.6,2.6,1.3-.5,2.9,1.1,3.8-.4,1.3-.4,2.5-1.1,3.3-2.2,1.8.3,3.9.7,4.9,2.4,0,.5.4,1,0,1.4-.8-1.1-1.7-2-2.9-2.7-1.4-.1,0,1.8-1.2,1.7-.2-.6.5-1.4-.2-2-1.4-.1-1.1,1.6-1.6,2.1-.1.7.4,1.1.5,1.7-.7-.5-1.4-1.1-1.2-1.9.5-.4.5-.8.8-1.2-.9-.2-1.2,1.2-2.1,1.2l-.1.3c.3.9,1.7,1.5,1.4,2.6-.3.5-.9.6-1.4.3l-.1-.1c-1-.3-.4-1.7-1.2-1.9-1.5,1.7-2.1,3.9-1.6,6.1-.6-.2-.6-1-1-1.5-.5-.7.7-2-.4-2.2-.5.8-.8,2.2-.2,2.9l.5.8c-.3-.2-.7-.3-1.1-.3.3.8,1.3,1,1.7,1.7.8,1.1,1.8,2.5,1.3,3.8l-2,1.1c.3-1.3.3-2.7.1-4.1.3,0,.6-.1.7-.4s-.8-.2-.9-.2c-.5-1-1-2.6-2.4-2.5-.2.1-.6,0-.8.4.3.3.5,0,.8.2.7.8,1.6,1.6,1.6,2.7-.1.1-.6.3-.3.5.7.5.5,1.4.5,2.1-.3-1.3-1.9-2-2.8-2.7-.5.1-1.1.1-1.1.6.8.2,1.5.7,2,1.4,0,.4.3,1.1-.1,1.7-.9-.3-.1-2.1-1.4-1.6-1,1-1.2,2.4-.7,3.7l.5.7c-1.9-2.2-1.8-6.2-.7-8.8.7-2.5,3.4-2.9,5.2-4.3-.1-.5-.8-.5-1.2-.7-1.5-.5-2.6.5-4,.5-.5.6-1.3,1-1.3,1.8.7.5,1-.5,1.6-.6.6-.2,1.3-.3,2-.1-.8,1-2.3,1.8-2.7,3-1.1-.1-1.3-1.3-1.6-2,0-1.1-.1-2.2.8-2.9.7-1.1,1.6-.8,2.2-1.6-1.1-1.5-2,.9-2.9,1.1-1,1.3-1.2,3.1-.6,4.7.5.6,1.2.9,1.3,1.5.7.4-.1.8,0,1.3-.9,0-2.2-1.6-3,0,.1-2.7.1-5.9,2.6-7.6-.2-.7-.6-1.1-.9-1.4M20.8,23c.1-.2.1-.6.5-.5.3.4-.1.7-.2,1-.5,0-.2-.4-.3-.5M20.4,22.4c-.5.1-.3-.5-.5-.7,0-.9.5-1.7,1.3-2.1.8-.5,1.1.5,1.4.8.5,1.9-1.7.7-2.2,2M20,24c-.1.2-.2.1-.3.1-.2-.2-.1-.5.1-.6h.1c.2.2.1.4.1.5M20.7,24.8c-.1.1-.4.5-.7.5-1.1.6-1.6-1.1-2.4-.4.2-.8.6-2.6-.2-3.8-.4-.8-.7-1.8-1.8-1.9-.2.8.2,1.8-.3,2.5-.2.2-.5.3-.8.3-.3-1.1-1.7-2-.9-3.2.4-1.2,1-2.3,1.7-3.2l.1.1c.8-1.6,2.5-2.2,4.1-2.6-1.8,1.2-2.8,3.2-2.8,5.4.1,1.2.6,2.3,1.5,3,0,.4-.4.8,0,1.2.5-.1.7-.7.9-1.1,0,.8.1,1.6-.5,2-.3-.1-.6,0-.8.2,0,.5.5.7.8.8.7.4,1.4.4,2.1.2M23,29.6c-.1-.8-.1-1.5-.9-2.1l-.2.1c-.1.5.4,1.1.3,1.6-.5-.1-.1-1.6-1-.8-.5,1.4,1.5,1.4,2.2,2.5v.6c-2.4-1.6-5.4-1.8-8-.5.2-.8,1.2-.9,1.7-1.4,1.1-.5,2.3-.3,3.3-.8-.5-.4-1.3-.1-2-.1-1.9-.1-3.5,1.2-4.5,2.5.1-1.3,1.6-2.9,3.2-3.4,1.7-.2,3.3-.6,4.9-1.1.7-.1,1.4.2,1.7.8.4.9.5,1.9.2,2.8-.2-.9.1-2.2-1-3-.4.6.7,1.3.1,2.3M17.6,32.9c-.1.3-.5.1-.7.2-.5-.7.4-1.2.2-1.7.2-.1.5.1.6.3v.1c-.2.5,1.5,1.3-.1,1.1M18.2,35.7h0l.1-.4c-.1,0,0,.3-.1.4M15.1,28.2l-1.9,2.5c0-.8.3-1.5.8-2.1.5-.5,1.3-.7,1.7-1.4-.1-.3-.5-.2-.4-.7,1.5,1.4,3.4-.3,4.9,0-1.4.6-3.6.7-5.1,1.7M14.8,50.8c-.5.6-1.1,1.4-2,1.3,1.3-.6,1.6-2,1.7-3.3-.2-2.1-1.8-3.5-3.2-5-.5,0-.9-.2-1.3-.5-.6-.5-.4-1.2-.2-1.8,0,1.4,1.6,1.7,2.6,2.1.4,0,.8-.5.8-.8-.5-.3-1.3.5-1.9.1-.5-.5-.7-1.2-.5-1.8.1-.1.3-.3.5-.2.1.5.6.8,1.1.6.2,0,.3-.1.4-.3,2.2,2.8,2.8,6.3,2,9.6M13,39.7h0l.1.5h-.1v-.5ZM12.8,49.1c.4.5.5,1.1.3,1.6-.2.1-.3,0-.5-.1-.4-.6.5-.9.2-1.5M12.7,52.7c.5-.1,1.5-.9,1.8-.3.1,1.3,1.1,2.9,2.6,3h.8c-.3.3-.9.3-1.3.3-1.4.3-2-.6-3-1.1-.3-.5-1.3-1.1-.9-1.9M12.2,51.5c-.4.5-.9.2-1.4.3-.4-.6-.6-1.3-.3-2,.2.8.9,1.4,1.7,1.7M12.1,48.7c0,.4-.1.8-.5.9s-.5-.2-.6-.6c-.1-.8,1.1-1.6,1.1-.3M11,47c-.1-.5.5-.3.7-.7.4-.1.5.4.7.6v.3l-1.4-.2ZM10.1,40.3c.1-.2.1-.6-.2-.5h-.3c-.1-.5,1-.6.8,0,.1.2-.1.3-.3.5M12,39.4v.4c-.5-.8-1.9-.6-2.2-1.3.8.3,2.5-.7,2.2.9M9.7,37.9c-1.6-1.4-.4-3.5-.4-5.3.3,1.4.7,2.7,1.2,4,.4.2.7.5,1,.9-.5.4-1.2.6-1.8.4M8.4,39.6c.3.6,1.3.5.9,1.3-.1.1-.3.2-.3.3-.5-.4-.8-1.3-1.1-2-.5-2.5-.3-5,.6-7.4,0,2.7-1.3,5.2-.1,7.8M8.7,31.7v-.3l.1-.4-.1.7ZM10,31.5c-.3-.7-.1-1.5.5-2-.1.5.5,1.2,1.2,1.4.1.1.3.1.5.1-.1.8-1,.7-1.4,1.1-.3,0-.7-.3-.8-.6M11.4,30c.1-.5-.3-1.1.4-1.2.4,0,.6.4.8.6.1.5-.5.8-.5,1.1-.4.1-.5-.3-.7-.5M11,28.2c-.4-.3,0-.8.1-1.1l.4-.1-.1-.1c.3-.5.7-.9,1.2-1.1l.6,1.1c.1.4.1.7.1,1.1-.8,0-1.5.1-2.3.2M16.8,23.3c-.4.5-1,.7-1.6.5-.5,0-.5-.3-.8-.5.1-1.2,1.7-1.2,1.9-2.6.3.8.9,1.6.5,2.6M17.3,25.9l.3-.7c.2.2.6.6.5,1.1-.2.3-.7.1-1,.1-.3-.1-.4-.4-.3-.7,0,0,0-.1.1-.1l.4.3ZM14.6,24.5c.6-.3,1.4,0,1.6.7v.5c-.8-.3-1.6-.3-2.4-.1-.2-.6.4-.8.8-1.1M14.9,27.1c-.4,0-1,.1-1-.5l.2-.6c.1.3.4.9.8,1.1M13.2,15.5l.3-.4c-.2-.3-.1-.9.1-1.4,0,.9,2.1,1.6.5,2.6-.2.3-.5.5-.8.5-.2-.3,0-.9-.1-1.3M18.5,11l.6,1c-.5.3-.8-.6-.6-1M17.8,19c-.5-1.2-.4-2.5.4-3.6.8.4,1.8.4,2.6-.1.1,1.3-1.2,2.2-1.6,3.4-.4.3-1,.8-1.4.3M20.7,13.6c-.9.1-.1,1.4-1.1,1.6-.4-.2-.1-.6,0-.9.6-.9,1.6-1,2.5-1.2-.1-.7-.8-.7-1.4-.8-.1-.7.5-1.2.3-2,1.3,1,2,2.7,1.8,4.3-.4.1-.7.5-1.1.5-.2-.5-.2-1.4-1-1.5M9.1,26.4c-.8.1-1.6-.5-1.8-1.3,0-.5-.2-1.2.1-1.6.3.7.9,1.3,1.7,1.4l.7.1c.4.7-.4,1-.7,1.4M6.1,27.2c.4.2.7.4,1,.7,0,.5-.5.7-.9.8-.2-.3.3-1-.1-1.5M4.8,25.8c-.2-.2.1-.5.3-.7.2.1.2.3.2.5-.2.2-.4.2-.5.2h0M5,26.4l-.2.8c-.3-.1-.3-.7-.1-.9l.3.1ZM2.1,20.4c.5-.2.8-.7,1.3-.7-.6.2-.7.8-1,1.2-.2,0-.4-.2-.3-.4-.1,0,0,0,0-.1M1.1,18.4l-.2.6c-.3-.8-.6-1.7-.9-2.6-.1-.4.1-.8.4-1,.1.3.7.7.8,1.3l-.1.7c-.6.1,0,.8,0,1M2.4,23.9c.6.4,1.1,1.1.6,1.8v.3c.8-.1.4-1.4,1-1.9-.6-.1-.8-.7-1.1-1.1-.1-.8,0-1.6.5-2.2.3.5.8.5,1.3.7.1.8.1,1.8-.8,2.1.3.5.4-.1.8-.1.1.6.1,1.2,0,1.7-.4.1-.8,0-1.1.5.7.8-.1,2.2,1.2,2.7.1.1.3.2.5.1l.1-.1c-.1.2-.5.4-.4.8.5.7,2.2-.5,1.6,1-.6-.2-1.3-1.3-1.9-.5v.8c-.5-.1-.7-2-1.6-.9l-.6.6c-.4-1.4.7-2.6.5-4-.6.2-.6,1.7-1.4.8-.3-1.2.6-2,.8-3.1M5.6,31.3c-.2,1.9-.6,3.9-1.3,5.7-.2.5-1,.5-1.3.1-.5-.4-.9-.9-1.2-1.5,1.1-.1,2.1-.7,2.6-1.7.8-.8-.1-2.1,1.2-2.6M1.6,38.5c1.4.2,2.7-.3,3.7-1.3-.3-2.6,1.1-4.7,1.7-7,1.7-2.1,3.6-5.6,6.4-5.7-2.8,1.4-4.5,4.5-5.6,7.3-1.6,3.7-1.2,8,1.1,11.4l1.6,1.5c-1.9-.9-3.5-2.4-4.4-4.3-1.1-.2-2.1-.5-3,.1.2-.5,0-1-.4-1.3-.4-.1-.8,0-1.1.3v-1ZM8.8,46.6c.3-.3.8-.2,1.1.1.1.1.2.3.2.4,0,.7-.6.3-.9.4-.1-.3-.6-.6-.4-.9M7.9,46.1c-.2-.5.1-.9.3-1.3.5-.5,1.1-.1,1.5.1.1.1.3.2.3.4-.7.3-1.4.6-2.1.8M6.1,42.5l-.1.4c-.7-.3-1.2-1.1-1.2-1.9.8.2,1,1,1.3,1.5M1.9,43c.1-1.1-.4-2-.3-3.2,1.2.6-.1,2.2,1.1,2.7.6-.4.3-1.3,1.1-1.4-.2,1.7-.3,3.3-.5,4.6-.5-.7-.6-1.6-.3-2.4-.4-.4-1,.6-1.1-.3M3.9,53.9c-.3.4-.6.7-1.1.9-.5-1.1,0-2,0-3.1.6.5,1.5,1.3,1.1,2.2M4,50h0v-.3h0v.3ZM2.9,48.7c-.1.3.6.2.1.5h-.4c0-1.2-.7-2.6-.4-3.6.5.9,1.2,1.6,2,2.2-.3.4-1,.3-1.3.9M7.4,44.7c0,.7-.5,1.5-.5,2.4-.1-.3-.3-.5-.5-.7-.4,0-.5.5-.8.7-.7-1.2-1.2-2.6-1.3-4l-.1-.7c1,.8,1.8,2.1,3.2,2.3M7.4,48.2v.2c-.5.1-.9-.4-1.1-.7.3,0,.6.7,1.1.5M5.3,54.4c-.5-.8.1-1.9.3-2.7l-.3-.3c-.4.2-.2,1.1-.9.7-.5-.8,1.1-1.1.9-2-.1-.6-.4-1.2-.7-1.7.7,0,1.4.2,2,.6,0,.5-.7,1-.5,1.5.6-.7,1.3-1.2,2.1-1.6.8-.1,1.3-.8,2.2-.7-.7,1-.9,2.3-.7,3.5-.7.1-1.3-.9-2-.6.9,1.4,2.4,2.2,4.1,2.1.2.3.3.6.3,1-1.1-1.4-3.2-1.2-4.8-.9-.8.2-1.4.6-2,1.1M11.5,57c.7-.4-.1-.8.3-1.3.1-.1.1.1.2.1.1.8.1,2-1,2-.7.2-1.5.1-2.1-.3-.2-.2-.4-.4-.3-.8.5-.1,1-.3,1.4-.8.3.6.9.9,1.5,1.1M10.5,54.1c.4-.4.8.1,1.1.4.1.5-.6.7-.8,1-.3-.4-.4-.9-.3-1.4M12.9,59c-.8.8-1.8,1.2-2.9,1.2-.8,0-1.6-.3-2.2-.8-.3-.5-.7-1-1.1-1.3.1-1.3-1.6-3.3.7-4,.8-.2,1.8-.4,2,.7.4.6-.1,1.1-.5,1.6-.5.1-1-.6-1.3,0-.1.9.1,1.8.6,2.5-.1.1-.4.1-.5.3,1.3.8,2.6-.2,3.7-.7.6-.3.8-.9,1.1-1.4.5.5.2,1.2.4,1.9M13.8,57c.1.2.1.6.2.9l.1.1-.1-.1c-.6-.7-1-1.6-1.2-2.5.7.3,2,.3,2,1.3-.1-.3-1.1-.3-1,.3M16,56.3c.1.1.3.1.5.1.1.6.1.9.1,1.5-.4.3-1,.4-1.4.1l-.2-.2c.6-.3,1-.8,1-1.5M15.2,58.9c1.1-.3,2.4-.4,3.3.7-1.2.6-2.3-.1-3.3-.7M41.5,55.8c-.2.8.5,1.4.1,2.1-.4-.9-1.4-.8-2.2-.8-.1.2-.6.5-.1.8s1.3.1,1.9.4l.4-.1c.1.6-.2,1.2-.7,1.3-1.3.4-2.7.4-3.8,1.1-.7-.3-.9.8-1.3.5-.5.2-.3.7-.7,1-2.5.4-5.1.5-7.6.2-1.6-1.1-3-2.5-4.9-2.7-1.4-.6-2.6-.2-4-.6-.5-.3-.7-.8-.8-1.3.8-.1,1.5-.7,1.8-1.4.1-1,.3-2.1-.5-2.6-.2,0-.5,0-.5.3.1.5,0,1-.5,1.1-1.4.2-1.5-1.4-1.9-2.2.1-4,.3-8-2-11.5.6-.5,1.5.4,2-.5-.1.2.1.2.1.4.3.2.5-.5.8,0,.7,0,1.6.1,2-.8.1-.5-.4-.3-.6-.5-1.5.2-2.9-.1-4.2-.9.5,0,1.4-.4,1.9.5.5,0,.5-.5.7-.8,0,.3.1.6.3.8.5-1.1,1.6,1.2,1.5-.7.1.4.5.3.8.2.1-.3.2-.6.3-.8-2.5-.6-5.3-.6-6.9-2.9-.5-.1-.9.2-1,.6v.1c.4.4.6.5.5,1.1-1-.3-1.1-1.5-1.4-2.4,0-1.1.9-1.8,1.6-2.7.3.6-.2,1.6-.1,2,.7-.3,1.1-1,1.6-1.6.5-.1.7-.7,1.2-.8-.1,1.1-.4,2.5.6,3.4,1.4,1.5,3.6,2.1,5.6,1.5.9-.4,1.6-1.1,2-2,.1-.5.2-1.1.1-1.6,1,1.5.8,3.5,1.9,4.8.1.3-.5.3-.1.5.6.1.6-.5.8-.9-.7-1,.3-2.3-.5-3.3l.2-.2c-.1,0-.1-.2,0-.3s.2-.4.5-.3c0,.5-.1,1-.5,1.4.1.2.5.1.6-.1.3.3-.6,1.2.1,1.2l.4-.5c.1.5-.6.8-.1,1.2.4-.3.6.3.6.6.2,2-.3,4-2.2,5.1-.3-.1-.8.2-.9.5.1.2.1.4.3.5,1.4-.1,2.4-1.6,3.2-2.6,1.8-4.5-.8-9-2.6-12.8-.6-.9-1.7-1.6-2.8-1.8.8-.6,1.8-.9,2.8-.9.2.6.7,1,1.3,1.1l.7-.7h-.3c.9-.1.9.8,1.4,1.3-.7.6-1.7-.1-2.5.1.5.9,1.5.8,2.3,1.1.8-.5,1.6-1,2.4-1.4,2-2,3.3-4.8,2.7-7.6-.2-.7-.3-1.4-.9-1.8-.9-.1-1.8,1.5-2.4.1-.6-.7-.2-2.2-1.4-2.2-1.4.5-1.5,2-1.6,3.2-1.2,0-2.8-.5-3.7.4.9,0,1.4.6,2.1.9.8,1.8-.1,3.5-1.1,4.9-1.2,1.1-2.8,1.9-4.3,1.3,1.8-.9,3-2.6,3.2-4.6,0-.9-.7-1.7-.2-2.6-1.7-.3-2.9,1-4,2.1.8-2.3,2.3-4.9,4.9-5.9.8-1.2,1-2.8.5-4.1l-1.2-1.6c1.3-.1,2.5,1.6,3.2,2.8l.7,2.3c.1.2.5.6.8.4.5-1-.3-2.2-.6-3.2-.1-1.1-2.7-1.8-1.4-3,.1-.2,0-.4-.2-.5-.6.1-.9,1.2-1.6.8-.6-.7-1.9-.5-2.1-1.4,1.9-1,4.2-1.2,6.3-.6-1-.1-1.3.8-2,1,.8.3,1.2-.5,2-.4-.1,1.9-.1,4.1,1.5,5.4.1.1-.8-.2-1,.2s.5.7.1,1c-.1.2-.5.4-.5.7.4.4,1,.5,1.4.2l.3-1.1c.5.1.5.8.8,1.3-.4.2-.8-.4-1.1.1.4.6.5,1.9,1.5,1.8.9-.6.4-1.8.2-2.4l-.4-.5h.5l.3,1.8c.7,0,1.4-.4,1.8-1-.4-.6-.4-1.3-.1-1.9.5.3.7,1,.5,1.5l-.1.1c.7.6,1.3-.2,2.2,0,2.6.5,5,1.7,7,3.5-2.7-1-5.9-2.9-9.1-1.8-.6,0-1.1.3-1.5.8.7.4,1.8-1.1,2,.3-1.2,1-.9,2.7-.8,4.1l.3.3c.8-.5.5-1.8,1.7-1.8.5.5-.1.9-.1,1.5-.5,1.1-2-.5-2,1,.9.7,2,.4,2.9.3-1,1.2-2.1,2.2-3.4,3.1-.5-.2-.6.4-.9.5v.2c.5.2,1.1-.4,1.6,0-.1.2-.5.1-.5.5.2.4.7.7,1.1.5h0l.3-.4c-.3-.4.2-.6.2-.9v-1.3c.6-.2,1.3-.1,1.6.5s-.7.9-.9,1.4c.2,0,.4,0,.6-.1l.1-.1.4-.2.3-.3c.5-.3,1.6.3,1.7-.6-.3-.3-.7-.5-.7-1,.1-.3.1-.8.7-.9.5.2,1,.3,1.6.4.1.2,0,.5.1.6.4.1.6-.4.8-.6-.1-.5.3-.8.5-1.3-.5-.1-1.1-.1-1.2-.6l.1-.8c1.1.1,1.3,1.4,1.6,2.2.1.5-.2,1.1-.6,1.4-.3.1-.7-.1-.9.4l.1.2c-1.1,0-.8-2.2-2-1.3.1.8.6,1.4,1.3,1.8,1.2.4,2.2-.2,3.4-.2l1.4,2.2c-.9-.6-1.9-1-3-1.1.4.6,1.1.7,1.7.9,1,.8,2,1.6,2.8,2.2.1-.1.2-.3.1-.5l-.2-.2c.2.1.4.2.5,0,.4-.1.1-.5.3-.8l-.2-.1c0-.1.1-.1.2-.1.8.9,1,2,.8,3.2-1.1,1.1-1.6-.9-2.6-.7,0,.5.4.5.6.9-2.2-1.2-5.9-2.2-8.4-.2-.4.3-.6.8-1,1.1.3-1.2,1.2-2.2,2.3-2.6,1.3-1.3,3.4-.3,4.9-.5-.4-.8-1.4-.8-2-1.3l-.7.2c-.1-.1.1-.4.2-.6-.1-.4-.5-.1-.7.1s-.1.8-.7.8c-.5-.5,1-1.3.1-1.4-.6.4-.7.9-1,1.4-.1-.7.7-1.3,1.1-2,.5-.5.9.5,1.3-.2-1.3-.7-2.9-.8-4.3-.3-.1.1-.3.2-.4.3-1.4,1.5-1.8,3.5-2.6,5.3-.9,2.8-2.1,5.7-1.6,8.8.1.3.4.4.7.2l.1-.1c.9-1-.5-2.1.1-3.2.1-.3.2-.6.3-1,.7,0,0-.6.3-.9v-.5c1.2,1-.3,2.1.8,3.1.6-.3,1.4.3,1.7-.6-.2-.5.4-.2.5-.5-.5-.5-.5-1.7-1.4-1.4-.5.3.7,1.2-.4,1.1.1-1.6,1.1-3,2-4.4h.3c-.3,1.1,0,2.2.8,3,1.1,1.3,3.1,1.3,4.7,1,1.1-.3,2.6-.8,2.8-2.2.1-.7,0-1.3-.1-2,.9.7,1.5,1.6,2,2.6.5-.5.7.5,1.3.3l.3,1c-.1,0-.7-.4-1.1,0,.2.2.4.5.5.8-.6,0-.3-.8-.6-1-.6.1-.8.5-1.2,1-.9.5-1.8.9-2.8,1.2l.1.6c-.5-1.5-2.1-.1-3.2-.8-.3-.1-.6,0-.9-.1-.2.6.5,1.3.9,1.8.2.1.3-.2.5-.2,0,.7.8.4,1.1.5l.1-.1c.6.5,1.7.4,2.7.8.1-.1.2-.1.3-.1s.1.3.3.4c.2-.1.4-.3.5-.5.2-.1.4.8.8.3,0-.8.3-1.6.8-2.2-.1-.8,1.3-.3.8-1.2.7.2,1.2,1.7,2.2,1l.5-.4c-.8-.6-1.7-1.2-1.7-2.3.5-.2,1.2.7,1.5-.1s-.7-1.3-1.3-1.6c-.3-.1-.7,0-1.1-.1-.1-.4.6-.9,0-1.1l-1-.2c.1-1.1,1.1-2.2.5-3.5-.2-.7-.7-1.3-1.2-1.8h.3c.6,1.3,1.6,2.2,2.3,3.5-.5,1.1.9,2.1,1.2,3.2.3,1.7,1.2,2.8,1.3,4.7,0,1-.1,2.1-.3,3.1-.8-.2-1.6,0-2.2.5-.8-.5-.3-2-.5-2.7-.5.3-.7,1.1-.9,1.7,0,.5.4.8.3,1.3-1.1.2-1.3-1.6-2.2-.8.1,1.2,1.5,1.2,2.3,1.5.4.3.6.9,1.2.7.7-.5.1-1.5,1.2-1.3.7,1.3-1.1,2-1.7,2.9-1,.2-2-.2-2.6-1.1-1.1-.7-.7-2.2-1.8-2.6l-.4.5c.3,1-.2,2.2.5,3,0,.5-.8.8-.7,1.4.4.3.6-.2.9-.2.2.7-.8,1-1.2,1.1-1.8.1-4.1.1-5.3-1.6-.2-.3,0-1.1-.7-.8-.4-.1-.5.4-.5.5.5,2.2,3.2,3.2,4.9,4.3,1.4-.1.7,1.6,1.9,1.7l-.4.7c.6.8,1.1-.1,1.6-.2,1.1-.7,1.2-1.8,1.9-2.5.4,1.1.1,2.2.7,3.2-.1.8-1.1.9-1.6,1.3-2.4,1.3-5.3.2-7.2-1.5.1-.1.6.4.9.1-.3-1-1.8-1.2-1.9-2.3-.5-.2-.5.4-.7.6-.1,2.5,2.4,3.3,4,4.3-.1-.2-.3.2-.4.4M24.6,28c.4.8.4,1.8,0,2.6.3-.8.3-1.7,0-2.6M25.4,32.3c.3-.1.3-.7.7-.6.1.5-.1,1.1-.5,1.5-.5-.2-.1-.6-.2-.9M25.1,31.9c-.2,0-.3-.2-.4-.4,0-.5.5-.8.7-1.3.3.5.2,1.2-.3,1.7M26.7,18.9c.5.1,1.3.3,1.4,1.1.2,1.6-.6,2.9-.3,4.4-2.1-1.3-.5-3.7-1.1-5.5M26.7,24.5l-.5.7c-.4-.5-.5-1.2-.2-1.8.2.2.7.7.7,1.1M30.7,23.1c.4-.5.5-1.2.3-1.9-.3-.5-.9-1.1-.5-1.6.5-.5.7-1,1.5-1.3,1.1.8,1,2.6.5,3.8,0,1.1-.8,2-1.8,2.2.1.4.7.4.5.9s-.8.5-1.2.6c-.4-.3.2-1-.4-1.4-.4-.5-.9-.5-1.1-1.1-.1-.7.1-1.4.6-1.9,0,.2-.3.7.1.9.5-.2.5-.8,1.1-.8.1.5.1,1-.1,1.5.1.2.3.2.4.2,0,0,0-.1.1-.1M29.6,18.6c-.1.3-.5.5-.8.4-.1,0-.2-.1-.3-.2-.5-.6-.6-1.3-.4-2,.3-.2,0-.9.6-.8l.4,1.2c.2.5,1.2.7.5,1.4M39.8,34.9c.5.1,1.2.4,1.4.8-.6-.1-1.3.1-1.7-.5-.2-.2.1-.2.3-.3M39.3,33.2c0-.5-.6-1.1,0-1.4.5,0,.4,1,1.1.9.1.6-.8.1-1.1.5M37.1,30.3v-.5c.2,0,.1.2,0,.5h0ZM37.5,28.8c0,.2-.1.3-.1.5,0-.2.1-.3.1-.5.1-.8.4-1.6.9-2.2,0,.7-.6,1.4-.9,2.2M39.5,26.5l.1.1-1.5,2.7c.2-1.1.7-2,1.4-2.8M48.1,37.6c-.2.1-.6-.1-.7-.5.3-.1.6.1.7.5q0-.1,0,0M47.3,37.9c-.1.1-.2.1-.3.1l-.1-.4c.2,0,.2.2.4.3M46.1,38.7c-.1-.1-.1-.2-.1-.2q.1.1.1.2c.1.1.1.2.1.4-.3.2-.6.4-.9.4,0-.8,1.1-.2.8-.8M43.4,56.6c-.6,0-.7-.7-1-1.1.3.2.8.3,1,.8v.3ZM44.8,57.4c-.2.2-.5-.1-.8-.1,0-.5.8-.8.9-1.4.1.4.4,1.1-.1,1.5M46.1,56.8c.1-.6-.6-1.1-.2-1.6,1.3-.5,2.8-.5,3.5,1,0,.7.1,1.4.3,2.1.4.7,1.1.7,1.6,1.1-1.9,0-4.1-.6-5.2-2.6M50.7,55.7c-.5-.2-1-.5-1.3-1,.1-.2-.2-.7.1-.7s.8.1.9.5c0,.5.1.9.3,1.2M51,56.6l-.5.5-.1-.2c.1-.3.3-.4.6-.3M55,61.1c-1,.1-2-.3-2.7-1,0-.5,1.3-1,.7-1.3-.6,0-1.3.4-1.6-.3,0-.5.1-1,.4-1.4.6-.1,1.3-.7,1.9-.1,1.1.7.1,2,.7,2.9,0,.4.7.7.6,1.2M54.8,55.7c-.5.5.6.7.5,1.1-1-.5-2.2-.7-3.3-.5.3-.2-.2-.6-.4-.9-.7-.1.1-.5,0-.8.1.1.1-.1.2-.1.1-.7-.8-.6-1.1-.9-1.1-.4-1.8-1.4-1.9-2.6.6.5,1.4.6,1.8-.2,1-.7.2-2.1.8-2.9h.1c-.3,1.1.8,2.8-.9,3.1-.5.2-.2.7-.3,1.1.3.4.6,1,1.1.8s.2-.8.5-.9c.1.3-.3.8.1,1,1.1-.9,2.1.8,3.3,1.1-.5.3-1.4,0-1.7.6l1.2,1ZM54.5,52.5c.3-.6,2.1-1.1,1.8.3-.6.3-1.3.1-1.8-.3M57.1,58.4c0,.3,0,.9-.4.9-.5-.8-.4-1.9-.5-2.9.5-.5.6-1,1.3-1.1.7,0,1.4-.1,1.7.7.1,1.3-1.9.9-2.1,2.4M58.8,54.4c-.8-.3-1.4.1-2.2.1.4-1.6,2.4-1.7,2.4-3.5,1.6.8,1.3,2.6,1.2,4-.5.3-.8-.5-1.4-.6M61.2,56.7l-1-.1c-.1-.4.4-.5.5-.7.4,0,.4.4.5.8h0ZM62.4,53.4c-1.6-.5-1.8-2.7-3.6-3-.2-.1-.2-.3-.2-.5.7-.2,1.2-.7,1.4-1.4-.7-.5-1.3,1-2.1.3-.4-.2-.1-.2-.1-.6,1.3-.3-.8-2.3,1.1-1.7l1.1,1.1c.8.7-1.1,2.8.6,2.1.1.6.4,1.2,1,1.6.3,0,.6,0,.8-.3s-.1-.5.1-.8c.7.9,1.6,1.6,2.6,2-.5.9-1.7,1-2.7,1.2M65.5,45.1c-.7-.1-1.5.6-2-.3l-.5-1.3c1.1-.1,0-1.2.6-1.7.9,1.1,2.2,1.7,3.7,1.6-.2.9-1,1.3-1.8,1.7"/>
  <path class="st0" d="M268.1,18c.1-1.1,1-1.9,2-1.8,1.1.1,1.9,1,1.8,2s-.9,1.9-2,1.8c-1,0-1.8-.9-1.8-2"/>
  <path class="st0" d="M121.2,23.3c1.8-.2,1.5-.8,1.5-.8,0,0-.1-.2-.2-.8s.6-.6.7-.4,2.3,5.5,2.5,6.1-.5.8-.7.3c-.7-2-2.6-3.4-4.7-3.5-.6,0-4.3.6-4.2,6.8,0,1.9.3,3.8,1,5.6,1.1,2.8,3.9,4.7,6.9,4.7.9,0,1.8-.2,2.6-.6.5-.2.9.5.4.7-1,.5-2.2.8-3.4.7-6.1,0-10.3-4.2-10.3-9.5,0-.1-.5-8.4,7.9-9.3"/>
  <path class="st0" d="M133.9,27v-1.4c0-.7-.7-.9-1.1-.9s-.7.1-.7.5v12.5c-.1,1.8,1.3,3.3,3,3.3h.3c.8-.1.9.5.2.7-5.2,1.5-6.2-2.8-6.2-4.8v-11.9c0-.3-.2-.4-.5-.4h-3.2c-.7,0-.9-1,0-1h3.2c.4,0,.5-.4.5-.7v-2.5c0-.7-1.2-.2-1.7.1s-1.1-.1-.5-.7l5.4-3.2c.3-.3.9,0,.5.5-.7,1-1.1,2.1-1.2,3.3v2.6c0,.3.2.6.5.6h1.8c.7,0,.8-.4,1.2-1l.5-1c.2-.5,1,0,.8.5l-2.5,4.9c-.2.2-.3.2-.3,0"/>
  <path class="st0" d="M167.9,30.5c.8,0,2.8.6,3.4.5.5,0,.9-.2,1.2-.6.1-.1.3-.1.4,0s.1.3,0,.4c-.2.3-1.4,2.6-3.6,2.6-1.4,0-2.4-.7-3.2-.7-.4,0-.9.1-1.3.3-.4.1-.4-.1-.2-.4s1.6-2.1,3.3-2.1"/>
  <path class="st0" d="M97.4,37.8c-.1,1.8,1.3,3.3,3,3.4h.3c.8-.1.9.5.2.7-5.2,1.5-6.2-2.8-6.2-4.8v-15.5c0-.7-.7-.5-1.1-.2s-1.1-.1-.5-.7l4.8-4c.3-.3,1,0,.5.5-.7,1-1.1,2.1-1.1,3.3l.1,17.3"/>
  <path class="st0" d="M235.3,41.5h-4.6c-.2,0-.4-.2-.3-.5,0-.2.2-.3.3-.3h.3c.4-.1.6-.4.6-.7v-13s.1-1.8-1.6-1.8c-1.4,0-2.6,1.2-2.6,2.7v12.2c0,.4.3.7.6.7h.5c.5,0,.5.8,0,.8h-4.6c-.2,0-.4-.2-.3-.5,0-.2.2-.3.3-.3h.2c.4-.1.7-.4.7-.8v-13s.1-1.8-1.6-1.8c-1.5,0-2.6,1.2-2.6,2.7v12.1c0,.4.3.7.7.8h.4c.5,0,.5.8,0,.8h-4.6c-.2,0-.4-.2-.3-.5,0-.2.2-.3.3-.3h.2c.4-.1.7-.4.7-.8v-13c0-.3-.6-.4-1-.2s-1.2-.4-.5-.8l4.5-2.8c.5-.3,1.1.2.6.8l-.3.4c-.2.2,0,.5.3.2.7-.7,1.7-1.2,2.7-1.3,1,0,1.9.4,2.4,1.2,0,0,.4.8.5.8h.3c.1,0,.2-.1.4-.1l.6-.6c.7-.8,1.8-1.3,2.9-1.2,1.6,0,2.6,1.7,2.7,3.4v13.4c0,.4.3.7.7.8h.4c.2,0,.4.1.4.3s-.1.4-.3.4q.1-.2,0-.2"/>
  <path class="st0" d="M252.3,40.6s1,0,1-.8v-12.8c0-.3-.9-.3-1.4.1-.4.3-1.3-.6-.7-1l5.8-3.6c.5-.3,1.1.2.6.8,0,0-1.1.8-1.3,1s0,.7.6.4c1-.6,2.3-1.8,4.1-1.9,3.7-.1,3.2,4.8,3.3,5.9v11c0,.8,1.1.8,1.1.8h2.3s1,0,1-.8v-13.1c0-.6-1.6.1-2.1.5s-1-.1-.5-.7l6-3.7c.2-.2.5-.1.6.1.2.2.1.4,0,.6,0,0-1.5,1-1.5,1.7v14.8c0,.8,1.1.8,1.1.8h.1c.6,0,.8-.5,1.1-.9s4.2-6.8,4.9-8c.3-.4.4-.8.4-1.2,0-.1-.1-.2-.1-.2h0c-1.1-1.8-1.9-3.3-2.1-3.7-.5-.8-1.5.2-1.9.6s-1,.1-.7-.5l4-4.3c.2-.4,1-.2.7.5-.4.6-.4,1.3-.1,1.9.1.2.7,1.2,1.5,2.6h0c.2.4.7.4.9-.1h0s1.1-2,1.5-2.6c.2-.4-.1-.5-.3-.5h-.2c-.5,0-.5-.9,0-.9h4.4c.5,0,.5.9,0,.9h-1.4c-.4.1-.8.3-1,.7-.3.4-2.3,3.7-2.3,3.7-.2.4-.3.8-.1,1.2,2.6,4.6,5.9,10.5,5.6,10,0,0,.3.9,1.1.9h1.2c.5,0,.5.8,0,.8h-6.8c-.5,0-.5-.8,0-.8h.8c.2,0,1-.1.5-.9l-4-7.2h0c-.1-.1-.5-.2-.6,0s-4.6,7.5-4.6,7.5c-.2.3-.1.6.1.7h1.7c.5,0,.5.8,0,.8h-15.8c-.2,0-.4-.2-.3-.5,0-.2.2-.3.3-.3h0s1,0,1.1-.8v-13c-.1-1.2-1.1-2.1-2.2-2h-.1c-1.7,0-3.6,1.9-3.6,3.2v11.8c0,.8,1.1.8,1.1.8h.3c.5,0,.5.8,0,.8h-5.4c-.2,0-.4-.2-.3-.5,0-.2.2-.3.3-.3l.3-.3"/>
  <path class="st0" d="M179.5,40.6c.5,0,.5.8,0,.8h-5.8c-.2,0-.4-.2-.3-.5,0-.2.2-.3.3-.3h.5s1,0,1.1-.8v-19c0-1-1.8,0-2.2.3s-1.1-.1-.5-.7l6.5-4.5c.3-.3,1,0,.5.5-1.2,1-1.8,2.6-1.7,4.1v2.3c.1.2.3.5.9.4,1.6-.3,8.2-.1,9.6,7.5.9,5-.5,10.1-3.8,13.9-.6.6-.8.1-.7-.3,1.5-3.3,2.1-7,1.7-10.6-.8-8.1-4.9-10.2-7-9.8-.4.1-.7.4-.8.8v15.1c0,.8,1.1.8,1.1.8h.6"/>
  <path class="st0" d="M143,40.6c.5,0,.5.8,0,.8h-5.8c-.2,0-.4-.2-.3-.5,0-.2.2-.3.3-.3h.5s1,0,1.1-.8v-13c0-.7-1.2-.2-1.7.1s-1.1-.1-.5-.7l5.4-3.2c.3-.3.9,0,.5.5,0,0-1.2,1-1.2,1.6s.6.4.8.2l1.2-1.1c.5-.5,2.6-2,4.3-.5,1.4,1.2.9,2,.7,2.3,0,0-2.6,2.3-2.9,2.5s-.7-.1-.4-.4c.8-.8,1.4-1.9.7-2.7s-1.9-.5-3,.4c0,0-1.4,1-1.4,2.1v11.8c0,.8,1.1.8,1.1.8h.6"/>
  <path class="st0" d="M93.5,24.9c-.1,0-.1-.1-.2-.1-.2-.1-.4,0-.6.1-.2.2-.5.5-.8.7,0,0-.3.4-1.2-.3-1.1-1.1-2.5-1.7-4.1-1.8-3.1,0-8,3-8,9.1.2,5.2,4.4,9.4,10.4,9.4,1.2.1,2.3-.2,3.4-.7.5-.2.1-.8-.4-.7-.8.4-1.7.6-2.6.6-3,0-5.8-1.9-6.9-4.7-.2-.3-.1-.8.2-1,.6-.5,10.3-9.9,10.6-10.2s.3-.3.2-.4M87,30.4c-.9,1-3.4,3.4-4.1,4-1.4,1.5-1.3-2.2-1.3-3.5.3-6.8,4.2-6.8,4.2-6.8,1.5,0,2.8,1.2,2.8,2.7v.2c.1,1.9-.7,2.4-1.6,3.4"/>
  <path class="st0" d="M113.8,24.9l-.2-.1c-.2-.1-.4,0-.6.1-.2.2-.5.5-.8.7,0,0-.4.4-1.2-.3-1.1-1.1-2.6-1.7-4.1-1.8-3.1,0-8,3-8,9.1,0,5.3,4.2,9.5,10.3,9.5,1.2.1,2.3-.2,3.4-.7.5-.2.1-.8-.4-.7-.8.4-1.7.6-2.6.6-3,0-5.8-1.9-6.9-4.7-.2-.3-.1-.8.2-1,.6-.5,10.3-9.9,10.6-10.2s.4-.5.3-.5M107.2,30.4c-.9,1-3.4,3.4-4.1,4-1.4,1.5-1.3-2.2-1.3-3.5.3-6.8,4.2-6.8,4.2-6.8,1.5,0,2.8,1.2,2.8,2.7v.2c.1,1.9-.7,2.4-1.6,3.4"/>
  <path class="st0" d="M155.7,22.3c-4.3,0-7.7,4.4-7.7,9.9s3.4,9.9,7.7,9.9,7.7-4.4,7.7-9.9-3.5-9.9-7.7-9.9M159.7,39.5c-1.6,1.7-4.8,2.5-8-3.4s-1.8-9.2-.7-10.5c2.2-3,6.2-2,9,3.8,2.6,5.4.9,8.7-.3,10.1"/>
  <path class="st0" d="M215,23.8c-1.7-1.5-3.8.1-4.3.5l-1.2,1.1c-.2.2-.8.5-.8-.2s1.2-1.6,1.2-1.6c.4-.6-.2-.8-.5-.5l-5.4,3.2c-.6.5,0,1,.5.7s1.6-.8,1.6-.1v13c0,.6-.5.8-.8.8h-1.8c-.5,0-.6-.6-.6-.6v-12.1c0-4.3-5.1-4.9-6-4.9s-1.8.1-2.7.4c-.7.2-.5-.4-.5-.4,0,0-.1.1.3-.9.4-.8-.5-1.1-.9-.5s-3,6.2-3.3,6.7.4.9.7.2c.9-1.8,3.7-4.3,6.2-4.3s3.2,1.5,3.2,2.2-.5.7-.5.7c-6,2.4-10.4,6.6-10.4,9.7,0,4,3.1,5,5.9,5s4.1-1.1,4.7-1.1.7.7.7.7h9.9c.5,0,.5-.8,0-.8h-.7s-1,0-1.1-.9v-11.7c0-1.2,1.4-2.1,1.4-2.1,1.1-.9,2.3-1.2,3-.4s.1,1.9-.7,2.7c-.3.3.1.6.4.4l2.9-2.5c.5-.4,1-1.2-.4-2.4M200.4,39.2c0,.5-1.8,1.5-3.5,1.5,0,0-4.6.2-4.6-3.9,0-5,6.2-8,7-8.5s1.2.2,1.2.7l-.1,10.2"/>
  <path class="st0" d="M243.4,22.3c-4.3,0-7.7,4.4-7.7,9.9s3.4,9.9,7.7,9.9,7.7-4.4,7.7-9.9-3.5-9.9-7.7-9.9M247.4,39.5c-1.6,1.7-4.8,2.5-8-3.4s-1.8-9.2-.7-10.5c2.3-3,6.2-2,9.1,3.8,2.6,5.4.9,8.7-.4,10.1"/>
</svg>