<?xml version="1.0" encoding="UTF-8"?>
<svg id="layer" xmlns="http://www.w3.org/2000/svg" version="1.1" viewBox="0 0 652 652">
  <!-- Generator: Adobe Illustrator 30.0.0, SVG Export Plug-In . SVG Version: 2.1.1 Build 123)  -->
  <path d="M561.3,379.7c-6.9,0-12.5-5.6-12.5-12.5v-147.7h-104.4c-50.5,0-92.5,36.6-100.9,84.7v-2.9c0-45.2-36.6-81.8-81.8-81.8s-81.8,36.6-81.8,81.8v76.9h-98.6c-9.1,0-16.4-7.3-16.4-16.4s7.3-16.4,16.4-16.4h77.3v-48.1h-70.5c-9.2,0-16.6-7.5-16.6-16.6s7.4-16.7,16.6-16.7h70.6v-44.5h-70.7c-33.2,0-60.1,26.9-60.1,60.1,0,14.6,5.2,28,13.9,38.4-13.3,11-21.8,27.7-21.8,46.3,0,33.2,26.9,60.1,60.1,60.1h142.8v-122.8c0-21.4,17.4-38.8,38.8-38.8s38.8,17.4,38.8,38.8v122.9h43v-84.7c8.3,47.4,49.1,83.5,98.6,84.7h2.4c14.8,0,33.6-4.9,41.5-12.2v-110.5h-43.9v77.9c-34.8,0-57.6-26.4-57.6-57.7,0-33.1,26.9-60,60-60h61.1v105.3c0,31.6,25.6,57.2,57.2,57.2h57.2v-44.8h-58.7Z"/>
</svg>
