<?xml version="1.0" encoding="utf-8"?>
<!-- Generator: Adobe Illustrator 19.2.1, SVG Export Plug-In . SVG Version: 6.00 Build 0)  -->
<svg version="1.1" id="layer" xmlns="http://www.w3.org/2000/svg" xmlns:xlink="http://www.w3.org/1999/xlink" x="0px" y="0px"
	 viewBox="0 0 652 652" style="enable-background:new 0 0 652 652;" xml:space="preserve">
<path d="M561.3,379.7c-6.9,0-12.5-5.6-12.5-12.5V219.5h-0.1h-43.2h-61.1c-50.5,0-92.5,36.6-100.9,84.7v-2.9
	c0-45.2-36.6-81.8-81.8-81.8c-45.2,0-81.8,36.6-81.8,81.8v76.9H81.3c-9.1,0-16.4-7.3-16.4-16.4c0-9.1,7.3-16.4,16.4-16.4h77.3v-48.1
	H88.1c-9.2,0-16.6-7.5-16.6-16.6S78.9,264,88.1,264h70.6v-44.5H88c-33.2,0-60.1,26.9-60.1,60.1c0,14.6,5.2,28,13.9,38.4
	c-13.3,11-21.8,27.7-21.8,46.3c0,33.2,26.9,60.1,60.1,60.1c1.7,0,142.8,0,142.8,0V301.6c0-21.4,17.4-38.8,38.8-38.8
	c21.4,0,38.8,17.4,38.8,38.8v122.9h43v-84.7c8.3,47.4,49.1,83.5,98.6,84.7v0l0.1,0c0.8,0,1.5,0,2.3,0c14.8,0,33.6-4.9,41.5-12.2
	V301.8h-43.9v77.9c-34.8,0-57.6-26.4-57.6-57.7c0-33.1,26.9-60,60-60h0h61.1v105.3c0,31.6,25.6,57.2,57.2,57.2H620v-44.8H561.3z"/>
</svg>
