<?xml version="1.0" encoding="utf-8"?>
<!-- Generator: Adobe Illustrator 30.0.0, SVG Export Plug-In . SVG Version: 9.03 Build 0)  -->
<svg version="1.0"
	 id="svg2347" xmlns:sodipodi="http://sodipodi.sourceforge.net/DTD/sodipodi-0.dtd" xmlns:inkscape="http://www.inkscape.org/namespaces/inkscape" xmlns:cc="http://web.resource.org/cc/" xmlns:dc="http://purl.org/dc/elements/1.1/" xmlns:svg="http://www.w3.org/2000/svg" xmlns:rdf="http://www.w3.org/1999/02/22-rdf-syntax-ns#" inkscape:version="0.45.1" sodipodi:docbase="C:\Users\Chris\Desktop\SVGs" sodipodi:docname="Marshall logo.svg" sodipodi:version="0.32"
	 xmlns="http://www.w3.org/2000/svg" xmlns:xlink="http://www.w3.org/1999/xlink" x="0px" y="0px" viewBox="0 0 424.64 108.86"
	 style="enable-background:new 0 0 424.64 108.86;" xml:space="preserve">
<sodipodi:namedview  bordercolor="#666666" borderopacity="1.0" gridtolerance="10.0" guidetolerance="10.0" id="base" inkscape:current-layer="svg2347" inkscape:cx="217.5" inkscape:cy="85.088235" inkscape:pageopacity="0.0" inkscape:pageshadow="2" inkscape:window-height="575" inkscape:window-width="765" inkscape:window-x="179" inkscape:window-y="195" inkscape:zoom="1.5632184" objecttolerance="10.0" pagecolor="#ffffff">
	</sodipodi:namedview>
<path id="path2356" d="M57.45,107.44c-1.89-1.38-1.85-1.74,1.87-16.42c2.09-8.26,4.02-17.63,4.29-20.84l0.48-5.83l-4.98,9.67
	C50.24,91.24,43.7,99.6,35.24,104.56c-5.3,3.11-15.12,4.15-21.7,2.31c-13.41-3.75-18.2-21.7-8.24-30.88
	c6-5.53,23.15-3.31,21.23,2.74c-0.63,1.99-1.15,2.16-5.06,1.57c-3.81-0.57-4.68-0.33-6.92,1.91C12.58,84.19,12,85.77,12,89.22
	c0,3.75,0.49,4.87,3.08,7.05c5.31,4.47,13.46,3,20.03-3.6c4.54-4.56,12.35-18.91,22.35-41.07C67.84,28.57,74.1,16.15,79.53,7.73
	c4.92-7.63,5.71-8.28,9.01-7.45c3.75,0.94,3.94,4.31,0.67,11.61c-6.16,13.77-10.6,29.95-11.77,42.96l-0.67,7.5l9.77-14
	c12.4-17.77,19.57-26.66,30.83-38.25c7.19-7.4,9.56-9.25,11.83-9.25c3.58,0,4.65,2.47,2.57,5.92c-0.86,1.42-5.93,9.78-11.26,18.58
	c-19.78,32.62-28.73,56.56-25.56,68.35c1.37,5.07,3.67,5.88,9.26,3.27c6.11-2.85,9.2-6.03,12.8-13.18
	c6.6-13.07,19.69-22.95,30.41-22.95c2.81,0,6.02,0.63,7.12,1.4c1.71,1.2,2.27,1.2,3.91,0c2.5-1.82,6.96-1.79,8.5,0.06
	c0.99,1.19,0.18,3.49-4.3,12.25c-3.03,5.93-6.56,12.67-7.83,14.97c-1.27,2.3-2,4.49-1.63,4.86c2.29,2.29,12.63-8.7,23.15-24.62
	c3.64-5.5,3.67-5.62,2.16-9.22c-1.95-4.68-1.96-13.97-0.01-17.74c1.64-3.17,6.1-5.97,9.51-5.97c1.17,0,3.44,1.32,5.05,2.92
	c2.39,2.39,2.92,3.77,2.92,7.54c0,2.64-0.85,6.29-2,8.54c-2.63,5.16-2.58,5.36,1.39,4.71c4.11-0.67,7.61,1.45,7.61,4.6
	c0,1.21-3.18,6.23-7.09,11.19c-13.24,16.79-15.37,25.22-5.33,21.02c6.54-2.73,9.85-5.99,25.43-25.04
	c11.34-13.87,15.68-18.49,17.34-18.49c2.56,0,6.66,2.6,6.66,4.22c0,0.61-1.87,3.58-4.16,6.61l-4.16,5.51l1.33,4.58
	c0.73,2.52,1.52,6.49,1.76,8.83s0.66,4.25,0.93,4.25s3.08-1.82,6.25-4.04c4.59-3.22,6.28-5.19,8.33-9.75
	c11.21-24.92,20.1-44.08,21.32-45.96c1.73-2.66,7.45-3.12,9.41-0.75c1.33,1.6,1.3,1.66-9.37,26.77l-4.58,10.78l4.31-2.53
	c4.73-2.77,8.4-3.2,10.81-1.28c2.27,1.82,3.84,7.35,3.14,11.05c-0.64,3.34-5.36,13.16-9.83,20.45c-1.55,2.54-2.12,4.25-1.4,4.25
	c2.7,0,9.76-7.17,12.42-12.61c3.5-7.16,14.33-18.23,20.99-21.46c6.32-3.07,14.31-3.31,17.37-0.54c1.81,1.64,2.16,1.68,2.68,0.34
	c1.26-3.28,10.45-2.75,10.45,0.6c0,0.76-3.15,7.46-7,14.89c-3.85,7.43-7,14.48-7,15.68c0,3.82,2.74,3.51,8.04-0.93
	c4.07-3.41,6.02-6.22,9.93-14.35c9.74-20.23,24.51-38.86,38.01-47.93c7.86-5.28,15.01-4.73,15.01,1.15
	c0,3.12-6.48,17.09-10.92,23.55c-4.54,6.6-14.71,16.12-24.15,22.6c-10.37,7.12-10.77,7.57-11.53,13.12
	c-0.74,5.41,1.82,8.56,6.09,7.49c4.46-1.12,13.62-11.55,19.47-22.18c7.69-13.98,11.52-19.91,17.88-27.77
	c6.67-8.23,20.89-20.21,25.09-21.13c4.1-0.9,6.95,0.17,7.62,2.85c0.71,2.81-3.26,13.84-7.68,21.38
	c-4.16,7.09-17.92,20.9-28.17,28.26c-8.05,5.78-9.75,8.74-8.31,14.46c1.86,7.39,10.39,4.3,19.74-7.14c5.43-6.65,6.28-7.32,7.62-5.99
	c2.16,2.16,1.04,5.15-4.89,13c-5.61,7.44-13.26,13.16-18.96,14.18c-6.28,1.13-12.96-3.25-15.23-9.98c-0.18-0.53-1.87,0.49-3.75,2.27
	c-4.74,4.47-12.56,8.2-17.2,8.2c-2.96,0-4.58-0.7-6.8-2.92c-1.61-1.61-2.92-3.86-2.92-5c0-1.14-0.24-2.08-0.54-2.08
	c-0.3,0-2.89,1.77-5.75,3.93c-8.8,6.64-13.39,7.15-17.59,1.96l-1.68-2.08l-3.47,2.04c-1.91,1.12-5.61,2.52-8.23,3.1
	c-5.55,1.24-9.74-0.07-13.59-4.25l-2.36-2.56l-3.97,2.88c-6.06,4.39-10.05,5.42-13.69,3.54c-3.76-1.95-6.13-5.26-6.1-8.54
	c0.01-1.39,2.71-7.67,6-13.96c3.29-6.29,5.98-11.8,5.98-12.25c0-1.92-2.86-0.47-7.93,4.01c-4.7,4.16-6.18,6.47-11.06,17.24
	c-6.45,14.22-8.86,16.65-13.76,13.89c-2.87-1.62-3.55-5.24-1.76-9.34c0.54-1.24-1.66-0.14-6.41,3.2
	c-11.98,8.41-21.63,9.1-28.25,2.01l-2.67-2.86l-5.33,3.19c-3.81,2.28-6.96,3.32-11.04,3.64c-5.31,0.42-5.92,0.23-8.75-2.59
	c-2.21-2.21-3.04-3.98-3.04-6.48c0-4.8,5.91-16.1,11.97-22.89c3.17-3.56,4.66-5.94,3.96-6.36c-1.34-0.83-0.86-1.38-10.41,11.87
	c-10.54,14.62-16.6,21.04-22.75,24.1c-6.25,3.11-10.4,3.27-13.35,0.5l-2.21-2.07l-4.07,2.07c-5.3,2.7-12.56,2.73-16.93,0.07
	c-1.81-1.1-3.54-2.67-3.85-3.48c-0.46-1.19-1.38-0.92-4.76,1.41c-7.12,4.9-15.77,6.05-21.85,2.91c-4.65-2.4-6.37-12.74-4.47-26.84
	l0.74-5.5l-3.13,5.5c-8.67,15.25-19.03,29-21.85,29C59.69,108.86,58.51,108.22,57.45,107.44z M220.55,98.4
	c1.99-1.99,2.45-3.45,2.44-7.75c-0.02-6.13-0.87-10-2.11-9.59C219.12,81.66,211,92.4,211,94.14c0,1.96,4.24,6.71,6,6.71
	C217.6,100.86,219.2,99.75,220.55,98.4z M308.71,93.37c8.31-7.11,14.24-24.53,8.62-25.33c-7.39-1.05-21.35,14.82-21.63,24.58
	C295.5,99.65,301,99.97,308.71,93.37z M136.15,94.97c6.77-4.29,12.35-13.22,13.5-21.6c0.68-4.96-0.58-6.26-4.98-5.15
	c-9.16,2.3-22.9,23.03-18.66,28.14C127.87,98.61,131.11,98.17,136.15,94.97z M367.78,61.11c7.15-7.03,17.6-22.25,15.28-22.25
	c-0.46,0-4.4,3.76-8.74,8.35c-7.58,8.01-17.24,21.65-15.33,21.65C359.49,68.86,363.45,65.37,367.78,61.11z M400.45,59.36
	c4.93-4.53,14.84-20.5,12.72-20.5c-2.89,0-23.18,25.67-23.18,29.34c0,0.59,2.11-0.93,4.68-3.38
	C397.26,62.36,399.86,59.91,400.45,59.36z M187.88,51.76c0.97-2.78,0.14-6.9-1.38-6.9c-1.27,0-2.55,4.52-1.99,7.06
	C185.35,55.7,186.53,55.65,187.88,51.76z"/>
</svg>
