<svg version="1.1" id="レイヤー_1" xmlns:x="ns_extend;" xmlns:i="ns_ai;" xmlns:graph="ns_graphs;" xmlns="http://www.w3.org/2000/svg" xmlns:xlink="http://www.w3.org/1999/xlink" x="0px" y="0px" viewBox="0 0 650.3 100" style="enable-background:new 0 0 650.3 100;" xml:space="preserve">
 <style type="text/css">
  .st0{fill:#FFFFFF;}
 </style>
 <metadata>
  <sfw xmlns="ns_sfw;">
   <slices>
   </slices>
   <sliceSourceBounds bottomLeftOrigin="true" height="100" width="650.3" x="-529.3" y="0.8">
   </sliceSourceBounds>
  </sfw>
 </metadata>
 <g>
  <g>
   <g>
    <g>
     <path class="st0" d="M376.5,3.9v89.3c0,0,0,3.9,3.9,3.9H391c3.9,0,3.9-3.9,3.9-3.9V3.9c0,0,0-3.9-3.9-3.9h-10.6
					C376.5,0,376.5,3.9,376.5,3.9z">
     </path>
     <path class="st0" d="M560.5,93.2l0-39.4c0-17.6-15.5-28.4-26.8-28.4c-11.3,0-20.8,2.9-28.2,8.9c-0.7,0.5-2.5,1.1-2.5-0.5l0-4.1
					c0,0,0-3.9-3.9-3.9H490c0,0-3.9,0-3.9,3.9l0,63.5c0,3.9,3.9,3.9,3.9,3.9l9.2,0c3.9,0,3.9-3.9,3.8-3.9l0-31
					c0-8.6,5.8-23.2,24.8-23.2c13.6,0,15.8,9.4,15.8,14.9l0,39.4c0,3.9,3.9,3.9,3.9,3.9l9.2,0C556.7,97.1,560.6,97.1,560.5,93.2z">
     </path>
     <path class="st0" d="M405,45.5c0,0.1,0,0.3,0,0.4">
     </path>
     <path class="st0" d="M609,39.3c13.3,0,23.9,9.1,24,23.2c0,14.6-10.7,23.9-24,23.9c-13.3,0-23.4-10.4-23.4-24.1
					C585.6,48.8,596.6,39.3,609,39.3z M631.1,91c1.1-0.9,2.3-0.2,2.3,1.9c0,0.3,0,4.2,3.9,4.2h9.2c0,0,3.9,0,3.9-3.9V3.9
					c0-3.9-3.9-3.9-3.9-3.9h-9.2c0,0-3.9,0-3.9,3.9l0,28.2c0,2-1.1,2.7-2.2,1.9c-25-19.2-63,0-62.9,28.4
					C568.3,94.1,605.7,111.2,631.1,91z">
     </path>
     <path class="st0" d="M423.6,69.4c8.8-4.6,30.4-4.2,32.4-3.9c1,0.1,2.5,0.9,2.5,2.3C458.4,86.5,432.8,89,423,82.6
					c-2-1.3-3.3-3.8-3.4-5.9C419.6,73.5,420.6,71,423.6,69.4z M412.2,94.6c12,8.5,34.3,6.5,44.5-2.4c1.2-1.1,2.7-0.2,3.1,1.1
					c1,3.1,2.4,3.9,5.5,3.9c1.4,0,6.4,0,6.4,0c3.8,0,3.9-3.9,3.8-3.9l0-40.2c0-21.8-20.4-27.6-36-27.6c-17.5,0-28.9,6.7-34.5,20.1
					c-0.6,1.4,1.1,3,2.5,3l11.9,0c2,0,4.1-1.7,4.7-2.7c3.1-5.2,8.1-7.1,17.5-7.1c10.4,0,13.1,2.3,16.5,7.1c2.2,3.1-0.8,6.3-2.4,6.4
					c-25,1.3-29.3,2.2-36.1,3.3c-9.9,1.6-17.4,11.1-17.4,21.1C402.2,83.2,405.3,89.6,412.2,94.6z M326.5,99.6
					c31,0,43.9-20.1,43.9-37.1c0-16.3-13-37.1-44.2-37.1c-31.1,0-44.1,20.8-44.1,37.1C282.1,79.9,295.3,99.6,326.5,99.6z
					 M326.5,86.3c-18.1,0-26.4-13.4-26.4-23.7c0-10.3,8.7-23.8,26.1-23.8c17.5,0,26.2,13.5,26.2,23.7
					C352.4,72.9,343.9,86.3,326.5,86.3z M207.8,57.3c0,9,0,29.5,0,35.9c0,3.9-3.9,3.9-3.9,3.9h-8.7c0,0-3.9,0.1-3.9-3.9l0-89.3
					c0-3.9,3.9-3.9,3.9-3.9h56.3c12.7,0,27.3,8.8,27.3,26.7c0,8.7-5,16.8-12,21.7c-0.6,0.4-1,1.1-0.7,1.3c4.8,3.8,4.9,6.9,6.6,13.4
					c3,11.8,3.4,22,8,31.9c0.3,0.7-0.5,2.1-1.5,2.1l-11.2,0c-3.7,0-5.7-1.7-6.4-3.9c-4-12.3-1.3-24.2-9.6-35.9
					c-2-2.7-6.3-3.9-11.4-3.9h-28.8C211.7,53.4,207.8,53.4,207.8,57.3z M246,40.5c0,0,15.1,0,15.1-13.8c0-13.8-15.1-13.9-15.1-13.9
					h-34.4c-3.9,0-3.9,3.9-3.9,3.9s0,15.1,0,19.9c0,3.9,4.1,3.9,3.9,3.9L246,40.5z">
     </path>
    </g>
    <g>
     <path class="st0" d="M153.5,42.6H58.5c-14.1,0-24,10.8-24,23.6C34.5,78.9,45,90,58.5,90c13.9,0,116.3,0,116.3,0v7.1
					c0,0-98.7,0-116.4,0C39.6,97.1,27,82.7,27,66.2c0-16.5,12.7-30.8,31.3-30.8c25,0,87.9,0,87.9,0l0,0v-9.6H27v71.2h-7.8V18.7
					h134.3C153.5,18.7,153.5,42.6,153.5,42.6z">
     </path>
     <path class="st0" d="M51.2,78.4h123.6v-7.1H58.5v-9.6l0,0c0,0,69.3,0,87.9,0c18.6,0,31.3-14.3,31.3-30.7
					c0-16.5-13-30.9-31.7-30.9C127.2,0,0,0,0,0v97.1h7.8V7.1c0,0,124.9,0,138.4,0c13.5,0,24.1,11.1,24.1,23.8
					c0,12.7-10,23.5-24.1,23.5c-14.1,0-95.1,0-95.1,0V78.4z">
     </path>
    </g>
   </g>
  </g>
 </g>
</svg>