<?xml version="1.0" encoding="utf-8"?>
<!-- Generator: Adobe Illustrator 24.0.1, SVG Export Plug-In . SVG Version: 6.00 Build 0)  -->
<svg version="1.1" id="Layer_1" xmlns="http://www.w3.org/2000/svg" xmlns:xlink="http://www.w3.org/1999/xlink" x="0px" y="0px"
	 viewBox="0 0 69.5 10.4" style="enable-background:new 0 0 69.5 10.4;" xml:space="preserve">
<style type="text/css">
	.st0{fill:#FFFFFF;}
</style>
<g id="letters_1_">
	<g>
		<path class="st0" d="M0,7.8h1.1v0.4c0,0.9,0.5,1.3,1.7,1.3h2.6c1.8,0,2.4-0.1,2.4-1.2V8.2c0-0.7-0.2-1.1-1.7-1.1H2.5
			c-1.7,0-2.4-0.6-2.4-1.9V4.8c0-1.2,0.7-1.8,3.7-1.8h1.9c2.8,0,3.1,0.8,3.1,1.8v0.4H7.7V5.1c0-1.1-0.7-1.1-2.1-1.1H3.5
			c-1.7,0-2.1,0.2-2.1,1v0.3c0,0.6,0.2,0.9,1.5,0.9H6c1.8,0,3.1,0.2,3.1,2.1v0c0,2-1.9,2.1-3.4,2.1H3.5c-1.8,0-3.5,0-3.5-2.2V7.8z"
			/>
	</g>
	<g>
		<path class="st0" d="M10.9,5.9c0-2.4,1.7-2.9,4-2.9h1.7c2.3,0,4,0.6,4,2.9v1.6c0,2.4-1.7,2.9-4,2.9h-1.7c-2.3,0-4-0.6-4-2.9V5.9z
			 M19.4,5.9c0-1.7-1-2-2.4-2h-2.5c-1.4,0-2.4,0.3-2.4,2v1.5c0,1.7,1,2,2.4,2H17c1.4,0,2.4-0.3,2.4-2V5.9z"/>
	</g>
	<g>
		<path class="st0" d="M22.9,0h1.2v10.3h-1.2V0z"/>
	</g>
	<g>
		<path class="st0" d="M35.5,10.3h-1.1V9.1h0C34,10,33,10.4,31.7,10.4H30c-2.2,0-3.8-0.6-3.8-3.1V6.1c0-2.3,0.9-3.1,3.8-3.1H32
			c1.4,0,2.1,0.3,2.3,1.1h0V0h1.2V10.3z M27.5,7.3c0,1.4,0.4,2.1,2.4,2.1h2c1.8,0,2.4-0.8,2.4-2.1V5.9c0-1.7-1-2-2.7-2H30
			c-1.7,0-2.5,0.3-2.5,2V7.3z"/>
	</g>
	<g>
		<path class="st0" d="M45.3,9.6L45.3,9.6c-0.4,0.7-0.7,0.8-2.6,0.8h-2.9c-1.8,0-2.3-0.8-2.3-2.2V7.7c0-1.6,1.2-1.8,3.3-1.8h2
			c1.6,0,2.2,0.2,2.6,0.9h0V5.4c0-1.3-0.8-1.5-2.7-1.5h-1.8c-1.5,0-1.8,0.4-1.8,1v0.3h-1.2V4.8c0-1.3,0.8-1.9,3-1.9h1.9
			c2.3,0,3.8,0.3,3.8,2.5v4.9h-1.2V9.6z M45.3,8c0-1-0.9-1.1-2.8-1.1h-1.9c-1.6,0-2,0.2-2,1.1v0.2c0,0.8,0.3,1.2,2,1.2h1.6
			c2.2,0,3.1-0.2,3.1-1.1V8z"/>
	</g>
	<g>
		<path class="st0" d="M48.7,3h1.1v1.3h0c0.5-1.1,1.4-1.4,2.9-1.4h1.8c2.3,0,3,1.2,3,2.5v4.9h-1.2V5.7c0-1.1-0.3-1.8-2.7-1.8h-0.3
			c-2.9,0-3.5,0.5-3.5,2.2v4.1h-1.2V3z"/>
	</g>
	<g>
		<path class="st0" d="M59.7,5.9c0-2.4,1.7-2.9,4-2.9h1.7c2.3,0,4,0.6,4,2.9v1.6c0,2.4-1.7,2.9-4,2.9h-1.7c-2.3,0-4-0.6-4-2.9V5.9z
			 M68.3,5.9c0-1.7-1-2-2.4-2h-2.5c-1.4,0-2.4,0.3-2.4,2v1.5c0,1.7,1,2,2.4,2h2.5c1.4,0,2.4-0.3,2.4-2V5.9z"/>
	</g>
</g>
</svg>
