<?xml version="1.0" encoding="utf-8"?>
<!-- Generator: Adobe Illustrator 19.2.1, SVG Export Plug-In . SVG Version: 6.00 Build 0)  -->
<svg version="1.1" id="layer" xmlns="http://www.w3.org/2000/svg" xmlns:xlink="http://www.w3.org/1999/xlink" x="0px" y="0px"
	 viewBox="0 0 652 652" style="enable-background:new 0 0 652 652;" xml:space="preserve">
<style type="text/css">
	.st0{fill:#231815;}
	.st1{fill:none;stroke:#000000;stroke-width:1.3628;}
</style>
<g>
	<path class="st0" d="M532.4,262.5c-0.4,2.4-1.3,5.9-2.8,9.3c-2.7,6-7.1,11.8-13.6,12.2h-0.4c-5,0.1-11.3-5.3-14.5-14.5
		c-1.2-3.5-2-7.4-2.2-11.9c-0.3-7.8,0.6-13.8,2.2-18.7c1.6-4.7,3.8-8.2,6.3-10.8c1-1,4.6-3.1,8.5-3.3c2,0,4.1,0.4,5.9,1.7
		c3.3,2.6,5.9,6,7.7,10.2C532.9,244.3,533.8,253.9,532.4,262.5 M546.6,219.2c-2.1-2.4-5-4.5-8.2-6.3c-2.8-1.5-5.8-2.9-8.9-3.9
		c-4.4-1.5-9-2.4-13.6-2.7c-4.7-0.4-9.3,0-13.5,1c-0.5,0.1-0.9,0.3-1.4,0.4c-3.8,1.2-7.2,2.9-10.5,5c-2,1.2-3.9,2.4-5.8,3.7
		c-14.9,15.4-18.9,23.6-17.3,44.8c0.6,8.2,6,17.9,10.1,22.5c4.2,5,8.6,8.5,13,11.2c3.5,2.1,7.1,3.7,10.5,4.7
		c5.3,1.5,10.3,1.9,14.8,1.6c5.4-0.2,10.2-1.4,13.6-2.5c3-1,5-1.9,5.7-2.1c0.8-0.3,1.9-0.8,3.2-1.6c5.5-3.5,13.7-11.2,15.8-15.5
		C568.7,248.4,554.8,228.1,546.6,219.2"/>
	<path d="M421.1,254.4c3.9,0.6,6.2,2.9,7.2,5.6c1,2.5,1.1,5.3,0.8,7.8c-0.2,1.1-0.5,2.2-0.8,3.4c-1.2,3.6-3.5,7.2-7.2,9.7
		c-3.2,2.1-7.5,3.2-13.1,2.6c-0.1-8.9,0.2-18.4,0.1-27.2C413.7,254.3,418,253.8,421.1,254.4 M408.9,304.8l3.9-1.8l8.2,12.6l7.2,10.9
		l5,7.5l-5,2.3l-7.2,3.3l-12,5.4L408.9,304.8z M314,309.4c-0.2-7.3-0.2-7.3,0.1-27.9c0.3-0.1,10.9-3.6,16.6,0
		c0.3,0.2,0.5,0.4,0.8,0.5c4.9,4,5.4,13.7,0,20.4C328.1,306.7,322.4,309.7,314,309.4 M620.7,248.9l-82.3,49.2l-8.9,5.3l-13.6,8.1
		l-14.8,8.9l-10.5,6.2l-25.4,15.1l7.1-25.4l-10.4,4.9c-1.8-2.7-19.3-29.6-19.5-29.6c10.4-5.8,22.1-18.3,19.1-36.3
		c-1.5-8.8-9.5-22.2-23-25.1c-0.1,0-0.2-0.1-0.4-0.1c-2.9-0.5-6.1-0.6-9.9-0.3c-2.3,0.3-4.7,0.6-7.2,1.1c-8.5,1.6-18.3,4.4-28,7.2
		c-5.4,1.6-10.7,3.3-15.9,4.7l0.4,116.7l-34.7,16.4l-8.5,4l8.5-25.7l2.4-7.1l-2.4,0.7l-11.4,3.4l-16.9,5.1l-0.2-26.7l17-5.7l9.1-3
		c0.7-0.4,1.6-0.6,2.3-1c29.1-13.8,24.2-37.6,21.5-45.5c-2.7-7.7-9.7-12.7-16.5-16.8c-1.6-0.7-3.2-1.1-5-1.5
		c-3.4-0.5-7.2-0.5-11.4-0.1c-10,1.1-21.6,4.4-32.5,7.7c-5.9,1.7-11.5,3.5-16.5,4.9l0.2,97.1l-25.9,7.4l16.3-15.2l-0.3-16.9
		l-13.2,12c-6.6,5-6.8-3.2-7.1-8l-0.5-67.9l-9.9,2.8l-22.2,6.2c-0.2,22.1,0.3,40.1,0.2,62.2c0.3,3.1-6.1,26.9-21.1,21.5
		c-5.7-2-4.4-17-4.6-17c0-21-1.4-39.6-1.1-59.9l-1.8,0.5l-29.2,8.4c-0.6,18.7-1,36.8-0.8,55.5c-0.7,31,11.6,36,21.2,38.5l-22.3,6.9
		l-1.6,40.2l32.8-10.7l50.6-16.5l49.5-16.2l-13.9,43.5l21.3-10.9l32.5-16.6l11.4-5.9l50.2-25.6l28-14.3l7.2-3.7l1.5-0.7l-1.5,5.7
		l-7.2,28.4l-2.2,8.5l2.2-1.7l7.2-5.8l9.9-7.8l52.4-41.4l10.5-8.3l14.8-11.7l13.6-10.6l8.9-7.1L620.7,248.9z"/>
	<path d="M53.3,231.6c8.9-18.9,39.9-19,50-8.1c0.8,0.9,1.8,1.7,2.1,3c0.5,2.5-0.6,4-2.1,4.6c-0.6,0.2-0.9,0.5-2.1,0.1
		c-3.7-1.2-7.5-2.6-12.1-0.9c-10.7,6-12,25.2-3.6,31.3c5.2,3.8,11.6,5.8,17.8,5.9c10.5,0.2,20.3-5.1,23.3-15.9
		c1.2-4.2,0.3-17.1-1.3-21.3c-3.7-9.6-7.5-18.5-22-24.5c-1.7-0.6-3.3-1.3-5.1-1.9c-13.1-4.1-29.1-3.6-42.4,0.5
		c-2.6,0.8-5,1.9-7.3,3.4c-17.4,10.5-29,37.3-25.4,58.7c2.7,16.6,14.8,36.1,25.4,47.5c0.9,0.9,1.7,1.8,2.7,2.7
		c13.5,12.9,39.8,30.9,52.2,50.7c7.1,11.5,9.6,23.6,2.2,35.6c-0.7,1.2-1.5,2.2-2.2,3.2c-18.3,23-60.6,4.3-48.9-12.7
		c16.9,8.4,32.4-33.8,4.2-43.3c-3.7-1.2-7.1-1.9-10.1-2.1c-18.8-1.2-26.8,15.6-27.8,30.4v6.5c0.2,2.8,0.5,5.2,1.2,7.3
		c4.2,14.5,14.2,26.2,26.6,33.2c7.4,4.2,15.8,6.7,24.3,7.1c11.2,0.5,21.4-0.4,30.5-2.7c18.7-4.8,32.3-15.8,37.9-35.4
		c10.3-30.8,4.9-46.6-4.7-61.1c-9.3-14-21.4-25.2-33.3-35.2c-13-10.8-25.9-20.1-35.1-30.1C56.7,256.9,49.2,248.9,53.3,231.6"/>
	<circle class="st1" cx="533.1" cy="350.6" r="9.9"/>
	<path d="M534.7,350.1c0.3-0.1,0.6-0.2,0.8-0.3c0.2-0.2,0.4-0.4,0.6-0.6c0.1-0.3,0.2-0.6,0.2-1c0-0.6-0.2-1-0.5-1.4
		c-0.3-0.4-0.8-0.5-1.6-0.5h-3.8v4h3.2C534,350.2,534.4,350.1,534.7,350.1 M534.4,344.9c1.1,0,1.9,0.3,2.6,0.8
		c0.6,0.5,0.9,1.3,0.9,2.2c0,0.7-0.2,1.3-0.5,1.8c-0.3,0.5-0.8,0.9-1.5,1.1v0c0.3,0.1,0.6,0.2,0.8,0.3c0.2,0.2,0.4,0.3,0.5,0.5
		c0.1,0.2,0.2,0.4,0.3,0.7c0.1,0.3,0.1,0.5,0.1,0.8c0,0.3,0,0.6,0,0.8c0,0.3,0,0.6,0.1,0.9c0,0.3,0.1,0.5,0.2,0.8
		c0.1,0.3,0.2,0.5,0.4,0.7h-1.7c-0.1-0.1-0.2-0.3-0.2-0.5c0-0.2-0.1-0.4-0.1-0.7c0-0.3,0-0.5,0-0.8c0-0.3,0-0.6-0.1-0.8
		c0-0.3-0.1-0.5-0.2-0.8c-0.1-0.3-0.2-0.5-0.3-0.7c-0.1-0.2-0.3-0.3-0.5-0.5c-0.2-0.1-0.5-0.2-0.9-0.2h-3.7v4.9H529v-11.5H534.4z"/>
</g>
</svg>
