<?xml version="1.0" encoding="UTF-8"?>
<svg id="layer" xmlns="http://www.w3.org/2000/svg" version="1.1" viewBox="0 0 652 652">
  <!-- Generator: Adobe Illustrator 30.0.0, SVG Export Plug-In . SVG Version: 2.1.1 Build 123)  -->
  <defs>
    <style>
      .st0 {
        fill: currentColor;
      }
    </style>
  </defs>
  <path class="st0" d="M317,276.7h7.2-7.2Z"/>
  <path class="st0" d="M620.6,275.8h0c-12.6-8-60.1-34.6-95.9-42.6l-.4.1-9.7,23.9-.3.3s-48-13.4-110-18.6v-.3c2-11.2,3.6-21.2,7.3-30.3,0,0-29.8-8.1-88.1-8.1h-5.6c-58.3,0-88.1,8.1-88.1,8.1,3.7,9.1,5.2,19.1,7.2,30.3v.3c-62,5.3-110,18.6-110,18.6l-.3-.3-9.7-23.9-.4-.1c-35.8,8-83.3,34.5-95.9,42.6h0c4.8,7,9.2,14.2,13.4,21.6h0l.2.2c90.3-28.9,186.5-44.7,286.4-45,99.8.4,196.1,16.1,286.4,45l.2-.2h0c4.1-7.4,8.6-14.6,13.3-21.6"/>
  <path class="st0" d="M320.6,261c-98,.4-192.4,15.6-281.3,43.5v.3h0c13.3,25.6,23.2,53.3,29.2,82.3h504.2c5.9-29.1,15.8-56.7,29.2-82.3h0v-.3c-88.8-28-183.3-43.2-281.3-43.5M584.4,306.1c-11.2,22.3-14.9,46-19.6,70.9H76.4c-4.7-24.9-8.4-48.7-19.6-70.9h0c84.7-20.2,173-29,263.8-29.3h-3.6,7.2-3.6c90.8.2,179.1,9.1,263.8,29.3h0Z"/>
  <path class="st0" d="M256.7,332.1c0,19.2,28.2,34.9,62.9,34.9s62.9-15.6,62.9-34.9-28.2-34.9-62.9-34.9c-34.7.1-62.9,15.7-62.9,34.9M361.8,332.1c0,14.9-18.9,26.9-42.2,26.9s-42.2-12.1-42.2-26.9,18.9-26.9,42.2-26.9,42.2,12.1,42.2,26.9"/>
  <path class="st0" d="M388.5,312.2h10.3c5.8,0,9.3,1.9,9.3,1.9l31.9,18.7,1.7,1c1.4.6,2.3,1.4,2.3,2.2,0,.5-.4,1.1-1,1.5l-2.1,1.1-25.4,14.9s-6.2,2.9-11.1,2.9h-15.7c-2,0-3.6,1.5-3.6,3.3s1.6,3.3,3.6,3.3h60.9c2,0,3.5-1.5,3.5-3.3s-1.6-3.3-3.5-3.3h-16.8c-6.4,0,.5-3.8.5-3.8l14.5-8.3,1.6-.9,1-.6c1-.7,1.8-.5,2.8-.5.5,0,1,.1,1.5.4l1.8.9,15.2,8.9s6.4,3.9.5,3.9h-10c-2,0-3.6,1.5-3.6,3.3s1.6,3.3,3.6,3.3h60.8c2,0,3.5-1.5,3.5-3.3s-1.6-3.3-3.5-3.3h-10.1c-5.7,0-9.3-1.8-9.3-1.8l-30.4-17.9-1.7-1c-1.4-.6-2.3-1.4-2.3-2.2,0-.5.3-1,1-1.5l2.2-1.1,26.8-15.8s3.1-3,11.2-3h12.4c2,0,3.6-1.5,3.6-3.3s-1.6-3.3-3.6-3.3l.1-.1h-59.3l-1.6.1c-2,0-3.6,1.4-3.6,3.3,0,1.8,1.6,3.3,3.6,3.3h19.5c5.9,0-.5,4-.5,4l-16,9.2-1.6.9-1,.4c-.5.4-1.1.4-1.7.6-.8.1-2.1-.1-2.6-.4l-2.4-1.2-16-9.4s-6.4-4-.5-4h10.2c2,0,3.6-1.5,3.6-3.3s-1.6-3.3-3.6-3.3l.1-.1h-59.2l-1.6.1c-2,0-3.6,1.4-3.6,3.3-.2,1.8,1.4,3.3,3.4,3.3"/>
  <path class="st0" d="M259,308.9c0-1.9-1.7-3.3-3.7-3.3h.1-62.6c-2.1,0-3.7,1.5-3.7,3.4s1.7,3.4,3.7,3.4h27.9s5-.2,3.9,2.4l-34.4,31.8-.7.8c-.5.5-1.1.8-1.7.8s-1.3-.3-1.8-.9l-.4-.4-34.6-32.3c-1.4-2.6,4.1-2.3,4.1-2.3h21.8c2.1,0,3.7-1.5,3.7-3.4s-1.7-3.4-3.7-3.4h-73.1c-2,0-3.7,1.5-3.7,3.3,0,1.9,1.6,3.4,3.7,3.4h13.4q3.1,0,5.8,2.5c2.3,2,38.9,35.6,51.2,46.9,0,0,1.2.5,2.3.5h11.6c.9,0,2-.5,2-.5l50.2-46.5.6-.7c1.2-1.5,2.7-2.1,4.4-2.1h9.9c2.2,0,3.8-1.5,3.8-3.4"/>
  <path class="st0" d="M438.6,411.1c-.7-.2-1.5-.3-2.5-.3h-1.7v10.1h3.2c.3,0,.6-.1.8-.2.3-.1.5-.2.7-.4.9-.8,1.5-2.2,1.5-4.5,0-1.6-.2-2.7-.7-3.4-.2-.7-.7-1.1-1.3-1.3"/>
  <path class="st0" d="M229.1,410.7h0v-.1.1h-1.8v4h1.7c.8,0,1.4-.1,1.8-.2.5-.1.7-.3.9-.6.2-.3.3-.6.3-1.2s-.2-1.1-.5-1.4c-.1-.4-1-.6-2.4-.6"/>
  <polygon class="st0" points="312.2 417.1 315.7 417.1 314 412.4 312.2 417.1"/>
  <path class="st0" d="M451.2,409.8c-.4.7-.6,1.4-.6,2.2s.2,1.5.6,2.2c.3.4.6.8,1,1.1v-6.6c-.5.3-.8.7-1,1.1"/>
  <path class="st0" d="M360.4,411.1c-.6-.4-1.3-.6-2.2-.6-.6,0-1.1.1-1.6.3-.5.2-.9.5-1.3,1-.3.4-.6,1-.8,1.6-.2.7-.3,1.5-.3,2.3,0,.9.1,1.7.3,2.4.2.7.5,1.3.9,1.7.4.4.8.8,1.3,1s1,.3,1.6.3c.8,0,1.4-.2,2.1-.6.6-.4,1.1-.9,1.5-1.7.4-.8.6-1.8.6-3.1,0-1.1-.2-2.1-.5-2.9-.5-.7-1-1.3-1.6-1.7"/>
  <path class="st0" d="M457.1,408.2c-.7-.4-1.4-.6-2.2-.6s-1.5.2-2.2.6c-.2.1-.4.3-.6.4h3.2c.5,0,.9.1,1.3.2.4.2.6.4.8.7.2.3.3.7.3,1.1,0,.5-.2,1-.5,1.3-.2.2-.4.4-.7.5,0,0,.1.1.1.2.2.2.4.6.7,1l.8,1.3c.2-.2.4-.5.6-.8.4-.7.6-1.4.6-2.2s-.2-1.5-.6-2.2c-.4-.6-.9-1.1-1.6-1.5"/>
  <polygon class="st0" points="189.4 417.1 192.8 417.1 191.1 412.4 189.4 417.1"/>
  <path class="st0" d="M70.1,394.7c1.3,7.4,2.4,19.5,3.1,27h0c44.7,9.9,114,22.8,247,22.8l.9.2c132.9,0,202.2-13.1,246.9-23v-1.5c.8-7.6,1.8-18.2,3.1-25.6H70.1v.1ZM198.7,424.2c-.4.4-.9.6-1.5.6h0c-.3,0-.6-.1-.9-.2-.3-.1-.5-.3-.7-.5s-.3-.5-.5-.8l-.3-.6h0l-.1-.2v-.1l-.1-.3h0l-.6-1.5h-6l-.7,1.8c-.3.8-.6,1.4-.9,1.8-.3.4-.9.6-1.5.6h.1c-.5,0-1-.2-1.3-.6-.4-.4-.6-.9-.6-1.4,0-.3.1-.6.1-.9.1-.3.2-.6.4-1l4.2-10.7c.1-.3.3-.7.4-1.1.2-.5.4-.8.6-1.2s.6-.6.9-.8c.4-.2.9-.3,1.4-.3h0c.5,0,1,.1,1.4.3.4.2.7.5.9.8s.4.6.5,1c.1.3.3.7.5,1.3l4.3,10.6c.3.8.5,1.4.5,2,.1.5-.2,1-.5,1.4M218.5,409.5v13c0,.7-.2,1.3-.6,1.7-.4.4-.9.6-1.5.6h-.1c-.5,0-1-.2-1.4-.6s-.6-1-.6-1.7v-7.2l-1.6,6.5c-.2.7-.3,1.2-.4,1.5-.1.4-.4.8-.7,1.1-.4.4-.9.5-1.5.5-.5,0-.9-.1-1.3-.3-.3-.2-.6-.5-.8-.8s-.3-.6-.4-1c-.1-.2-.1-.5-.2-.7h0l-.1-.2h0l-.1-.3h0l-1.6-6.2v7.2c0,.7-.1,1.3-.5,1.7-.4.4-.9.6-1.5.6h-.1c-.5,0-1-.2-1.4-.6s-.6-1.1-.6-1.8v-13c0-.8.2-1.5.8-1.9.5-.3,1.1-.5,1.8-.5h1c.6,0,1.1,0,1.5.2s.7.5.9.9c.2.3.3.8.5,1.5l1.9,7.1,1.9-7.1c.2-.7.3-1.2.5-1.5.2-.4.5-.7.9-.9.4-.2.9-.2,1.6-.2h1c.7,0,1.3.1,1.8.5.7.4.9,1.1.9,1.9h0ZM236.5,412.6h0v.3c-.1,1.6-.6,3-1.7,3.9-1.2,1-2.8,1.4-4.9,1.4h-2.5v4.1c0,.7-.2,1.4-.6,1.9-.4.4-.9.7-1.6.7h-.1c-.6,0-1.1-.2-1.5-.7s-.6-1.1-.6-1.8h0v-12.6c0-.8.2-1.5.7-1.9s1.1-.6,1.9-.6h4.3c1.3,0,2.3.1,3.1.3.7.2,1.4.6,1.9,1,.5.5,1,1.1,1.2,1.8.3.6.4,1.3.4,2.2M253,422.7v.3h0c-.1.4-.3.8-.6,1.1-.4.4-1,.5-1.6.5h-8c-.8,0-1.5-.2-1.9-.6-.5-.5-.6-1.1-.6-1.9v-12.6c0-.7.2-1.4.6-1.8.4-.5.9-.7,1.5-.7h0c.6,0,1.2.2,1.6.7.4.5.6,1.1.6,1.9v11.4h6.2c.6,0,1.2.1,1.6.5.4.2.6.7.6,1.2h0ZM260.7,422.3c0,.8-.2,1.4-.6,1.9-.4.4-1,.7-1.6.7h-.1c-.6,0-1.1-.3-1.5-.7-.4-.5-.6-1.1-.6-1.9v-12.9c0-.7.2-1.4.6-1.9.4-.4.9-.7,1.5-.7h0c.6,0,1.2.2,1.6.7s.6,1.1.6,1.9v12.9h.1ZM277.9,408.9v.1h0c0,.5-.2.9-.6,1.2-.3.3-.8.4-1.2.5h-6.3v3.2h5c.6,0,1.1.1,1.5.5.4.3.5.8.5,1.3h0v.3h0c-.1.4-.2.7-.5,1-.4.3-.9.5-1.5.5h-5v4.9c0,.8-.2,1.4-.6,1.9-.4.4-1,.7-1.6.7h-.1c-.6,0-1.1-.2-1.5-.7s-.6-1.1-.6-1.9v-12.6c0-.5.1-1,.3-1.4.2-.4.5-.7.9-.9.4-.2.9-.3,1.4-.3h7.8c.6,0,1.1.1,1.5.5.4.3.6.7.6,1.2h0ZM285.5,422.3c0,.8-.2,1.4-.6,1.9-.4.4-1,.7-1.6.7h-.1c-.6,0-1.1-.3-1.5-.7-.4-.5-.6-1.1-.6-1.9v-12.9c0-.7.2-1.4.6-1.9.4-.4.9-.7,1.5-.7h0c.6,0,1.2.2,1.6.7s.6,1.1.6,1.9v12.9h.1ZM304.8,418.9c0,.6-.2,1.2-.4,1.9-.3.7-.7,1.3-1.3,1.9-.6.6-1.4,1.2-2.3,1.6s-2,.6-3.2.6h0c-.9,0-1.7-.1-2.5-.3-.8-.2-1.5-.4-2.1-.8s-1.2-.9-1.7-1.5c-.5-.5-.8-1.2-1.2-1.8-.3-.7-.6-1.4-.7-2.2-.2-.8-.2-1.6-.2-2.4,0-1.4.2-2.6.6-3.7s1-2.1,1.8-2.8c.8-.8,1.7-1.4,2.7-1.8s2.1-.6,3.3-.6c1.4,0,2.7.3,3.8.9,1.1.6,2,1.3,2.6,2.1.6.8.9,1.7.9,2.5v.1h0c0,.5-.2.9-.5,1.2-.3.4-.8.6-1.3.6h0c-.5,0-1-.1-1.3-.4s-.5-.7-.8-1.2c-.4-.8-.9-1.3-1.4-1.6-.5-.3-1.1-.5-1.9-.5-1.2,0-2.1.4-2.9,1.4-.7.9-1.1,2.3-1.1,4.1,0,1.2.2,2.2.5,3s.8,1.3,1.3,1.7c.6.4,1.2.5,2,.5.9,0,1.6-.2,2.1-.6.6-.4,1-1,1.3-1.8.2-.5.4-.9.6-1.2.3-.4.8-.6,1.4-.6h0c.5,0,1,.2,1.4.6.3.1.5.5.5,1.1h0ZM322.2,422.9h0c0,.5-.3.9-.6,1.3-.4.4-.9.6-1.5.6h0c-.3,0-.6-.1-.9-.2-.2-.1-.5-.3-.6-.5-.2-.2-.3-.5-.5-.8-.1-.2-.2-.4-.3-.6h0l-.1-.4-.1-.1h0l-.6-1.5h-6l-.7,1.8c-.3.8-.6,1.4-.9,1.8s-.9.6-1.5.6h-.1c-.5,0-1-.2-1.3-.6-.4-.4-.6-.9-.6-1.4h0c0-.3,0-.5.1-.8s.2-.6.4-1l4.2-10.7c.1-.3.3-.7.4-1.1.2-.5.4-.8.6-1.2.2-.4.6-.6.9-.8.4-.2.9-.3,1.4-.3h0c.5,0,1,.1,1.4.3.4.2.7.5.9.8.2.3.4.6.5,1,.1.3.3.7.5,1.3l4.3,10.6c.3.8.5,1.4.5,2v-.1h.2ZM338.2,409.3h0c-.1.4-.3.8-.6,1.1-.4.4-1,.5-1.6.5h-3.1v11.4c0,.8-.2,1.4-.6,1.9-.4.4-.9.7-1.6.7h0c-.6,0-1.2-.2-1.6-.7s-.6-1.1-.6-1.9v-11.4h-3.1c-.6,0-1.2-.1-1.6-.5-.4-.3-.6-.8-.6-1.4h0c0-.5.2-1,.6-1.4s1-.5,1.6-.5h10.6c.6,0,1.2.1,1.6.5.4.3.6.8.6,1.4h0v.3ZM345.7,422.3c0,.8-.2,1.4-.6,1.9-.4.4-1,.7-1.6.7h0c-.6,0-1.2-.2-1.5-.7-.4-.4-.6-.9-.6-1.6h0v-13.2h0c0-.7.2-1.4.6-1.8s.9-.7,1.5-.7h0c.6,0,1.2.2,1.6.7s.6,1.1.6,1.9v12.8ZM366.8,415.9h0c0,1.3-.2,2.5-.5,3.6-.4,1.1-.9,2.1-1.6,2.9s-1.7,1.5-2.7,1.9c-1.1.4-2.3.6-3.6.6h-.1c-1.3,0-2.5-.2-3.6-.7-1.1-.4-2-1.1-2.7-1.9s-1.3-1.8-1.6-2.9c-.4-1.1-.6-2.3-.6-3.6h0v-.1c0-1.3.2-2.5.6-3.6s.9-2.1,1.7-2.9c.7-.8,1.6-1.4,2.7-1.8s2.2-.6,3.5-.6c1.8,0,3.3.4,4.6,1.1,1.3.7,2.3,1.8,3,3.2.5,1.4.9,2.9.9,4.8h0ZM384.8,422.2c0,1.6-.8,2.7-2.3,2.7-.3,0-.7-.1-1-.2s-.6-.3-.9-.5l-.7-.7c-.2-.3-.4-.5-.5-.8l-5.3-8.1v8.1h0c0,.6-.2,1.1-.6,1.5s-.9.7-1.5.7h0v-.3h0v.3h-.1c-.6,0-1.1-.2-1.4-.6-.4-.5-.5-1.1-.5-1.7v-12.7c0-.6.1-1.1.2-1.5.2-.4.5-.8.9-1.1.4-.3.9-.4,1.3-.4h0c.3,0,.7.1.9.2.3.1.5.3.7.5s.4.4.6.7c.2.3.3.5.5.8l5.5,8.2v-8.1c0-.7.2-1.3.5-1.7.4-.4.9-.7,1.5-.7h0c.6,0,1.1.2,1.5.7.4.4.6,1.1.6,1.8v12.9h.1ZM410.6,423h0c-.1.4-.3.8-.6,1.1-.4.4-.9.5-1.6.5h-8c-.8,0-1.5-.2-1.9-.6-.4-.5-.6-1.1-.6-1.9v-12.6c0-.7.2-1.4.6-1.8s.9-.7,1.5-.7h0c.6,0,1.2.2,1.6.7.4.4.6.9.6,1.6h0v11.7h6.2c.6,0,1.2.1,1.6.5.4.3.6.8.6,1.3h0v.2h0ZM427.1,409v.3h0c-.1.4-.3.8-.6,1.1-.4.4-1,.5-1.6.5h-3.1v11.4c0,.8-.2,1.4-.6,1.9-.4.4-.9.7-1.5.7h0c-.6,0-1.2-.2-1.6-.7s-.6-1.1-.6-1.8h0v-11.4h-3.1c-.6,0-1.2-.1-1.6-.5-.4-.3-.6-.8-.6-1.4h0c0-.5.2-1,.6-1.4s1-.5,1.6-.5h10.6c.7,0,1.2.1,1.6.5.3.3.5.8.5,1.3h0ZM444.9,418.6c-.2.8-.5,1.6-.8,2.3-.4.7-.9,1.3-1.5,1.9-.5.4-1,.8-1.6,1-.6.3-1.2.4-1.8.6-.6.1-1.3.1-2.1.1h-4.3c-.7,0-1.2-.1-1.6-.3-.4-.2-.7-.6-.8-1.1-.1-.4-.2-.9-.2-1.4v-12c0-.8.2-1.5.6-1.9.5-.5,1.1-.6,1.9-.6h4.3c1.2,0,2.2.1,3,.3.9.2,1.7.7,2.4,1.3,1.8,1.6,2.7,4,2.7,7h0c.1,1,0,2-.2,2.8M453.5,422.2h0c0,.6-.3,1.2-.7,1.6-.5.4-1,.6-1.7.6h0v-.3l-.1.3.1-.2v.3h-.1c-.6,0-1.2-.2-1.6-.6-.5-.4-.7-1.1-.7-1.8h0c0-.6.2-1.2.7-1.7s1-.7,1.7-.7h0c.7,0,1.2.2,1.7.7.5.4.7,1,.7,1.7h0v.1ZM460.1,415c-.6.9-1.3,1.7-2.2,2.2-.9.5-2,.8-3,.8-1.1,0-2.1-.3-3.1-.8-.9-.5-1.7-1.3-2.2-2.2-.5-.9-.8-1.9-.8-3s.3-2.1.8-3,1.3-1.7,2.2-2.2c.9-.5,2-.8,3.1-.8.8,0,1.6.2,2.4.5.7.3,1.4.7,1.9,1.3.6.6,1,1.2,1.3,1.9.3.7.4,1.5.4,2.3.1,1.1-.2,2.1-.8,3"/>
  <path class="st0" d="M455.6,411.1c.1-.1.2-.1.2-.4q0-.2-.2-.3c-.1-.1-.4-.2-.8-.2h-.8v1.1h.7c.4,0,.7-.1.9-.2"/>
  <path class="st0" d="M456,415.2l-.5-1c-.2-.4-.4-.8-.6-.9-.2-.2-.3-.3-.4-.3-.1-.1-.3-.1-.5-.1h0v2.5h-1.7c.2.1.3.3.5.4.7.4,1.4.6,2.2.6s1.5-.2,2.2-.6c.2-.1.3-.2.5-.4h-1.7v-.2Z"/>
</svg>
