<svg xmlns="http://www.w3.org/2000/svg" viewBox="0 0 216 239.67"><g fill="currentColor"><path d="m59.59 80.4c-5.33 3.13-7.76 8.9-5.43 12.88 1.91 3.24 6.4 4.3 10.89 2.87a4.83 4.83 0 1 1 7.57-5.58c1.9-2.84 2.35-6.11.86-8.65-2.34-3.98-8.56-4.66-13.89-1.52z"></path><path d="m156.41 80.4c-5.33-3.14-11.55-2.46-13.89 1.52-1.49 2.54-1 5.81.86 8.65a4.83 4.83 0 1 1 7.55 5.58c4.49 1.43 9 .38 10.91-2.87 2.33-3.98-.1-9.75-5.43-12.88z"></path><path d="m113 96.84c0-.09.09-.17.13-.25z"></path><path d="m102.83 96.54.14.27z"></path><path d="m216 108a108 108 0 1 0 -148.08 100.28 102.75 102.75 0 0 1 -7.19 27.17 3 3 0 0 0 2.69 4.22 3.1 3.1 0 0 0 1.32-.3c12.76-6.29 22.42-14.44 28.91-24.32a109.68 109.68 0 0 0 14.35.95 108 108 0 0 0 14.35-1c6.49 9.89 16.15 18 28.91 24.33a3.1 3.1 0 0 0 1.32.3 3 3 0 0 0 2.71-4.22 102.08 102.08 0 0 1 -7.18-27.18 108.16 108.16 0 0 0 67.89-100.23zm-125.11 88.05a54.39 54.39 0 0 1 -6 15.46c-.89 1.56-1.89 3.07-2.89 4.54l-.26.37c-.61.86-1.25 1.7-1.9 2.53l-.35.45c-.65.82-1.33 1.62-2 2.41l-.31.35c-.73.82-1.47 1.62-2.23 2.4a1.57 1.57 0 0 1 -2.58-1.73v-.1a53.89 53.89 0 0 0 2.92-7.47c.42-1.31.79-2.63 1.13-4s.6-2.58.84-3.88a63.15 63.15 0 0 0 1.08-13.38c0-.87-.06-1.73-.12-2.6a54.09 54.09 0 0 0 -3-14.28 42.32 42.32 0 0 0 5.35.34 35.44 35.44 0 0 0 10.84-1.69c.2 1.2.36 2.4.48 3.61a54 54 0 0 1 -1 16.67zm17.11 2.95q-3.51 0-7-.27c.14-.47.29-.94.41-1.43a68 68 0 0 0 1-27.4 34.25 34.25 0 0 0 5.59-5.7 33.56 33.56 0 0 0 5.6 5.7 67.79 67.79 0 0 0 1 27.4c.12.49.27 1 .41 1.43q-3.5.27-7.01.27zm34.95 26a1.54 1.54 0 0 1 -1.86-.37c-.76-.78-1.5-1.58-2.23-2.4l-.31-.35c-.7-.79-1.37-1.59-2-2.41l-.36-.45c-.65-.83-1.28-1.67-1.89-2.53l-.26-.37c-1-1.47-2-3-2.89-4.54a53.57 53.57 0 0 1 -7-32.14c.12-1.21.28-2.41.48-3.61a35.44 35.44 0 0 0 10.84 1.69 42.44 42.44 0 0 0 5.35-.34 54.49 54.49 0 0 0 -3 14.28c-.06.87-.1 1.73-.12 2.6a63.15 63.15 0 0 0 1.07 13.42c.24 1.3.53 2.6.85 3.88q.24 1 .51 1.92s0 0 0 .07c.18.67.38 1.33.59 2a53.89 53.89 0 0 0 2.92 7.47v.1a1.58 1.58 0 0 1 -.64 2.01zm5.36-35.41a46.44 46.44 0 0 1 5.69-16.38l.21-.36c11-6 17.83-17.33 18.68-30.59v-69.81c-.85-17.29-11-31.14-28.22-34.33a7.27 7.27 0 0 0 -.81-.17s0 0 0 0c-.84 0-.9-.07-1.28-.07a10 10 0 0 0 -10 9.93 9.83 9.83 0 0 0 7.92 9.74s0 0 0 0c8.37 1.78 12.72 8.25 12.72 16.75v1.17a16.15 16.15 0 0 1 6.35 2.37c7.16 4.2 10.42 11.94 7.27 17.29-2.42 4.11-7.66 5.59-13.62 4.13v41.16c0 9.81-6.92 17.84-17.62 17.84s-17.32-8-17.32-17.84v-20.92c0-7.56 2.78-15.12 8.7-16.26 7.37-1.41 9-9 5.33-13.73s-11.18-4.65-17.21 3.75c-.4.64-1.13 1.82-1.94 3.33.07-.14-.15.19-.41.68-1.85 3.64-4.42 11-4.7 16.81v1.47s0-.13 0-.2a1.8 1.8 0 0 1 0 .2c.15-6-2.69-14.34-4.71-18.29l-.4-.72.14.27-.14-.27c-.81-1.5-1.51-2.66-1.91-3.3-6-8.39-13.58-8.41-17.15-3.74s-2 12.22 5.31 13.74c5 1 8.78 8.49 8.78 16.26v20.92c0 9.81-6.76 17.84-17.32 17.84s-17.62-8-17.62-17.84v-41.16c-6 1.46-11.3 0-13.72-4.13-3.14-5.35.17-13.09 7.33-17.29a16.28 16.28 0 0 1 6.39-2.37v-1.17c0-8.5 4.29-15 12.66-16.75a9.86 9.86 0 0 0 8-9.74 10 10 0 0 0 -10-9.93c-.37 0-.36 0-1.21.07s0 0 0 0a7.52 7.52 0 0 0 -.85.17c-17.24 3.19-27.24 17-28.09 34.33v69.81c.85 13.26 7.56 24.59 18.59 30.59.07.12.1.23.17.36a46.27 46.27 0 0 1 5.65 16.33 91 91 0 1 1 80.58 0z"></path></g></svg>
