<?xml version="1.0" encoding="UTF-8"?>
<svg id="Layer_1" xmlns="http://www.w3.org/2000/svg" version="1.1" viewBox="0 0 549.67 164.34">
  <!-- Generator: Adobe Illustrator 30.0.0, SVG Export Plug-In . SVG Version: 2.1.1 Build 123)  -->
  <defs>
    <style>
      .st0 {
        fill: #231f20;
      }

      .st1 {
        fill: #010101;
      }
    </style>
  </defs>
  <g>
    <path class="st1" d="M44.28,55.89c-3.54,2.08-5.15,5.91-3.6,8.55,1.27,2.15,4.25,2.86,7.23,1.91-.69-.58-1.13-1.46-1.13-2.44,0-1.78,1.43-3.21,3.21-3.21,1.32,0,2.45.8,2.95,1.94,1.26-1.88,1.56-4.05.57-5.73-1.56-2.64-5.68-3.09-9.22-1.01Z"/>
    <path class="st1" d="M108.54,55.89c-3.54-2.08-7.66-1.63-9.22,1.01-.99,1.69-.69,3.85.57,5.73.49-1.14,1.63-1.94,2.95-1.94,1.77,0,3.21,1.43,3.21,3.21,0,.98-.45,1.85-1.14,2.44,2.98.95,5.97.25,7.24-1.91,1.55-2.64-.06-6.47-3.6-8.55Z"/>
    <path class="st1" d="M79.75,66.8c.03-.06.06-.11.09-.16-.01.03-.04.07-.09.16Z"/>
    <path class="st1" d="M100.22,27.7s0,0-.01,0h.01,0Z"/>
    <path class="st1" d="M72.98,66.61s.04.08.09.18c-.03-.06-.06-.12-.09-.18Z"/>
    <path class="st1" d="M148.09,74.21c0-39.52-32.16-71.68-71.68-71.68-39.52,0-71.68,32.16-71.68,71.68,0,30.12,18.69,55.97,45.07,66.55-1.16,9.96-4.71,17.89-4.77,18.03-.35.76-.19,1.66.41,2.25.38.36.87.56,1.38.56.3,0,.59-.07.87-.2,8.47-4.17,14.88-9.58,19.19-16.14,3.12.41,6.29.63,9.52.63s6.41-.22,9.52-.64c4.31,6.56,10.72,11.97,19.19,16.14.28.14.58.2.88.2.5,0,1-.2,1.38-.56.6-.59.77-1.48.42-2.25-.06-.14-3.62-8.07-4.77-18.03,26.38-10.59,45.06-36.43,45.06-66.55ZM65.05,132.65c-.79,3.61-2.17,7.09-3.99,10.26-.6,1.04-1.24,2.04-1.92,3.01-.06.08-.11.16-.17.25-.41.57-.83,1.13-1.26,1.68-.08.1-.15.2-.23.3-.43.54-.88,1.08-1.34,1.6-.07.08-.14.15-.21.23-.48.54-.97,1.08-1.48,1.6-.38.43-1.04.47-1.47.09-.36-.32-.45-.82-.25-1.24l.03-.07c.76-1.54,1.4-3.26,1.94-4.96.28-.87.52-1.75.74-2.63.21-.85.4-1.71.56-2.57.55-2.95.8-5.94.71-8.91h0c-.02-.58-.04-1.15-.08-1.73-.24-3.24-.91-6.44-2-9.48,1.15.14,2.34.23,3.55.23,2.52,0,4.94-.4,7.2-1.12.13.8.24,1.59.31,2.4.36,3.7.14,7.45-.66,11.07ZM76.41,134.58c-1.55,0-3.09-.06-4.62-.18.09-.32.19-.63.27-.95,1.72-6.81,1.44-13.23.64-18.19,1.38-1.11,2.63-2.38,3.71-3.78,1.08,1.41,2.33,2.67,3.71,3.79-.81,4.96-1.09,11.38.63,18.19.08.32.18.63.27.95-1.52.12-3.06.18-4.62.18ZM99.61,151.81c-.43.22-.93.1-1.24-.24-.51-.52-1-1.05-1.48-1.6-.07-.08-.14-.15-.21-.23-.46-.52-.9-1.06-1.34-1.6-.08-.1-.16-.2-.23-.3-.43-.55-.85-1.11-1.26-1.68-.06-.08-.12-.17-.17-.25-.68-.97-1.33-1.98-1.92-3.01-1.82-3.17-3.2-6.64-3.99-10.26-.8-3.62-1.01-7.38-.66-11.07.08-.8.19-1.6.31-2.4,2.26.72,4.68,1.12,7.2,1.12,1.22,0,2.4-.08,3.55-.23-1.09,3.04-1.75,6.23-2,9.48-.04.57-.07,1.15-.08,1.73h0c-.08,2.97.16,5.96.71,8.91.16.86.35,1.72.56,2.57.11.42.22.85.34,1.27,0,.02,0,.03.01.05.12.44.25.88.39,1.31.54,1.7,1.18,3.42,1.94,4.96l.03.07c.25.52.04,1.14-.47,1.39ZM103.16,128.31c.59-3.72,1.75-7.41,3.75-10.83.05-.08.09-.16.14-.24,7.32-3.98,11.83-11.5,12.39-20.3v-46.33c-.57-11.47-7.29-20.66-18.73-22.78-.22-.05-.31-.09-.53-.12-.02,0,0,0,.02-.01-.55-.03-.6-.05-.84-.05-3.64,0-6.65,2.95-6.65,6.59,0,2.07,1.21,5.63,5.26,6.46.02,0,0,.01.02.02,5.55,1.18,8.44,5.47,8.44,11.11v.78c1.7.25,2.85.76,4.22,1.57,4.75,2.79,6.91,7.93,4.82,11.47-1.61,2.73-5.08,3.71-9.04,2.74v27.31c0,6.52-4.59,11.84-11.69,11.84-7.01,0-11.49-5.33-11.49-11.84v-13.88c0-5.02,1.85-10.03,5.77-10.79,4.9-.94,5.95-5.96,3.54-9.12-2.37-3.1-7.42-3.08-11.42,2.49-.27.42-.75,1.21-1.29,2.21.05-.09-.09.13-.27.45-1.23,2.42-2.94,7.3-3.12,11.15-.02.33-.02.66-.02.98h-.03s0-.09-.01-.14c0,.05,0,.14-.01.14h-.03c.1-3.96-1.79-9.52-3.13-12.14-.17-.32-.3-.55-.26-.48.03.06.06.12.09.18-.05-.1-.08-.15-.09-.18-.54-1-1-1.77-1.27-2.19-4-5.57-9.01-5.58-11.38-2.48-2.42,3.16-1.35,8.11,3.53,9.12,3.29.68,5.83,5.63,5.83,10.79v13.88c0,6.52-4.48,11.84-11.49,11.84-7.1,0-11.69-5.33-11.69-11.84v-27.31c-3.96.97-7.5-.01-9.1-2.74-2.09-3.55.11-8.68,4.86-11.47,1.37-.8,2.54-1.32,4.24-1.57v-.78c0-5.64,2.84-9.94,8.4-11.11.02,0,0-.01.02-.02,4.05-.83,5.28-4.39,5.28-6.46,0-3.64-3.02-6.59-6.66-6.59-.25,0-.24.02-.81.05h0s0,0-.03.01c-.22.03-.35.07-.56.12-11.44,2.12-18.08,11.31-18.64,22.78v46.33c.57,8.8,5.01,16.31,12.34,20.3.05.08.07.15.11.24,2,3.42,3.16,7.11,3.75,10.84-19.92-9.88-33.64-30.42-33.64-54.12,0-33.29,27.08-60.37,60.37-60.37s60.37,27.08,60.37,60.37c0,23.68-13.71,44.22-33.61,54.1Z"/>
  </g>
  <path class="st1" d="M251.47,21.79h-12.43s0,43,0,43c0,6.22-4.52,11.3-11.29,11.3-6.68,0-11.1-5.08-11.1-11.3V21.79s-12.52,0-12.52,0v43c0,6.22-4.42,11.3-11.19,11.3s-11.29-5.08-11.29-11.3V21.79s-12.33,0-12.33,0v42.9c0,13.09,9.7,23.53,23.62,23.53,7.25,0,13.36-3.28,17.42-8.46,3.95,5.18,10.25,8.46,17.4,8.46,14.02,0,23.72-10.43,23.72-23.53V21.79Z"/>
  <path class="st1" d="M464.75,61.6c0,9.69-4.25,14.58-12.71,14.58-8.46,0-12.71-4.88-12.71-14.58V21.79s-12.41,0-12.41,0v39.43c0,16.66,8.66,27,25.12,27,16.47,0,25.21-10.34,25.21-27V21.79s-12.51,0-12.51,0v39.81Z"/>
  <path class="st1" d="M290.63,21.78h-15.71s-23.16,65.66-23.16,65.66h13.18s4.79-13.55,4.79-13.55h26.07s4.71,13.55,4.71,13.55h13.18s-23.07-65.66-23.07-65.66ZM273.59,62.83l9.12-26.81,9.14,26.81h-18.27Z"/>
  <path class="st1" d="M411.85,55.21c5.65-2.63,9.37-6.98,9.37-14.42,0-12.22-8.53-19.02-22.18-19.02h-31.04s0,65.66,0,65.66h12.63s0-26.18,0-26.18h17.94c5.84,0,7.33,2.25,7.33,7.8v18.39s12.63,0,12.63,0v-18.29c0-6.87-2.08-11.38-6.68-13.93ZM399.34,50.2h-18.7s0-17.37,0-17.37h18.41c9.98,0,9.98,6.42,9.98,8.59,0,8.1-8.1,8.78-9.69,8.78Z"/>
  <polygon class="st1" points="363.48 75.86 331.02 75.86 331.02 21.79 318.49 21.79 318.49 87.44 363.48 87.44 363.48 75.86"/>
  <path class="st1" d="M512.65,47.39c-9.98-2.07-14.4-3.68-14.4-8.2,0-4.99,6.11-7.53,12.69-7.53,7.91,0,12.62,4.25,12.62,9.88h12.43c0-10.34-7.82-21.46-25.04-21.46-15.24,0-25.12,7.82-25.12,19.01,0,14.02,12.24,17.61,24.29,19.96,12.05,2.35,15.43,4.9,15.43,9.03,0,6.2-7.44,8.75-14.59,8.75-6.59,0-14.3-3.66-14.3-11.39h-12.41c0,15.71,13.92,22.77,26.72,22.77,16.47,0,27.02-7.89,27.02-20.51,0-13.36-9.79-17.23-25.31-20.32Z"/>
  <path class="st1" d="M431.45,98.86c-13.42,0-24.29,11.22-24.29,25.49,0,14.34,10.87,25.56,24.29,25.56,13.4,0,24.28-11.31,24.28-25.56,0-14.54-10.67-25.49-24.28-25.49ZM431.45,144.12c-10.11,0-18.37-8.61-18.37-19.77,0-11.08,8.26-19.77,18.37-19.77,10.29,0,18.35,8.48,18.35,19.77,0,11.08-8.26,19.77-18.35,19.77Z"/>
  <rect class="st1" x="392.34" y="99.54" width="6" height="48.99"/>
  <path class="st1" d="M272.34,100.07h-6.77s-18.51,48.95-18.51,48.95h6.51s5.23-14.21,5.23-14.21h19.83s5.15,14.21,5.15,14.21h6.71s-18.14-48.95-18.14-48.95ZM260.83,130.07l7.97-21.82,7.85,21.82h-15.82Z"/>
  <path class="st1" d="M361.35,100.07h-18.6s0,48.95,0,48.95h18.6c13.57,0,22.25-9.37,22.25-24.55,0-15.17-8.68-24.4-22.25-24.4ZM361.35,144.28h-12.28s0-37.89,0-37.89h12.28c8.97,0,16.1,5.51,16.1,18.91,0,13.2-7.05,18.98-16.1,18.98Z"/>
  <path class="st1" d="M326.63,131.49c0,7.26-4.52,12.63-12.78,12.63-8.19,0-12.85-5.37-12.85-12.63v-31.42s-5.94,0-5.94,0v31.42c0,10.86,7.56,18.43,18.79,18.43,11.15,0,18.78-7.57,18.78-18.43v-31.42s-6,0-6,0v31.42Z"/>
  <path class="st0" d="M543.8,23.92c0,2.16-1.7,3.86-3.91,3.86s-3.93-1.7-3.93-3.86,1.74-3.81,3.93-3.81,3.91,1.7,3.91,3.81ZM536.94,23.92c0,1.7,1.25,3.05,2.98,3.05s2.91-1.35,2.91-3.02-1.23-3.07-2.93-3.07-2.95,1.37-2.95,3.05ZM539.29,25.92h-.88v-3.81c.35-.07.84-.12,1.47-.12.72,0,1.05.12,1.32.28.21.16.37.46.37.84,0,.42-.33.74-.79.88v.05c.37.14.58.42.7.93.12.58.19.81.28.95h-.95c-.12-.14-.19-.49-.3-.93-.07-.42-.3-.6-.79-.6h-.42v1.53ZM539.31,23.76h.42c.49,0,.88-.16.88-.56,0-.35-.26-.58-.81-.58-.23,0-.4.02-.49.05v1.09Z"/>
</svg>

